{"glyphs":{"0":{"ha":985,"x_min":0,"x_max":0,"o":"m 492 985 b 894 486 714 985 894 798 b 492 -12 894 175 714 -12 b 91 486 272 -12 91 175 b 492 985 91 798 272 985 m 492 882 b 203 486 333 882 203 741 b 492 90 203 231 333 90 b 783 486 653 90 783 231 b 492 882 783 741 653 882 "},"1":{"ha":586,"x_min":0,"x_max":0,"o":"m 440 0 l 333 0 l 333 828 l 46 704 l 46 816 l 440 984 "},"2":{"ha":763,"x_min":0,"x_max":0,"o":"m 59 824 b 357 985 105 892 190 985 b 667 684 554 985 667 856 b 537 409 667 563 600 476 l 247 102 l 699 102 l 699 0 l 88 0 l 88 84 l 455 472 b 555 684 515 534 555 601 b 353 883 555 796 483 883 b 137 761 243 883 183 825 "},"3":{"ha":773,"x_min":0,"x_max":0,"o":"m 352 985 b 674 719 544 985 674 876 b 522 491 674 604 613 530 b 695 260 624 453 695 375 b 361 -12 695 76 533 -12 b 46 115 226 -12 117 35 l 115 187 b 359 88 175 124 263 88 b 583 265 480 88 583 144 b 349 442 583 378 478 442 l 221 442 l 221 540 l 348 540 b 562 713 467 540 562 598 b 346 885 562 818 468 885 b 131 774 249 885 174 834 l 54 840 b 352 985 110 923 211 985 "},"4":{"ha":800,"x_min":0,"x_max":0,"o":"m 597 306 l 763 306 l 763 204 l 597 204 l 597 0 l 490 0 l 490 204 l 36 204 l 36 287 l 399 972 l 521 972 l 165 306 l 490 306 l 490 576 l 597 576 "},"5":{"ha":803,"x_min":0,"x_max":0,"o":"m 676 871 l 247 871 l 238 583 l 381 583 b 721 297 610 583 721 453 b 388 -13 721 99 572 -13 b 59 138 251 -13 141 38 l 131 208 b 388 89 194 132 290 89 b 610 288 531 89 610 178 b 349 482 610 394 540 482 l 137 482 l 149 972 l 676 972 "},"6":{"ha":803,"x_min":0,"x_max":0,"o":"m 295 592 b 418 620 326 608 365 620 b 744 303 599 620 744 485 b 400 -12 744 123 598 -12 b 55 303 202 -12 55 123 b 127 519 55 379 81 446 l 417 972 l 547 972 m 400 521 b 165 303 265 521 166 431 b 400 87 165 177 265 87 b 634 303 535 87 634 177 b 400 521 634 431 535 521 "},"7":{"ha":760,"x_min":0,"x_max":0,"o":"m 715 888 l 275 0 l 150 0 l 585 871 l 55 871 l 55 972 l 715 972 "},"8":{"ha":876,"x_min":0,"x_max":0,"o":"m 438 985 b 775 719 623 985 775 888 b 606 491 775 599 701 527 b 798 259 712 456 798 383 b 438 -13 798 85 636 -13 b 77 259 239 -13 77 85 b 269 491 77 383 163 456 b 100 719 174 527 100 599 b 438 985 100 888 252 985 m 438 443 b 190 265 301 443 190 381 b 438 87 190 148 302 87 b 684 265 573 87 684 148 b 438 443 684 381 573 443 m 438 885 b 213 713 315 885 213 825 b 438 537 213 597 315 537 b 662 713 560 537 662 597 b 438 885 662 825 560 885 "},"9":{"ha":803,"x_min":0,"x_max":0,"o":"m 494 367 b 394 352 463 357 428 352 b 59 669 201 352 59 488 b 403 985 59 849 205 985 b 749 669 601 985 749 849 b 676 453 749 593 723 526 l 387 0 l 256 0 m 403 451 b 638 669 538 451 638 542 b 403 885 638 795 538 885 b 169 669 269 885 169 794 b 403 451 169 542 269 451 "},"\u0000":{"ha":0,"x_min":0,"x_max":0,"o":""},"\r":{"ha":371,"x_min":0,"x_max":0,"o":""}," ":{"ha":371,"x_min":0,"x_max":0,"o":""},"!":{"ha":364,"x_min":0,"x_max":0,"o":"m 228 309 l 135 309 l 118 972 l 245 972 m 182 162 b 269 75 228 162 269 122 b 182 -12 269 28 228 -12 b 95 75 135 -12 95 28 b 182 162 95 122 135 162 "},"\"":{"ha":728,"x_min":0,"x_max":0,"o":"m 300 1000 l 300 648 l 197 648 l 197 1000 m 532 1000 l 532 648 l 428 648 l 428 1000 "},"#":{"ha":1017,"x_min":0,"x_max":0,"o":"m 342 717 l 396 972 l 492 972 l 438 717 l 678 717 l 733 972 l 829 972 l 775 717 l 933 717 l 913 624 l 755 624 l 697 353 l 855 353 l 835 260 l 678 260 l 622 0 l 526 0 l 581 260 l 341 260 l 285 0 l 189 0 l 244 260 l 84 260 l 104 353 l 264 353 l 322 624 l 162 624 l 181 717 m 360 353 l 601 353 l 658 624 l 418 624 "},"$":{"ha":972,"x_min":0,"x_max":0,"o":"m 543 1097 l 543 965 b 845 863 666 957 766 917 l 790 776 b 543 863 725 821 639 855 l 543 534 l 565 531 b 857 283 731 510 859 438 b 543 8 855 116 717 24 l 543 -130 l 447 -130 l 447 6 b 115 123 325 15 194 60 l 173 208 b 447 108 232 161 340 117 l 447 440 l 422 444 b 142 694 256 465 141 542 b 447 965 144 853 276 949 l 447 1097 m 749 278 b 543 429 750 359 676 408 l 543 109 b 749 278 662 122 748 178 m 251 697 b 447 545 251 617 311 566 l 447 863 b 251 697 331 849 252 789 "},"%":{"ha":1346,"x_min":0,"x_max":0,"o":"m 322 985 b 578 734 468 985 578 877 b 322 481 578 590 468 481 b 67 734 177 481 67 590 b 322 985 67 877 177 985 m 322 894 b 165 734 233 894 165 827 b 322 573 165 640 233 573 b 481 734 413 573 481 640 b 322 894 481 827 413 894 m 420 0 l 312 0 l 925 972 l 1033 972 m 1022 491 b 1278 239 1168 491 1278 382 b 1022 -13 1278 94 1168 -13 b 767 239 877 -13 767 94 b 1022 491 767 382 877 491 m 1022 399 b 865 239 933 399 865 333 b 1022 78 865 145 933 78 b 1181 239 1113 78 1181 145 b 1022 399 1181 333 1113 399 "},"&":{"ha":976,"x_min":0,"x_max":0,"o":"m 801 0 l 653 144 b 354 -13 582 56 492 -13 b 77 230 185 -13 77 79 b 268 516 77 356 169 442 b 126 767 172 610 126 672 b 371 985 126 888 226 985 b 614 772 514 985 614 896 b 425 512 614 660 523 584 l 643 300 l 794 525 l 877 472 l 716 229 l 951 0 m 360 85 b 581 213 456 85 518 132 l 338 448 b 188 233 256 386 188 321 b 360 85 188 145 259 85 m 238 760 b 355 579 238 702 267 666 b 503 767 436 639 503 695 b 371 888 503 838 451 888 b 238 760 290 888 238 835 "},"'":{"ha":497,"x_min":0,"x_max":0,"o":"m 300 1000 l 300 648 l 197 648 l 197 1000 "},"(":{"ha":567,"x_min":0,"x_max":0,"o":"m 511 898 b 212 394 328 823 212 621 b 511 -108 212 168 328 -33 l 475 -204 b 101 394 252 -119 101 116 b 475 993 101 674 252 908 "},")":{"ha":567,"x_min":0,"x_max":0,"o":"m 56 -108 b 356 396 240 -33 356 169 b 56 899 356 622 240 824 l 92 994 b 467 396 315 909 467 674 b 92 -203 467 117 315 -117 "},"*":{"ha":623,"x_min":0,"x_max":0,"o":"m 272 813 l 272 1000 l 351 1000 l 351 813 l 528 872 l 553 795 l 376 738 l 485 587 l 421 540 l 311 691 l 202 540 l 138 587 l 247 738 l 70 795 l 94 872 "},"+":{"ha":833,"x_min":0,"x_max":0,"o":"m 367 67 l 367 320 l 115 320 l 115 415 l 367 415 l 367 670 l 464 670 l 464 415 l 719 415 l 719 320 l 464 320 l 464 67 "},",":{"ha":343,"x_min":0,"x_max":0,"o":"m 251 172 l 178 -180 l 88 -180 l 130 172 "},"-":{"ha":582,"x_min":0,"x_max":0,"o":"m 484 320 l 98 320 l 98 415 l 484 415 "},".":{"ha":363,"x_min":0,"x_max":0,"o":"m 182 161 b 269 74 228 161 269 121 b 182 -13 269 28 228 -13 b 95 74 135 -13 95 28 b 182 161 95 121 135 161 "},"/":{"ha":689,"x_min":0,"x_max":0,"o":"m 108 -139 l -6 -139 l 583 1069 l 698 1069 "},":":{"ha":363,"x_min":0,"x_max":0,"o":"m 182 671 b 269 584 228 671 269 631 b 182 497 269 538 228 497 b 95 584 135 497 95 538 b 182 671 95 631 135 671 m 182 162 b 269 75 228 162 269 122 b 182 -12 269 28 228 -12 b 95 75 135 -12 95 28 b 182 162 95 122 135 162 "},";":{"ha":343,"x_min":0,"x_max":0,"o":"m 178 671 b 265 584 225 671 265 631 b 178 497 265 538 225 497 b 92 584 132 497 92 538 b 178 671 92 631 132 671 m 251 172 l 178 -180 l 88 -180 l 130 172 "},"<":{"ha":833,"x_min":0,"x_max":0,"o":"m 690 58 l 144 317 l 144 419 l 690 677 l 690 567 l 249 368 l 690 169 "},"=":{"ha":833,"x_min":0,"x_max":0,"o":"m 719 192 l 115 192 l 115 286 l 719 286 m 719 449 l 115 449 l 115 543 l 719 543 "},">":{"ha":833,"x_min":0,"x_max":0,"o":"m 144 677 l 690 419 l 690 317 l 144 58 l 144 169 l 585 367 l 144 567 "},"?":{"ha":600,"x_min":0,"x_max":0,"o":"m 146 309 l 146 527 l 190 527 b 443 708 349 527 443 594 b 194 880 443 815 347 880 b 99 875 160 880 126 877 l 90 981 b 200 989 121 985 165 989 b 558 713 420 989 558 880 b 245 431 558 553 444 451 l 240 309 m 193 161 b 279 74 239 161 279 121 b 193 -13 279 28 239 -13 b 106 74 147 -13 106 28 b 193 161 106 121 147 161 "},"@":{"ha":1372,"x_min":0,"x_max":0,"o":"m 948 293 b 1031 149 948 192 976 149 b 1160 371 1105 149 1160 223 b 685 824 1160 639 956 824 b 212 347 415 824 212 623 b 685 -134 212 68 415 -134 b 985 -40 797 -134 899 -99 l 1034 -106 b 685 -217 933 -180 814 -217 b 117 347 358 -217 117 26 b 685 907 117 665 358 907 b 1254 371 1013 907 1254 679 b 1026 67 1254 198 1169 67 b 869 171 939 67 889 110 b 665 70 827 111 760 70 b 398 347 515 70 398 188 b 665 624 398 507 515 624 b 860 531 753 624 818 587 l 860 614 l 948 614 m 676 540 b 490 347 565 540 490 456 b 676 154 490 239 565 154 b 864 347 786 154 864 237 b 676 540 864 458 786 540 "},"A":{"ha":987,"x_min":0,"x_max":0,"o":"m 962 0 l 842 0 l 732 271 l 251 271 l 141 0 l 25 0 l 424 972 l 563 972 m 294 376 l 690 376 l 492 862 "},"B":{"ha":974,"x_min":0,"x_max":0,"o":"m 517 972 b 868 716 721 972 868 901 b 722 501 868 606 809 531 b 889 270 819 469 889 391 b 535 0 889 81 750 0 l 140 0 l 140 972 m 252 441 l 252 105 l 530 105 b 772 274 676 105 772 143 b 530 441 772 403 676 441 m 252 867 l 252 545 l 513 545 b 751 708 647 545 751 577 b 513 867 751 835 647 867 "},"C":{"ha":1063,"x_min":0,"x_max":0,"o":"m 586 986 b 983 785 756 986 906 910 l 890 722 b 586 878 826 819 715 878 b 201 486 368 878 201 720 b 586 94 201 252 368 94 b 890 249 715 94 824 152 l 980 183 b 586 -14 899 61 753 -14 b 84 486 297 -14 84 194 b 586 986 84 778 297 986 "},"D":{"ha":1110,"x_min":0,"x_max":0,"o":"m 506 972 b 1025 486 824 972 1025 783 b 506 0 1025 190 824 0 l 140 0 l 140 972 m 252 867 l 252 106 l 506 106 b 908 486 769 106 908 258 b 506 867 908 715 769 867 "},"E":{"ha":936,"x_min":0,"x_max":0,"o":"m 824 0 l 140 0 l 140 972 l 818 972 l 818 867 l 252 867 l 252 542 l 801 542 l 801 438 l 252 438 l 252 105 l 824 105 "},"F":{"ha":897,"x_min":0,"x_max":0,"o":"m 787 437 l 252 437 l 252 0 l 140 0 l 140 972 l 813 972 l 813 867 l 252 867 l 252 542 l 787 542 "},"G":{"ha":1138,"x_min":0,"x_max":0,"o":"m 586 986 b 963 823 740 986 874 925 l 881 744 b 586 878 812 827 707 878 b 201 486 368 878 201 720 b 581 94 201 252 368 94 b 931 415 787 94 914 216 l 628 415 l 628 519 l 1052 519 b 1053 491 1053 510 1053 500 b 581 -13 1053 208 874 -13 b 84 486 326 -13 84 172 b 586 986 84 778 299 986 "},"H":{"ha":1092,"x_min":0,"x_max":0,"o":"m 252 542 l 840 542 l 840 972 l 952 972 l 952 0 l 840 0 l 840 437 l 252 437 l 252 0 l 140 0 l 140 972 l 252 972 "},"I":{"ha":392,"x_min":0,"x_max":0,"o":"m 252 0 l 140 0 l 140 972 l 252 972 "},"J":{"ha":799,"x_min":0,"x_max":0,"o":"m 665 347 b 328 -13 665 115 520 -13 b 28 124 172 -13 81 59 l 103 200 b 327 94 149 142 222 94 b 554 358 463 94 554 183 l 554 972 l 665 972 "},"K":{"ha":964,"x_min":0,"x_max":0,"o":"m 367 436 l 252 436 l 252 0 l 140 0 l 140 972 l 252 972 l 252 542 l 369 542 l 773 972 l 917 972 l 460 495 l 947 0 l 795 0 "},"L":{"ha":842,"x_min":0,"x_max":0,"o":"m 815 0 l 140 0 l 140 972 l 252 972 l 252 106 l 815 106 "},"M":{"ha":1299,"x_min":0,"x_max":0,"o":"m 1158 0 l 1047 0 l 1047 847 l 708 108 l 590 108 l 252 842 l 252 0 l 140 0 l 140 972 l 310 972 l 649 238 l 988 972 l 1158 972 "},"N":{"ha":1095,"x_min":0,"x_max":0,"o":"m 955 0 l 854 0 l 252 781 l 252 0 l 140 0 l 140 972 l 241 972 l 843 192 l 843 972 l 955 972 "},"O":{"ha":1173,"x_min":0,"x_max":0,"o":"m 586 986 b 1088 486 876 986 1088 778 b 586 -14 1088 194 876 -14 b 84 486 297 -14 84 194 b 586 986 84 778 297 986 m 586 878 b 201 486 368 878 201 720 b 586 94 201 252 368 94 b 972 486 805 94 972 252 b 586 878 972 720 805 878 "},"P":{"ha":922,"x_min":0,"x_max":0,"o":"m 252 391 l 252 0 l 140 0 l 140 972 l 508 972 b 851 681 726 972 851 863 b 508 391 851 499 726 391 m 252 867 l 252 496 l 504 496 b 735 681 654 496 735 558 b 504 867 735 805 654 867 "},"Q":{"ha":1173,"x_min":0,"x_max":0,"o":"m 586 986 b 1088 486 876 986 1088 778 b 980 166 1088 360 1048 250 l 1108 0 l 977 0 l 904 91 b 586 -14 819 24 709 -14 b 84 486 297 -14 84 194 b 586 986 84 778 297 986 m 586 878 b 201 486 368 878 201 720 b 586 94 201 252 368 94 b 835 179 683 94 769 124 l 610 467 l 744 467 l 907 259 b 972 486 948 321 972 398 b 586 878 972 720 805 878 "},"R":{"ha":940,"x_min":0,"x_max":0,"o":"m 522 972 b 861 698 740 972 861 874 b 523 423 861 530 731 423 l 507 423 l 856 0 l 717 0 l 375 423 l 252 423 l 252 0 l 140 0 l 140 972 m 252 867 l 252 524 l 520 524 b 745 698 668 524 745 585 b 520 867 745 810 666 867 "},"S":{"ha":935,"x_min":0,"x_max":0,"o":"m 775 788 b 482 879 697 842 599 879 b 231 703 335 879 231 813 b 455 546 231 613 303 564 l 547 535 b 851 279 708 515 851 447 b 466 -13 851 87 676 -13 b 84 112 325 -13 176 37 l 145 201 b 465 92 213 144 339 92 b 735 269 616 92 735 153 b 499 428 735 364 653 411 l 401 440 b 115 697 235 458 115 535 b 483 985 115 881 279 985 b 832 878 631 985 742 941 "},"T":{"ha":842,"x_min":0,"x_max":0,"o":"m 814 867 l 476 867 l 476 0 l 365 0 l 365 867 l 28 867 l 28 972 l 814 972 "},"U":{"ha":1053,"x_min":0,"x_max":0,"o":"m 927 381 b 526 -13 927 117 749 -13 b 126 381 304 -13 126 117 l 126 972 l 238 972 l 238 389 b 526 94 238 185 360 94 b 815 389 692 94 815 185 l 815 972 l 927 972 "},"V":{"ha":968,"x_min":0,"x_max":0,"o":"m 553 0 l 415 0 l 25 972 l 144 972 l 485 111 l 828 972 l 943 972 "},"W":{"ha":1526,"x_min":0,"x_max":0,"o":"m 1169 0 l 1032 0 l 763 824 l 493 0 l 356 0 l 40 972 l 157 972 l 426 126 l 701 972 l 827 972 l 1101 126 l 1371 972 l 1485 972 "},"X":{"ha":949,"x_min":0,"x_max":0,"o":"m 543 497 l 908 0 l 773 0 l 474 412 l 174 0 l 42 0 l 406 497 l 58 972 l 193 972 l 476 583 l 759 972 l 892 972 "},"Y":{"ha":894,"x_min":0,"x_max":0,"o":"m 503 408 l 503 0 l 392 0 l 392 409 l 8 972 l 141 972 l 449 511 l 756 972 l 886 972 "},"Z":{"ha":913,"x_min":0,"x_max":0,"o":"m 826 886 l 233 106 l 828 106 l 828 0 l 84 0 l 84 86 l 678 867 l 91 867 l 91 972 l 826 972 "},"[":{"ha":522,"x_min":0,"x_max":0,"o":"m 466 -183 l 140 -183 l 140 972 l 466 972 l 466 876 l 247 876 l 247 -87 l 466 -87 "},"\\":{"ha":689,"x_min":0,"x_max":0,"o":"m -9 1069 l 106 1069 l 695 -139 l 581 -139 "},"]":{"ha":522,"x_min":0,"x_max":0,"o":"m 56 972 l 382 972 l 382 -183 l 56 -183 l 56 -87 l 275 -87 l 275 876 l 56 876 "},"^":{"ha":833,"x_min":0,"x_max":0,"o":"m 119 450 l 366 972 l 467 972 l 715 450 l 602 450 l 415 864 l 228 450 "},"_":{"ha":651,"x_min":0,"x_max":0,"o":"m 654 -189 l -3 -189 l -3 -94 l 654 -94 "},"`":{"ha":652,"x_min":0,"x_max":0,"o":"m 363 758 l 188 967 l 319 967 l 465 758 "},"a":{"ha":865,"x_min":0,"x_max":0,"o":"m 744 0 l 640 0 l 640 98 b 400 -13 588 31 508 -13 b 72 329 215 -13 72 131 b 400 671 72 526 215 671 b 640 560 508 671 588 626 l 640 658 l 744 658 m 413 574 b 177 329 272 574 177 465 b 413 84 177 193 273 84 b 647 329 549 84 647 190 b 413 574 647 468 549 574 "},"b":{"ha":865,"x_min":0,"x_max":0,"o":"m 465 671 b 794 329 650 671 794 526 b 465 -13 794 131 650 -13 b 226 97 357 -13 278 31 l 226 0 l 122 0 l 122 1000 l 226 1000 l 226 560 b 465 671 278 627 357 671 m 453 574 b 219 329 315 574 219 468 b 453 84 219 190 315 84 b 688 329 594 84 688 193 b 453 574 688 465 592 574 "},"c":{"ha":711,"x_min":0,"x_max":0,"o":"m 412 671 b 656 567 509 671 597 635 l 589 497 b 409 574 540 545 481 574 b 177 329 277 574 177 471 b 409 84 177 187 277 84 b 591 161 481 84 544 116 l 656 90 b 412 -13 596 23 509 -13 b 72 329 210 -13 72 134 b 412 671 72 524 210 671 "},"d":{"ha":865,"x_min":0,"x_max":0,"o":"m 400 671 b 640 560 508 671 588 626 l 640 1000 l 744 1000 l 744 0 l 640 0 l 640 98 b 400 -13 588 31 508 -13 b 72 329 215 -13 72 131 b 400 671 72 526 215 671 m 413 574 b 177 329 272 574 177 465 b 413 84 177 193 273 84 b 647 329 549 84 647 190 b 413 574 647 468 549 574 "},"e":{"ha":778,"x_min":0,"x_max":0,"o":"m 398 671 b 707 331 576 671 706 531 b 705 292 707 318 706 304 l 178 292 b 410 78 192 151 292 78 b 619 160 492 78 563 109 l 674 90 b 404 -13 592 11 501 -13 b 72 328 210 -13 72 125 b 398 671 72 530 210 671 m 396 578 b 179 376 274 578 196 495 l 601 376 b 396 578 588 499 508 578 "},"f":{"ha":599,"x_min":0,"x_max":0,"o":"m 553 564 l 291 564 l 291 0 l 187 0 l 187 564 l 37 564 l 37 658 l 187 658 l 187 770 b 406 1013 187 910 250 1013 b 585 964 480 1013 539 992 l 548 877 b 413 916 513 898 463 916 b 291 770 328 916 291 862 l 291 658 l 553 658 "},"g":{"ha":858,"x_min":0,"x_max":0,"o":"m 397 671 b 632 559 503 671 582 627 l 632 658 l 736 658 l 736 45 b 388 -288 736 -169 592 -288 b 111 -200 283 -288 178 -256 l 157 -117 b 388 -194 219 -164 299 -194 b 632 41 531 -194 632 -112 l 632 108 b 397 -3 582 40 503 -3 b 72 334 213 -3 72 135 b 397 671 72 533 213 671 m 409 574 b 177 334 269 574 177 467 b 409 94 177 201 269 94 b 641 334 544 94 641 197 b 409 574 641 469 544 574 "},"h":{"ha":834,"x_min":0,"x_max":0,"o":"m 226 566 b 446 671 280 642 366 671 b 720 408 608 671 720 567 l 720 0 l 617 0 l 617 374 b 427 572 617 499 547 572 b 226 371 317 572 226 496 l 226 0 l 122 0 l 122 1000 l 226 1000 "},"i":{"ha":347,"x_min":0,"x_max":0,"o":"m 226 0 l 122 0 l 122 658 l 226 658 m 174 965 b 247 891 215 965 247 933 b 174 818 247 849 215 818 b 101 891 132 818 101 849 b 174 965 101 933 132 965 "},"j":{"ha":350,"x_min":0,"x_max":0,"o":"m 228 -108 b 65 -288 228 -225 164 -288 b -30 -266 31 -288 -6 -279 l -5 -176 b 56 -190 12 -185 33 -190 b 124 -103 98 -190 124 -164 l 124 658 l 228 658 m 176 965 b 249 891 217 965 249 933 b 176 818 249 849 217 818 b 103 891 134 818 103 849 b 176 965 103 933 134 965 "},"k":{"ha":735,"x_min":0,"x_max":0,"o":"m 226 391 l 321 391 l 574 658 l 704 658 l 406 348 l 709 0 l 578 0 l 320 297 l 226 297 l 226 0 l 122 0 l 122 1000 l 226 1000 "},"l":{"ha":347,"x_min":0,"x_max":0,"o":"m 226 0 l 122 0 l 122 1000 l 226 1000 "},"m":{"ha":1329,"x_min":0,"x_max":0,"o":"m 940 671 b 1215 408 1103 671 1215 567 l 1215 0 l 1112 0 l 1112 374 b 922 572 1112 499 1042 572 b 720 371 811 572 720 496 l 720 0 l 617 0 l 617 374 b 427 572 617 499 547 572 b 226 371 317 572 226 496 l 226 0 l 122 0 l 122 658 l 224 658 l 224 564 b 446 671 278 642 365 671 b 692 533 560 671 650 619 b 940 671 745 635 848 671 "},"n":{"ha":834,"x_min":0,"x_max":0,"o":"m 446 671 b 720 408 608 671 720 567 l 720 0 l 617 0 l 617 374 b 427 572 617 499 547 572 b 226 371 317 572 226 496 l 226 0 l 122 0 l 122 658 l 224 658 l 224 564 b 446 671 278 642 365 671 "},"o":{"ha":835,"x_min":0,"x_max":0,"o":"m 417 671 b 764 329 615 671 764 524 b 417 -13 764 134 615 -13 b 72 329 219 -13 72 134 b 417 671 72 524 219 671 m 417 574 b 177 329 281 574 177 471 b 417 84 177 187 281 84 b 658 329 553 84 658 187 b 417 574 658 471 553 574 "},"p":{"ha":865,"x_min":0,"x_max":0,"o":"m 465 671 b 794 329 650 671 794 526 b 465 -13 794 131 650 -13 b 226 97 357 -13 278 31 l 226 -278 l 122 -278 l 122 658 l 226 658 l 226 560 b 465 671 278 627 357 671 m 453 574 b 219 329 315 574 219 468 b 453 84 219 190 315 84 b 688 329 594 84 688 193 b 453 574 688 465 592 574 "},"q":{"ha":865,"x_min":0,"x_max":0,"o":"m 400 671 b 640 560 508 671 588 626 l 640 658 l 744 658 l 744 -278 l 640 -278 l 640 98 b 400 -13 588 31 508 -13 b 72 329 215 -13 72 131 b 400 671 72 526 215 671 m 413 574 b 177 329 272 574 177 465 b 413 84 177 193 273 84 b 647 329 549 84 647 190 b 413 574 647 468 549 574 "},"r":{"ha":576,"x_min":0,"x_max":0,"o":"m 419 671 b 540 649 467 671 506 665 l 515 547 b 401 573 483 564 440 573 b 225 368 299 573 225 492 l 225 0 l 122 0 l 122 658 l 224 658 l 224 565 b 419 671 269 633 339 671 "},"s":{"ha":685,"x_min":0,"x_max":0,"o":"m 563 518 b 348 580 521 547 437 580 b 192 476 254 580 192 540 b 326 384 192 422 240 394 l 404 374 b 625 191 544 356 625 299 b 335 -12 625 66 513 -12 b 61 72 251 -12 144 8 l 109 149 b 337 78 159 110 226 78 b 518 184 448 78 518 115 b 381 280 518 237 474 269 l 302 289 b 85 471 154 307 85 373 b 347 670 85 595 190 670 b 608 599 451 670 545 641 "},"t":{"ha":629,"x_min":0,"x_max":0,"o":"m 568 564 l 284 564 l 284 232 b 415 84 284 129 338 84 b 553 131 465 84 515 103 l 601 52 b 406 -13 552 15 487 -13 b 181 230 265 -13 181 65 l 181 564 l 37 564 l 37 658 l 181 658 l 181 867 l 284 867 l 284 658 l 568 658 "},"u":{"ha":825,"x_min":0,"x_max":0,"o":"m 711 274 b 413 -13 711 79 571 -13 b 114 274 253 -13 114 79 l 114 658 l 217 658 l 217 284 b 413 84 217 148 300 84 b 607 284 525 84 607 148 l 607 658 l 711 658 "},"v":{"ha":724,"x_min":0,"x_max":0,"o":"m 423 -1 l 301 -1 l 21 658 l 133 658 l 363 104 l 593 658 l 703 658 "},"w":{"ha":1185,"x_min":0,"x_max":0,"o":"m 848 108 l 1046 658 l 1153 658 l 910 0 l 788 0 l 591 547 l 395 0 l 274 0 l 31 658 l 142 658 l 338 108 l 534 658 l 651 658 "},"x":{"ha":710,"x_min":0,"x_max":0,"o":"m 422 337 l 686 0 l 559 0 l 351 260 l 146 0 l 24 0 l 288 336 l 31 658 l 158 658 l 357 408 l 556 658 l 678 658 "},"y":{"ha":732,"x_min":0,"x_max":0,"o":"m 186 -281 l 72 -281 l 317 142 l 15 658 l 131 658 l 376 245 l 608 658 l 722 658 "},"z":{"ha":733,"x_min":0,"x_max":0,"o":"m 642 582 l 222 94 l 648 94 l 648 0 l 85 0 l 85 75 l 508 564 l 97 564 l 97 658 l 642 658 "},"{":{"ha":593,"x_min":0,"x_max":0,"o":"m 496 876 b 344 712 402 876 338 822 l 349 619 b 208 395 356 502 303 426 b 349 172 303 364 356 288 l 344 78 b 496 -86 338 -32 402 -86 l 537 -86 l 537 -182 l 496 -182 b 238 90 325 -182 228 -83 l 242 183 b 84 347 249 294 184 347 l 84 443 b 242 608 184 443 249 497 l 238 701 b 496 972 228 874 325 972 l 537 972 l 537 876 "},"|":{"ha":497,"x_min":0,"x_max":0,"o":"m 300 -184 l 197 -184 l 197 972 l 300 972 "},"}":{"ha":593,"x_min":0,"x_max":0,"o":"m 97 -86 b 249 78 191 -86 256 -32 l 244 172 b 385 395 238 288 290 364 b 244 619 290 426 238 502 l 249 712 b 97 876 256 822 191 876 l 56 876 l 56 972 l 97 972 b 356 701 268 972 365 874 l 351 608 b 509 443 344 497 409 443 l 509 347 b 351 183 409 347 344 294 l 356 90 b 97 -182 365 -83 268 -182 l 56 -182 l 56 -86 "},"~":{"ha":833,"x_min":0,"x_max":0,"o":"m 728 374 b 544 292 677 319 624 292 b 281 352 415 292 386 352 b 162 294 236 352 202 333 l 106 360 b 288 442 156 415 209 442 b 551 382 418 442 447 382 b 671 440 597 382 631 401 "}," ":{"ha":371,"x_min":0,"x_max":0,"o":""},"¡":{"ha":364,"x_min":0,"x_max":0,"o":"m 135 349 l 229 349 l 246 -315 l 119 -315 m 182 496 b 95 583 135 496 95 536 b 182 670 95 629 135 670 b 269 583 228 670 269 629 b 182 496 269 536 228 496 "},"¢":{"ha":972,"x_min":0,"x_max":0,"o":"m 567 972 l 567 826 b 790 724 656 819 735 784 l 728 657 b 567 731 683 699 630 725 l 567 240 b 731 316 631 248 688 276 l 790 248 b 567 146 733 188 655 152 l 567 0 l 472 0 l 472 150 b 184 486 298 178 184 313 b 472 822 184 659 298 794 l 472 972 m 286 486 b 472 247 286 365 363 273 l 472 726 b 286 486 363 699 286 607 "},"£":{"ha":972,"x_min":0,"x_max":0,"o":"m 844 0 l 128 0 l 128 102 l 252 102 l 252 439 l 128 439 l 128 533 l 252 533 l 252 628 b 578 985 252 866 400 985 b 833 872 681 985 772 947 l 755 803 b 578 883 713 856 651 883 b 359 621 453 883 359 801 l 359 533 l 726 533 l 726 439 l 359 439 l 359 102 l 844 102 "},"¤":{"ha":972,"x_min":0,"x_max":0,"o":"m 203 831 l 304 730 b 488 790 355 767 418 790 b 670 730 556 790 619 768 l 769 831 l 831 769 l 731 669 b 792 486 769 618 792 555 b 731 302 792 417 769 353 l 831 203 l 770 142 l 670 242 b 488 181 619 203 556 181 b 303 242 418 181 354 204 l 203 142 l 143 203 l 243 303 b 182 486 205 353 182 417 b 242 669 182 555 204 618 l 142 769 m 488 266 b 706 486 609 266 706 363 b 488 706 706 608 609 706 b 268 486 365 706 268 608 b 488 266 268 363 365 266 "},"¥":{"ha":972,"x_min":0,"x_max":0,"o":"m 819 220 l 543 220 l 543 0 l 436 0 l 436 220 l 160 220 l 160 306 l 436 306 l 436 442 l 160 442 l 160 528 l 390 528 l 74 972 l 202 972 l 490 560 l 773 972 l 899 972 l 588 528 l 819 528 l 819 442 l 543 442 l 543 306 l 819 306 "},"¦":{"ha":497,"x_min":0,"x_max":0,"o":"m 300 490 l 197 490 l 197 972 l 300 972 m 300 -184 l 197 -184 l 197 298 l 300 298 "},"§":{"ha":909,"x_min":0,"x_max":0,"o":"m 734 806 b 472 888 666 851 574 888 b 244 745 340 888 244 834 b 453 615 244 668 319 631 l 534 606 b 808 390 680 590 808 528 b 698 211 808 310 765 251 b 794 49 756 176 794 124 b 447 -202 794 -119 634 -202 b 101 -93 313 -202 183 -157 l 156 -9 b 447 -105 219 -58 325 -105 b 688 40 582 -105 688 -57 b 473 169 688 118 601 156 l 385 179 b 124 397 238 197 124 260 b 231 573 124 474 165 533 b 138 738 174 608 138 662 b 471 985 138 894 285 985 b 785 890 601 985 705 944 m 401 520 b 326 533 375 523 350 528 b 229 404 266 509 229 464 b 439 274 229 327 305 290 l 521 265 b 603 250 549 262 577 257 b 703 381 664 274 703 318 b 488 510 703 458 615 496 l 401 520 "},"¨":{"ha":662,"x_min":0,"x_max":0,"o":"m 190 933 b 263 858 231 933 263 900 b 190 785 263 817 231 785 b 116 858 148 785 116 817 b 190 933 116 900 148 933 m 472 933 b 545 858 513 933 545 900 b 472 785 545 817 513 785 b 399 858 430 785 399 817 b 472 933 399 900 430 933 "},"©":{"ha":1322,"x_min":0,"x_max":0,"o":"m 660 1047 b 1220 492 969 1047 1220 798 b 660 -65 1220 185 969 -65 b 101 492 351 -65 101 185 b 660 1047 101 798 351 1047 m 660 956 b 195 492 403 956 195 749 b 660 26 195 234 403 26 b 1126 492 917 26 1126 234 b 660 956 1126 749 917 956 m 835 614 b 674 699 800 667 742 699 b 477 492 563 699 477 613 b 674 284 477 362 567 284 b 837 369 742 284 801 317 l 910 312 b 675 194 859 239 776 194 b 379 492 506 194 379 317 b 675 790 379 666 506 790 b 913 666 775 790 863 743 "},"ª":{"ha":545,"x_min":0,"x_max":0,"o":"m 259 897 b 463 703 383 897 463 834 l 463 428 l 379 428 l 379 490 b 217 419 343 450 289 419 b 55 561 117 419 55 478 b 244 698 55 644 124 698 l 377 698 b 249 821 376 782 330 821 b 113 772 192 821 146 798 l 78 838 b 259 897 126 874 187 897 m 237 490 b 378 559 293 490 344 519 l 378 638 l 257 638 b 144 563 176 638 144 603 b 237 490 144 524 176 490 "},"«":{"ha":709,"x_min":0,"x_max":0,"o":"m 607 110 l 496 110 l 363 367 l 496 624 l 607 624 l 474 367 m 332 110 l 221 110 l 88 367 l 221 624 l 332 624 l 199 367 "},"¬":{"ha":833,"x_min":0,"x_max":0,"o":"m 719 102 l 623 102 l 623 320 l 115 320 l 115 415 l 719 415 "},"­":{"ha":582,"x_min":0,"x_max":0,"o":"m 484 320 l 98 320 l 98 415 l 484 415 "},"®":{"ha":646,"x_min":0,"x_max":0,"o":"m 324 997 b 612 713 483 997 612 869 b 324 430 612 558 483 430 b 33 713 160 430 33 558 b 324 997 33 869 160 997 m 324 492 b 542 713 445 492 542 591 b 324 933 542 836 445 933 b 102 713 199 933 102 836 b 324 492 102 591 199 492 m 340 846 b 446 762 408 846 446 813 b 362 682 446 719 415 688 l 448 583 l 381 583 l 301 681 l 275 681 l 275 583 l 219 583 l 219 846 l 340 846 m 275 797 l 275 726 l 340 726 b 388 762 369 726 388 738 b 340 797 388 785 369 797 "},"¯":{"ha":652,"x_min":0,"x_max":0,"o":"m 119 900 l 534 900 l 534 816 l 119 816 "},"°":{"ha":552,"x_min":0,"x_max":0,"o":"m 276 506 b 33 746 142 506 33 613 b 276 985 33 878 142 985 b 518 746 409 985 518 878 b 276 506 518 613 409 506 m 276 590 b 428 746 358 590 428 659 b 276 901 428 832 358 901 b 122 746 192 901 122 832 b 276 590 122 659 192 590 "},"±":{"ha":833,"x_min":0,"x_max":0,"o":"m 367 203 l 367 414 l 115 414 l 115 508 l 367 508 l 367 749 l 464 749 l 464 508 l 719 508 l 719 414 l 464 414 l 464 203 m 719 31 l 115 31 l 115 126 l 719 126 "},"²":{"ha":473,"x_min":0,"x_max":0,"o":"m 45 887 b 227 979 75 928 129 979 b 408 810 340 979 408 908 b 328 649 408 744 376 697 l 188 508 l 424 508 l 424 428 l 65 428 l 65 496 l 267 698 b 319 803 299 729 319 763 b 219 897 319 857 281 897 b 101 833 163 897 128 867 "},"³":{"ha":476,"x_min":0,"x_max":0,"o":"m 214 979 b 404 829 326 979 404 919 b 315 702 404 767 369 724 b 416 576 376 681 416 636 b 218 421 416 471 319 421 b 35 494 139 421 76 448 l 85 551 b 214 498 117 517 163 498 b 327 583 275 498 327 525 b 208 665 327 635 273 665 l 139 665 l 139 741 l 208 741 b 315 822 269 741 315 769 b 210 902 315 872 272 902 b 89 844 156 902 115 876 l 38 899 b 214 979 74 946 131 979 "},"´":{"ha":652,"x_min":0,"x_max":0,"o":"m 188 758 l 333 967 l 465 967 l 290 758 "},"µ":{"ha":834,"x_min":0,"x_max":0,"o":"m 114 -278 l 114 658 l 217 658 l 217 284 b 407 85 217 159 287 85 b 608 287 517 85 608 162 l 608 658 l 713 658 l 713 0 l 610 0 l 610 94 b 388 -13 556 15 469 -13 b 217 51 321 -13 256 10 l 217 -278 "},"¶":{"ha":814,"x_min":0,"x_max":0,"o":"m 380 490 b 99 731 201 490 99 581 b 380 972 99 880 201 972 l 463 972 l 463 0 l 380 0 m 535 972 l 617 972 l 617 0 l 535 0 "},"·":{"ha":497,"x_min":0,"x_max":0,"o":"m 249 454 b 335 368 295 454 335 415 b 249 281 335 321 295 281 b 162 368 203 281 162 321 b 249 454 162 415 203 454 "},"¸":{"ha":686,"x_min":0,"x_max":0,"o":"m 361 -224 l 253 -224 l 328 4 l 433 3 "},"¹":{"ha":382,"x_min":0,"x_max":0,"o":"m 272 428 l 185 428 l 185 859 l 35 799 l 35 883 l 272 978 "},"º":{"ha":594,"x_min":0,"x_max":0,"o":"m 297 897 b 540 658 436 897 540 795 b 297 419 540 522 436 419 b 55 658 158 419 55 522 b 297 897 55 795 158 897 m 297 817 b 142 658 209 817 142 751 b 297 499 142 566 209 499 b 453 658 385 499 453 566 b 297 817 453 751 385 817 "},"»":{"ha":709,"x_min":0,"x_max":0,"o":"m 102 624 l 213 624 l 347 367 l 213 110 l 102 110 l 235 367 m 377 624 l 488 624 l 622 367 l 488 110 l 377 110 l 510 367 "},"¼":{"ha":1129,"x_min":0,"x_max":0,"o":"m 295 0 l 192 0 l 805 972 l 908 972 m 1017 184 l 1101 184 l 1101 106 l 1017 106 l 1017 0 l 931 0 l 931 106 l 678 106 l 678 167 l 869 543 l 965 543 l 779 184 l 931 184 l 931 335 l 1017 335 m 272 428 l 185 428 l 185 859 l 35 799 l 35 883 l 272 978 "},"½":{"ha":1174,"x_min":0,"x_max":0,"o":"m 295 0 l 192 0 l 805 972 l 908 972 m 747 458 b 928 551 776 499 831 551 b 1109 381 1042 551 1109 480 b 1029 221 1109 315 1077 269 l 890 80 l 1126 80 l 1126 0 l 767 0 l 767 67 l 969 269 b 1020 374 1000 301 1020 334 b 921 469 1020 428 983 469 b 802 405 864 469 829 438 m 272 428 l 185 428 l 185 859 l 35 799 l 35 883 l 272 978 "},"¾":{"ha":1206,"x_min":0,"x_max":0,"o":"m 372 0 l 269 0 l 882 972 l 985 972 m 1094 184 l 1178 184 l 1178 106 l 1094 106 l 1094 0 l 1008 0 l 1008 106 l 754 106 l 754 167 l 946 543 l 1041 543 l 856 184 l 1008 184 l 1008 335 l 1094 335 m 214 979 b 404 829 326 979 404 919 b 315 702 404 767 369 724 b 416 576 376 681 416 636 b 218 421 416 471 319 421 b 35 494 139 421 76 448 l 85 551 b 214 498 117 517 163 498 b 327 583 275 498 327 525 b 208 665 327 635 273 665 l 139 665 l 139 741 l 208 741 b 315 822 269 741 315 769 b 210 902 315 872 272 902 b 89 844 156 902 115 876 l 38 899 b 214 979 74 946 131 979 "},"¿":{"ha":600,"x_min":0,"x_max":0,"o":"m 454 349 l 454 131 l 410 131 b 157 -51 251 131 157 63 b 406 -222 157 -158 253 -222 b 501 -217 440 -222 474 -219 l 510 -324 b 400 -331 479 -328 435 -331 b 42 -56 180 -331 42 -222 b 354 226 42 105 155 206 l 360 349 m 407 497 b 321 583 361 497 321 537 b 407 671 321 630 361 671 b 494 583 453 671 494 630 b 407 497 494 537 453 497 "},"À":{"ha":987,"x_min":0,"x_max":0,"o":"m 962 0 l 842 0 l 732 271 l 251 271 l 141 0 l 25 0 l 424 972 l 563 972 m 294 376 l 690 376 l 492 862 m 308 1255 l 439 1255 l 585 1047 l 482 1047 "},"Á":{"ha":987,"x_min":0,"x_max":0,"o":"m 962 0 l 842 0 l 732 271 l 251 271 l 141 0 l 25 0 l 424 972 l 563 972 m 294 376 l 690 376 l 492 862 m 396 1047 l 541 1255 l 673 1255 l 499 1047 "},"Â":{"ha":987,"x_min":0,"x_max":0,"o":"m 962 0 l 842 0 l 732 271 l 251 271 l 141 0 l 25 0 l 424 972 l 563 972 m 294 376 l 690 376 l 492 862 m 615 1047 l 494 1178 l 372 1047 l 261 1047 l 424 1247 l 563 1247 l 726 1047 "},"Ã":{"ha":987,"x_min":0,"x_max":0,"o":"m 962 0 l 842 0 l 732 271 l 251 271 l 141 0 l 25 0 l 424 972 l 563 972 m 294 376 l 690 376 l 492 862 m 249 1145 b 401 1222 291 1197 335 1222 b 586 1167 495 1222 527 1167 b 676 1214 621 1167 647 1183 l 738 1155 b 586 1078 697 1103 651 1078 b 401 1133 493 1078 461 1133 b 310 1086 367 1133 340 1117 "},"Ä":{"ha":987,"x_min":0,"x_max":0,"o":"m 962 0 l 842 0 l 732 271 l 251 271 l 141 0 l 25 0 l 424 972 l 563 972 m 294 376 l 690 376 l 492 862 m 353 1221 b 426 1147 394 1221 426 1188 b 353 1074 426 1105 394 1074 b 279 1147 311 1074 279 1105 b 353 1221 279 1188 311 1221 m 635 1221 b 708 1147 676 1221 708 1188 b 635 1074 708 1105 676 1074 b 562 1147 593 1074 562 1105 b 635 1221 562 1188 593 1221 "},"Å":{"ha":987,"x_min":0,"x_max":0,"o":"m 962 0 l 842 0 l 732 271 l 251 271 l 141 0 l 25 0 l 424 972 l 563 972 m 294 376 l 690 376 l 492 862 m 494 1033 b 336 1189 408 1033 336 1103 b 494 1344 336 1274 408 1344 b 652 1189 581 1344 652 1274 b 494 1033 652 1103 581 1033 m 494 1099 b 583 1189 542 1099 583 1138 b 494 1278 583 1239 542 1278 b 406 1189 445 1278 406 1239 b 494 1099 406 1138 445 1099 "},"Æ":{"ha":1585,"x_min":0,"x_max":0,"o":"m 1474 0 l 790 0 l 790 253 l 347 253 l 155 0 l 20 0 l 759 972 l 1467 972 l 1467 867 l 901 867 l 901 542 l 1450 542 l 1450 438 l 901 438 l 901 105 l 1474 105 m 790 359 l 790 838 l 426 359 "},"Ç":{"ha":1063,"x_min":0,"x_max":0,"o":"m 586 986 b 983 785 756 986 906 910 l 890 722 b 586 878 826 819 715 878 b 201 486 368 878 201 720 b 586 94 201 252 368 94 b 890 249 715 94 824 152 l 980 183 b 642 -11 908 75 786 3 l 576 -224 l 463 -224 l 534 -11 b 84 486 272 12 84 212 b 586 986 84 778 297 986 "},"È":{"ha":936,"x_min":0,"x_max":0,"o":"m 824 0 l 140 0 l 140 972 l 818 972 l 818 867 l 252 867 l 252 542 l 801 542 l 801 438 l 252 438 l 252 105 l 824 105 m 290 1255 l 421 1255 l 567 1047 l 464 1047 "},"É":{"ha":936,"x_min":0,"x_max":0,"o":"m 824 0 l 140 0 l 140 972 l 818 972 l 818 867 l 252 867 l 252 542 l 801 542 l 801 438 l 252 438 l 252 105 l 824 105 m 378 1047 l 523 1255 l 655 1255 l 481 1047 "},"Ê":{"ha":936,"x_min":0,"x_max":0,"o":"m 824 0 l 140 0 l 140 972 l 818 972 l 818 867 l 252 867 l 252 542 l 801 542 l 801 438 l 252 438 l 252 105 l 824 105 m 597 1047 l 476 1178 l 354 1047 l 243 1047 l 406 1247 l 545 1247 l 708 1047 "},"Ë":{"ha":936,"x_min":0,"x_max":0,"o":"m 824 0 l 140 0 l 140 972 l 818 972 l 818 867 l 252 867 l 252 542 l 801 542 l 801 438 l 252 438 l 252 105 l 824 105 m 335 1221 b 408 1147 376 1221 408 1188 b 335 1074 408 1105 376 1074 b 261 1147 293 1074 261 1105 b 335 1221 261 1188 293 1221 m 617 1221 b 690 1147 658 1221 690 1188 b 617 1074 690 1105 658 1074 b 544 1147 575 1074 544 1105 b 617 1221 544 1188 575 1221 "},"Ì":{"ha":392,"x_min":0,"x_max":0,"o":"m 252 0 l 140 0 l 140 972 l 252 972 m 10 1255 l 141 1255 l 287 1047 l 184 1047 "},"Í":{"ha":392,"x_min":0,"x_max":0,"o":"m 252 0 l 140 0 l 140 972 l 252 972 m 98 1047 l 243 1255 l 375 1255 l 201 1047 "},"Î":{"ha":392,"x_min":0,"x_max":0,"o":"m 252 0 l 140 0 l 140 972 l 252 972 m 317 1047 l 196 1178 l 74 1047 l -37 1047 l 126 1247 l 265 1247 l 428 1047 "},"Ï":{"ha":392,"x_min":0,"x_max":0,"o":"m 252 0 l 140 0 l 140 972 l 252 972 m 55 1221 b 128 1147 96 1221 128 1188 b 55 1074 128 1105 96 1074 b -19 1147 13 1074 -19 1105 b 55 1221 -19 1188 13 1221 m 337 1221 b 410 1147 378 1221 410 1188 b 337 1074 410 1105 378 1074 b 264 1147 295 1074 264 1105 b 337 1221 264 1188 295 1221 "},"Ð":{"ha":1215,"x_min":0,"x_max":0,"o":"m 611 972 b 1130 486 928 972 1130 783 b 611 0 1130 190 928 0 l 245 0 l 245 437 l 84 437 l 84 542 l 245 542 l 245 972 m 637 437 l 357 437 l 357 106 l 611 106 b 1013 486 874 106 1013 258 b 611 867 1013 715 874 867 l 357 867 l 357 542 l 637 542 "},"Ñ":{"ha":1095,"x_min":0,"x_max":0,"o":"m 955 0 l 854 0 l 252 781 l 252 0 l 140 0 l 140 972 l 241 972 l 843 192 l 843 972 l 955 972 m 303 1145 b 455 1222 344 1197 389 1222 b 640 1167 549 1222 581 1167 b 730 1214 674 1167 700 1183 l 792 1155 b 640 1078 750 1103 705 1078 b 455 1133 547 1078 515 1133 b 364 1086 420 1133 394 1117 "},"Ò":{"ha":1173,"x_min":0,"x_max":0,"o":"m 586 986 b 1088 486 876 986 1088 778 b 586 -14 1088 194 876 -14 b 84 486 297 -14 84 194 b 586 986 84 778 297 986 m 586 878 b 201 486 368 878 201 720 b 586 94 201 252 368 94 b 972 486 805 94 972 252 b 586 878 972 720 805 878 m 400 1255 l 531 1255 l 677 1047 l 574 1047 "},"Ó":{"ha":1173,"x_min":0,"x_max":0,"o":"m 586 986 b 1088 486 876 986 1088 778 b 586 -14 1088 194 876 -14 b 84 486 297 -14 84 194 b 586 986 84 778 297 986 m 586 878 b 201 486 368 878 201 720 b 586 94 201 252 368 94 b 972 486 805 94 972 252 b 586 878 972 720 805 878 m 488 1047 l 633 1255 l 765 1255 l 591 1047 "},"Ô":{"ha":1173,"x_min":0,"x_max":0,"o":"m 586 986 b 1088 486 876 986 1088 778 b 586 -14 1088 194 876 -14 b 84 486 297 -14 84 194 b 586 986 84 778 297 986 m 586 878 b 201 486 368 878 201 720 b 586 94 201 252 368 94 b 972 486 805 94 972 252 b 586 878 972 720 805 878 m 707 1047 l 586 1178 l 465 1047 l 353 1047 l 517 1247 l 656 1247 l 818 1047 "},"Õ":{"ha":1173,"x_min":0,"x_max":0,"o":"m 586 986 b 1088 486 876 986 1088 778 b 586 -14 1088 194 876 -14 b 84 486 297 -14 84 194 b 586 986 84 778 297 986 m 586 878 b 201 486 368 878 201 720 b 586 94 201 252 368 94 b 972 486 805 94 972 252 b 586 878 972 720 805 878 m 342 1145 b 494 1222 383 1197 428 1222 b 678 1167 588 1222 619 1167 b 769 1214 713 1167 739 1183 l 831 1155 b 678 1078 789 1103 744 1078 b 494 1133 585 1078 553 1133 b 403 1086 459 1133 433 1117 "},"Ö":{"ha":1173,"x_min":0,"x_max":0,"o":"m 586 986 b 1088 486 876 986 1088 778 b 586 -14 1088 194 876 -14 b 84 486 297 -14 84 194 b 586 986 84 778 297 986 m 586 878 b 201 486 368 878 201 720 b 586 94 201 252 368 94 b 972 486 805 94 972 252 b 586 878 972 720 805 878 m 445 1221 b 519 1147 486 1221 519 1188 b 445 1074 519 1105 486 1074 b 372 1147 403 1074 372 1105 b 445 1221 372 1188 403 1221 m 727 1221 b 801 1147 768 1221 801 1188 b 727 1074 801 1105 768 1074 b 654 1147 685 1074 654 1105 b 727 1221 654 1188 685 1221 "},"×":{"ha":833,"x_min":0,"x_max":0,"o":"m 145 163 l 348 366 l 144 570 l 213 639 l 417 435 l 622 640 l 688 573 l 483 368 l 689 163 l 620 94 l 415 299 l 213 97 "},"Ø":{"ha":1173,"x_min":0,"x_max":0,"o":"m 586 986 b 906 880 710 986 821 947 l 1012 985 l 1085 912 l 980 806 b 1088 486 1048 722 1088 612 b 586 -14 1088 194 876 -14 b 266 92 461 -14 351 25 l 161 -12 l 87 60 l 192 165 b 84 486 124 250 84 360 b 586 986 84 778 297 986 m 972 486 b 899 725 972 580 944 661 l 346 172 b 586 94 410 122 494 94 b 972 486 805 94 972 252 m 586 878 b 201 486 368 878 201 720 b 274 247 201 392 228 311 l 826 800 b 586 878 761 850 678 878 "},"Ù":{"ha":1053,"x_min":0,"x_max":0,"o":"m 927 381 b 526 -13 927 117 749 -13 b 126 381 304 -13 126 117 l 126 972 l 238 972 l 238 389 b 526 94 238 185 360 94 b 815 389 692 94 815 185 l 815 972 l 927 972 m 340 1255 l 472 1255 l 617 1047 l 515 1047 "},"Ú":{"ha":1053,"x_min":0,"x_max":0,"o":"m 927 381 b 526 -13 927 117 749 -13 b 126 381 304 -13 126 117 l 126 972 l 238 972 l 238 389 b 526 94 238 185 360 94 b 815 389 692 94 815 185 l 815 972 l 927 972 m 428 1047 l 574 1255 l 706 1255 l 531 1047 "},"Û":{"ha":1053,"x_min":0,"x_max":0,"o":"m 927 381 b 526 -13 927 117 749 -13 b 126 381 304 -13 126 117 l 126 972 l 238 972 l 238 389 b 526 94 238 185 360 94 b 815 389 692 94 815 185 l 815 972 l 927 972 m 647 1047 l 526 1178 l 405 1047 l 294 1047 l 457 1247 l 596 1247 l 758 1047 "},"Ü":{"ha":1053,"x_min":0,"x_max":0,"o":"m 927 381 b 526 -13 927 117 749 -13 b 126 381 304 -13 126 117 l 126 972 l 238 972 l 238 389 b 526 94 238 185 360 94 b 815 389 692 94 815 185 l 815 972 l 927 972 m 385 1221 b 459 1147 426 1221 459 1188 b 385 1074 459 1105 426 1074 b 312 1147 344 1074 312 1105 b 385 1221 312 1188 344 1221 m 667 1221 b 741 1147 708 1221 741 1188 b 667 1074 741 1105 708 1074 b 594 1147 626 1074 594 1105 b 667 1221 594 1188 626 1221 "},"Ý":{"ha":894,"x_min":0,"x_max":0,"o":"m 503 408 l 503 0 l 392 0 l 392 409 l 8 972 l 141 972 l 449 511 l 756 972 l 886 972 m 351 1047 l 496 1255 l 628 1255 l 453 1047 "},"Þ":{"ha":922,"x_min":0,"x_max":0,"o":"m 252 788 l 508 788 b 851 497 726 788 851 678 b 508 206 851 315 726 206 l 252 206 l 252 0 l 140 0 l 140 972 l 252 972 m 252 682 l 252 311 l 504 311 b 735 497 654 311 735 373 b 504 682 735 620 654 682 "},"ß":{"ha":851,"x_min":0,"x_max":0,"o":"m 115 709 b 435 1013 115 878 221 1013 b 751 747 610 1013 751 907 b 601 511 751 626 684 545 b 779 270 699 481 779 391 b 486 -13 779 93 647 -13 b 322 16 414 -13 365 -2 l 347 110 b 470 83 383 94 422 83 b 673 274 592 83 673 149 b 436 458 673 399 577 458 l 397 458 l 397 552 l 419 552 b 644 731 536 552 644 593 b 433 916 644 854 549 916 b 219 703 301 916 219 833 l 219 0 l 115 0 "},"à":{"ha":865,"x_min":0,"x_max":0,"o":"m 744 0 l 640 0 l 640 98 b 400 -13 588 31 508 -13 b 72 329 215 -13 72 131 b 400 671 72 526 215 671 b 640 560 508 671 588 626 l 640 658 l 744 658 m 413 574 b 177 329 272 574 177 465 b 413 84 177 193 273 84 b 647 329 549 84 647 190 b 413 574 647 468 549 574 m 229 967 l 360 967 l 506 758 l 403 758 "},"á":{"ha":865,"x_min":0,"x_max":0,"o":"m 744 0 l 640 0 l 640 98 b 400 -13 588 31 508 -13 b 72 329 215 -13 72 131 b 400 671 72 526 215 671 b 640 560 508 671 588 626 l 640 658 l 744 658 m 413 574 b 177 329 272 574 177 465 b 413 84 177 193 273 84 b 647 329 549 84 647 190 b 413 574 647 468 549 574 m 334 758 l 479 967 l 611 967 l 437 758 "},"â":{"ha":865,"x_min":0,"x_max":0,"o":"m 744 0 l 640 0 l 640 98 b 400 -13 588 31 508 -13 b 72 329 215 -13 72 131 b 400 671 72 526 215 671 b 640 560 508 671 588 626 l 640 658 l 744 658 m 413 574 b 177 329 272 574 177 465 b 413 84 177 193 273 84 b 647 329 549 84 647 190 b 413 574 647 468 549 574 m 545 759 l 424 890 l 303 759 l 192 759 l 355 959 l 494 959 l 656 759 "},"ã":{"ha":865,"x_min":0,"x_max":0,"o":"m 744 0 l 640 0 l 640 98 b 400 -13 588 31 508 -13 b 72 329 215 -13 72 131 b 400 671 72 526 215 671 b 640 560 508 671 588 626 l 640 658 l 744 658 m 413 574 b 177 329 272 574 177 465 b 413 84 177 193 273 84 b 647 329 549 84 647 190 b 413 574 647 468 549 574 m 185 857 b 338 934 227 908 272 934 b 522 879 431 934 463 879 b 613 926 557 879 583 894 l 674 867 b 522 790 633 815 588 790 b 338 845 429 790 397 845 b 247 798 303 845 276 829 "},"ä":{"ha":865,"x_min":0,"x_max":0,"o":"m 744 0 l 640 0 l 640 98 b 400 -13 588 31 508 -13 b 72 329 215 -13 72 131 b 400 671 72 526 215 671 b 640 560 508 671 588 626 l 640 658 l 744 658 m 413 574 b 177 329 272 574 177 465 b 413 84 177 193 273 84 b 647 329 549 84 647 190 b 413 574 647 468 549 574 m 283 933 b 357 858 324 933 357 900 b 283 785 357 817 324 785 b 210 858 242 785 210 817 b 283 933 210 900 242 933 m 565 933 b 639 858 606 933 639 900 b 565 785 639 817 606 785 b 492 858 524 785 492 817 b 565 933 492 900 524 933 "},"å":{"ha":865,"x_min":0,"x_max":0,"o":"m 744 0 l 640 0 l 640 98 b 400 -13 588 31 508 -13 b 72 329 215 -13 72 131 b 400 671 72 526 215 671 b 640 560 508 671 588 626 l 640 658 l 744 658 m 413 574 b 177 329 272 574 177 465 b 413 84 177 193 273 84 b 647 329 549 84 647 190 b 413 574 647 468 549 574 m 424 744 b 266 901 338 744 266 815 b 424 1056 266 986 338 1056 b 582 901 510 1056 582 986 b 424 744 582 815 510 744 m 424 810 b 513 901 472 810 513 850 b 424 990 513 951 472 990 b 335 901 375 990 335 951 b 424 810 335 850 375 810 "},"æ":{"ha":1250,"x_min":0,"x_max":0,"o":"m 869 670 b 1178 331 1048 670 1176 531 b 1176 292 1178 317 1177 304 l 649 292 b 882 78 664 151 763 78 b 1090 160 963 78 1035 110 l 1145 90 b 876 -13 1064 11 972 -13 b 606 116 760 -13 665 35 b 326 -13 547 43 453 -13 b 72 185 167 -13 72 69 b 342 378 72 298 167 378 l 544 378 l 544 383 b 348 577 544 515 473 577 b 158 511 268 577 205 546 l 109 588 b 361 671 183 644 268 671 b 611 533 480 671 569 631 b 869 670 664 617 760 670 m 342 78 b 566 192 424 78 511 121 b 544 292 554 223 547 256 l 353 292 b 182 185 228 292 182 244 b 342 78 182 126 237 78 m 867 578 b 651 376 746 578 667 494 l 1072 376 b 867 578 1060 499 978 578 "},"ç":{"ha":711,"x_min":0,"x_max":0,"o":"m 412 671 b 656 567 509 671 597 635 l 589 497 b 409 574 540 545 481 574 b 177 329 277 574 177 471 b 409 84 177 187 277 84 b 591 161 481 84 544 116 l 656 90 b 454 -10 605 33 534 -1 l 388 -224 l 279 -224 l 351 -8 b 72 329 182 17 72 154 b 412 671 72 524 210 671 "},"è":{"ha":778,"x_min":0,"x_max":0,"o":"m 398 671 b 707 331 576 671 706 531 b 705 292 707 318 706 304 l 178 292 b 410 78 192 151 292 78 b 619 160 492 78 563 109 l 674 90 b 404 -13 592 11 501 -13 b 72 328 210 -13 72 125 b 398 671 72 530 210 671 m 396 578 b 179 376 274 578 196 495 l 601 376 b 396 578 588 499 508 578 m 200 967 l 331 967 l 477 758 l 374 758 "},"é":{"ha":778,"x_min":0,"x_max":0,"o":"m 398 671 b 707 331 576 671 706 531 b 705 292 707 318 706 304 l 178 292 b 410 78 192 151 292 78 b 619 160 492 78 563 109 l 674 90 b 404 -13 592 11 501 -13 b 72 328 210 -13 72 125 b 398 671 72 530 210 671 m 396 578 b 179 376 274 578 196 495 l 601 376 b 396 578 588 499 508 578 m 305 758 l 450 967 l 582 967 l 408 758 "},"ê":{"ha":778,"x_min":0,"x_max":0,"o":"m 398 671 b 707 331 576 671 706 531 b 705 292 707 318 706 304 l 178 292 b 410 78 192 151 292 78 b 619 160 492 78 563 109 l 674 90 b 404 -13 592 11 501 -13 b 72 328 210 -13 72 125 b 398 671 72 530 210 671 m 396 578 b 179 376 274 578 196 495 l 601 376 b 396 578 588 499 508 578 m 516 759 l 395 890 l 274 759 l 163 759 l 326 959 l 465 959 l 627 759 "},"ë":{"ha":778,"x_min":0,"x_max":0,"o":"m 398 671 b 707 331 576 671 706 531 b 705 292 707 318 706 304 l 178 292 b 410 78 192 151 292 78 b 619 160 492 78 563 109 l 674 90 b 404 -13 592 11 501 -13 b 72 328 210 -13 72 125 b 398 671 72 530 210 671 m 396 578 b 179 376 274 578 196 495 l 601 376 b 396 578 588 499 508 578 m 254 933 b 328 858 295 933 328 900 b 254 785 328 817 295 785 b 181 858 213 785 181 817 b 254 933 181 900 213 933 m 536 933 b 610 858 577 933 610 900 b 536 785 610 817 577 785 b 463 858 494 785 463 817 b 536 933 463 900 494 933 "},"ì":{"ha":347,"x_min":0,"x_max":0,"o":"m 226 0 l 122 0 l 122 658 l 226 658 m -22 967 l 110 967 l 256 758 l 153 758 "},"í":{"ha":347,"x_min":0,"x_max":0,"o":"m 226 0 l 122 0 l 122 658 l 226 658 m 83 758 l 228 967 l 360 967 l 186 758 "},"î":{"ha":347,"x_min":0,"x_max":0,"o":"m 226 0 l 122 0 l 122 658 l 226 658 m 294 759 l 174 890 l 52 759 l -59 759 l 104 959 l 243 959 l 406 759 "},"ï":{"ha":347,"x_min":0,"x_max":0,"o":"m 226 0 l 122 0 l 122 658 l 226 658 m 33 933 b 106 858 74 933 106 900 b 33 785 106 817 74 785 b -41 858 -9 785 -41 817 b 33 933 -41 900 -9 933 m 315 933 b 388 858 356 933 388 900 b 315 785 388 817 356 785 b 242 858 273 785 242 817 b 315 933 242 900 273 933 "},"ð":{"ha":833,"x_min":0,"x_max":0,"o":"m 644 933 l 508 851 b 761 335 653 725 761 539 b 417 -13 761 137 613 -13 b 72 322 219 -13 72 131 b 398 659 72 515 214 659 b 610 572 483 659 558 627 b 420 799 572 651 510 730 l 246 696 l 207 759 l 353 846 b 205 924 309 874 260 900 l 251 1007 b 445 901 324 977 389 941 l 606 996 m 417 561 b 177 322 281 561 177 463 b 417 84 177 183 281 84 b 658 322 553 84 658 183 b 417 561 658 463 553 561 "},"ñ":{"ha":834,"x_min":0,"x_max":0,"o":"m 446 671 b 720 408 608 671 720 567 l 720 0 l 617 0 l 617 374 b 427 572 617 499 547 572 b 226 371 317 572 226 496 l 226 0 l 122 0 l 122 658 l 224 658 l 224 564 b 446 671 278 642 365 671 m 190 857 b 342 934 231 908 276 934 b 526 879 435 934 467 879 b 617 926 561 879 587 894 l 678 867 b 526 790 637 815 592 790 b 342 845 433 790 401 845 b 251 798 307 845 281 829 "},"ò":{"ha":835,"x_min":0,"x_max":0,"o":"m 417 671 b 764 329 615 671 764 524 b 417 -13 764 134 615 -13 b 72 329 219 -13 72 134 b 417 671 72 524 219 671 m 417 574 b 177 329 281 574 177 471 b 417 84 177 187 281 84 b 658 329 553 84 658 187 b 417 574 658 471 553 574 m 222 967 l 353 967 l 499 758 l 397 758 "},"ó":{"ha":835,"x_min":0,"x_max":0,"o":"m 417 671 b 764 329 615 671 764 524 b 417 -13 764 134 615 -13 b 72 329 219 -13 72 134 b 417 671 72 524 219 671 m 417 574 b 177 329 281 574 177 471 b 417 84 177 187 281 84 b 658 329 553 84 658 187 b 417 574 658 471 553 574 m 327 758 l 472 967 l 604 967 l 430 758 "},"ô":{"ha":835,"x_min":0,"x_max":0,"o":"m 417 671 b 764 329 615 671 764 524 b 417 -13 764 134 615 -13 b 72 329 219 -13 72 134 b 417 671 72 524 219 671 m 417 574 b 177 329 281 574 177 471 b 417 84 177 187 281 84 b 658 329 553 84 658 187 b 417 574 658 471 553 574 m 538 759 l 417 890 l 296 759 l 185 759 l 348 959 l 487 959 l 649 759 "},"õ":{"ha":835,"x_min":0,"x_max":0,"o":"m 417 671 b 764 329 615 671 764 524 b 417 -13 764 134 615 -13 b 72 329 219 -13 72 134 b 417 671 72 524 219 671 m 417 574 b 177 329 281 574 177 471 b 417 84 177 187 281 84 b 658 329 553 84 658 187 b 417 574 658 471 553 574 m 178 857 b 331 934 220 908 265 934 b 515 879 424 934 456 879 b 606 926 550 879 576 894 l 667 867 b 515 790 626 815 581 790 b 331 845 422 790 390 845 b 240 798 296 845 269 829 "},"ö":{"ha":835,"x_min":0,"x_max":0,"o":"m 417 671 b 764 329 615 671 764 524 b 417 -13 764 134 615 -13 b 72 329 219 -13 72 134 b 417 671 72 524 219 671 m 417 574 b 177 329 281 574 177 471 b 417 84 177 187 281 84 b 658 329 553 84 658 187 b 417 574 658 471 553 574 m 276 933 b 350 858 317 933 350 900 b 276 785 350 817 317 785 b 203 858 235 785 203 817 b 276 933 203 900 235 933 m 558 933 b 632 858 599 933 632 900 b 558 785 632 817 599 785 b 485 858 517 785 485 817 b 558 933 485 900 517 933 "},"÷":{"ha":833,"x_min":0,"x_max":0,"o":"m 719 320 l 115 320 l 115 415 l 719 415 m 417 662 b 489 590 456 662 489 629 b 417 517 489 551 456 517 b 344 590 378 517 344 551 b 417 662 344 629 378 662 m 417 217 b 489 146 456 217 489 185 b 417 73 489 107 456 73 b 344 146 378 73 344 107 b 417 217 344 185 378 217 "},"ø":{"ha":835,"x_min":0,"x_max":0,"o":"m 417 671 b 630 603 499 671 572 646 l 707 680 l 769 617 l 693 541 b 764 329 738 483 764 410 b 417 -13 764 134 615 -13 b 206 54 336 -13 264 11 l 129 -23 l 66 39 l 142 115 b 72 329 97 173 72 247 b 417 671 72 524 219 671 m 417 574 b 177 329 281 574 177 471 b 217 190 177 276 192 228 l 558 531 b 417 574 518 558 470 574 m 658 329 b 619 467 658 381 643 428 l 278 126 b 417 84 317 99 365 84 b 658 329 553 84 658 187 "},"ù":{"ha":825,"x_min":0,"x_max":0,"o":"m 711 274 b 413 -13 711 79 571 -13 b 114 274 253 -13 114 79 l 114 658 l 217 658 l 217 284 b 413 84 217 148 300 84 b 607 284 525 84 607 148 l 607 658 l 711 658 m 217 967 l 349 967 l 494 758 l 392 758 "},"ú":{"ha":825,"x_min":0,"x_max":0,"o":"m 711 274 b 413 -13 711 79 571 -13 b 114 274 253 -13 114 79 l 114 658 l 217 658 l 217 284 b 413 84 217 148 300 84 b 607 284 525 84 607 148 l 607 658 l 711 658 m 322 758 l 467 967 l 599 967 l 425 758 "},"û":{"ha":825,"x_min":0,"x_max":0,"o":"m 711 274 b 413 -13 711 79 571 -13 b 114 274 253 -13 114 79 l 114 658 l 217 658 l 217 284 b 413 84 217 148 300 84 b 607 284 525 84 607 148 l 607 658 l 711 658 m 533 759 l 413 890 l 291 759 l 180 759 l 343 959 l 482 959 l 644 759 "},"ü":{"ha":825,"x_min":0,"x_max":0,"o":"m 711 274 b 413 -13 711 79 571 -13 b 114 274 253 -13 114 79 l 114 658 l 217 658 l 217 284 b 413 84 217 148 300 84 b 607 284 525 84 607 148 l 607 658 l 711 658 m 272 933 b 345 858 313 933 345 900 b 272 785 345 817 313 785 b 198 858 230 785 198 817 b 272 933 198 900 230 933 m 553 933 b 627 858 594 933 627 900 b 553 785 627 817 594 785 b 481 858 512 785 481 817 b 553 933 481 900 512 933 "},"ý":{"ha":732,"x_min":0,"x_max":0,"o":"m 186 -281 l 72 -281 l 317 142 l 15 658 l 131 658 l 376 245 l 608 658 l 722 658 m 279 758 l 424 967 l 556 967 l 382 758 "},"þ":{"ha":865,"x_min":0,"x_max":0,"o":"m 465 671 b 794 329 650 671 794 526 b 465 -13 794 131 650 -13 b 226 97 357 -13 278 31 l 226 -278 l 122 -278 l 122 1000 l 226 1000 l 226 560 b 465 671 278 627 357 671 m 453 574 b 219 329 316 574 219 468 b 453 84 219 190 316 84 b 688 329 594 84 688 193 b 453 574 688 465 592 574 "},"ÿ":{"ha":732,"x_min":0,"x_max":0,"o":"m 186 -281 l 72 -281 l 317 142 l 15 658 l 131 658 l 376 245 l 608 658 l 722 658 m 228 933 b 302 858 269 933 302 900 b 228 785 302 817 269 785 b 155 858 187 785 155 817 b 228 933 155 900 187 933 m 510 933 b 584 858 551 933 584 900 b 510 785 584 817 551 785 b 438 858 469 785 438 817 b 510 933 438 900 469 933 "},"Ā":{"ha":987,"x_min":0,"x_max":0,"o":"m 962 0 l 842 0 l 732 271 l 251 271 l 141 0 l 25 0 l 424 972 l 563 972 m 294 376 l 690 376 l 492 862 m 286 1188 l 701 1188 l 701 1104 l 286 1104 "},"ā":{"ha":865,"x_min":0,"x_max":0,"o":"m 744 0 l 640 0 l 640 98 b 400 -13 588 31 508 -13 b 72 329 215 -13 72 131 b 400 671 72 526 215 671 b 640 560 508 671 588 626 l 640 658 l 744 658 m 413 574 b 177 329 272 574 177 465 b 413 84 177 193 273 84 b 647 329 549 84 647 190 b 413 574 647 468 549 574 m 217 900 l 632 900 l 632 816 l 217 816 "},"Ă":{"ha":987,"x_min":0,"x_max":0,"o":"m 962 0 l 842 0 l 732 271 l 251 271 l 141 0 l 25 0 l 424 972 l 563 972 m 294 376 l 690 376 l 492 862 m 340 1263 b 494 1130 367 1173 419 1130 b 648 1263 569 1130 622 1173 l 731 1237 b 494 1042 696 1109 610 1042 b 257 1237 378 1042 292 1109 "},"ă":{"ha":865,"x_min":0,"x_max":0,"o":"m 744 0 l 640 0 l 640 98 b 400 -13 588 31 508 -13 b 72 329 215 -13 72 131 b 400 671 72 526 215 671 b 640 560 508 671 588 626 l 640 658 l 744 658 m 413 574 b 177 329 272 574 177 465 b 413 84 177 193 273 84 b 647 329 549 84 647 190 b 413 574 647 468 549 574 m 271 974 b 424 842 297 885 350 842 b 578 974 499 842 552 885 l 662 949 b 424 754 626 821 540 754 b 188 949 309 754 223 821 "},"Ą":{"ha":987,"x_min":0,"x_max":0,"o":"m 964 -231 b 829 -288 924 -270 880 -288 b 681 -166 743 -288 681 -241 b 839 8 681 -93 738 -42 l 732 271 l 251 271 l 141 0 l 25 0 l 424 974 l 563 974 l 962 0 l 931 0 b 779 -145 827 -51 779 -96 b 838 -199 779 -178 803 -199 b 909 -164 865 -199 888 -186 m 294 376 l 690 376 l 492 863 "},"ą":{"ha":865,"x_min":0,"x_max":0,"o":"m 776 -231 b 642 -288 737 -270 692 -288 b 494 -166 556 -288 494 -241 b 640 3 494 -96 546 -46 l 640 98 b 400 -13 588 31 508 -13 b 72 329 215 -13 72 131 b 400 671 72 526 215 671 b 640 560 508 671 588 626 l 640 658 l 744 658 l 744 0 b 592 -145 640 -51 592 -96 b 651 -199 592 -178 615 -199 b 722 -164 678 -199 701 -186 m 413 574 b 177 329 272 574 177 465 b 413 84 177 193 273 84 b 647 329 549 84 647 190 b 413 574 647 468 549 574 "},"Ć":{"ha":1063,"x_min":0,"x_max":0,"o":"m 586 986 b 983 785 756 986 906 910 l 890 722 b 586 878 826 819 715 878 b 201 486 368 878 201 720 b 586 94 201 252 368 94 b 890 249 715 94 824 152 l 980 183 b 586 -14 899 61 753 -14 b 84 486 297 -14 84 194 b 586 986 84 778 297 986 m 484 1047 l 629 1255 l 761 1255 l 587 1047 "},"ć":{"ha":711,"x_min":0,"x_max":0,"o":"m 412 671 b 656 567 509 671 597 635 l 589 497 b 409 574 540 545 481 574 b 177 329 277 574 177 471 b 409 84 177 187 277 84 b 591 161 481 84 544 116 l 656 90 b 412 -13 596 23 509 -13 b 72 329 210 -13 72 134 b 412 671 72 524 210 671 m 315 758 l 460 967 l 592 967 l 417 758 "},"Ĉ":{"ha":1063,"x_min":0,"x_max":0,"o":"m 586 986 b 983 785 756 986 906 910 l 890 722 b 586 878 826 819 715 878 b 201 486 368 878 201 720 b 586 94 201 252 368 94 b 890 249 715 94 824 152 l 980 183 b 586 -14 899 61 753 -14 b 84 486 297 -14 84 194 b 586 986 84 778 297 986 m 703 1047 l 582 1178 l 460 1047 l 349 1047 l 513 1247 l 651 1247 l 814 1047 "},"ĉ":{"ha":711,"x_min":0,"x_max":0,"o":"m 412 671 b 656 567 509 671 597 635 l 589 497 b 409 574 540 545 481 574 b 177 329 277 574 177 471 b 409 84 177 187 277 84 b 591 161 481 84 544 116 l 656 90 b 412 -13 596 23 509 -13 b 72 329 210 -13 72 134 b 412 671 72 524 210 671 m 526 759 l 405 890 l 283 759 l 172 759 l 335 959 l 474 959 l 637 759 "},"Ċ":{"ha":1063,"x_min":0,"x_max":0,"o":"m 586 986 b 983 785 756 986 906 910 l 890 722 b 586 878 826 819 715 878 b 201 486 368 878 201 720 b 586 94 201 252 368 94 b 890 249 715 94 824 152 l 980 183 b 586 -14 899 61 753 -14 b 84 486 297 -14 84 194 b 586 986 84 778 297 986 m 572 1225 b 649 1149 615 1225 649 1192 b 572 1074 649 1106 615 1074 b 497 1149 529 1074 497 1106 b 572 1225 497 1192 529 1225 "},"ċ":{"ha":711,"x_min":0,"x_max":0,"o":"m 412 671 b 656 567 509 671 597 635 l 589 497 b 409 574 540 545 481 574 b 177 329 277 574 177 471 b 409 84 177 187 277 84 b 591 161 481 84 544 116 l 656 90 b 412 -13 596 23 509 -13 b 72 329 210 -13 72 134 b 412 671 72 524 210 671 m 405 965 b 478 891 446 965 478 933 b 405 818 478 849 446 818 b 332 891 363 818 332 849 b 405 965 332 933 363 965 "},"Č":{"ha":1063,"x_min":0,"x_max":0,"o":"m 586 986 b 983 785 756 986 906 910 l 890 722 b 586 878 826 819 715 878 b 201 486 368 878 201 720 b 586 94 201 252 368 94 b 890 249 715 94 824 152 l 980 183 b 586 -14 899 61 753 -14 b 84 486 297 -14 84 194 b 586 986 84 778 297 986 m 460 1246 l 582 1115 l 703 1246 l 814 1246 l 651 1046 l 513 1046 l 349 1246 "},"č":{"ha":711,"x_min":0,"x_max":0,"o":"m 412 671 b 656 567 509 671 597 635 l 589 497 b 409 574 540 545 481 574 b 177 329 277 574 177 471 b 409 84 177 187 277 84 b 591 161 481 84 544 116 l 656 90 b 412 -13 596 23 509 -13 b 72 329 210 -13 72 134 b 412 671 72 524 210 671 m 283 958 l 405 826 l 526 958 l 637 958 l 474 758 l 335 758 l 172 958 "},"Ď":{"ha":1110,"x_min":0,"x_max":0,"o":"m 506 972 b 1025 486 824 972 1025 783 b 506 0 1025 190 824 0 l 140 0 l 140 972 m 252 867 l 252 106 l 506 106 b 908 486 769 106 908 258 b 506 867 908 715 769 867 m 391 1246 l 513 1115 l 633 1246 l 744 1246 l 582 1046 l 443 1046 l 280 1246 "},"ď":{"ha":900,"x_min":0,"x_max":0,"o":"m 400 671 b 640 560 508 671 588 626 l 640 1000 l 744 1000 l 744 0 l 640 0 l 640 98 b 400 -13 588 31 508 -13 b 72 329 215 -13 72 131 b 400 671 72 526 215 671 m 413 574 b 177 329 272 574 177 465 b 413 84 177 193 273 84 b 647 329 549 84 647 190 b 413 574 647 468 549 574 m 826 730 l 831 1000 l 937 1000 l 913 730 "},"Đ":{"ha":1215,"x_min":0,"x_max":0,"o":"m 611 972 b 1130 486 928 972 1130 783 b 611 0 1130 190 928 0 l 245 0 l 245 437 l 84 437 l 84 542 l 245 542 l 245 972 m 637 437 l 357 437 l 357 106 l 611 106 b 1013 486 874 106 1013 258 b 611 867 1013 715 874 867 l 357 867 l 357 542 l 637 542 "},"đ":{"ha":865,"x_min":0,"x_max":0,"o":"m 848 774 l 744 774 l 744 0 l 640 0 l 640 98 b 400 -13 588 31 508 -13 b 72 329 215 -13 72 131 b 400 671 72 526 215 671 b 640 560 508 671 588 626 l 640 774 l 349 774 l 349 869 l 640 869 l 640 1000 l 744 1000 l 744 869 l 848 869 m 413 574 b 177 329 272 574 177 465 b 413 84 177 193 273 84 b 647 329 549 84 647 190 b 413 574 647 468 549 574 "},"Ē":{"ha":936,"x_min":0,"x_max":0,"o":"m 824 0 l 140 0 l 140 972 l 818 972 l 818 867 l 252 867 l 252 542 l 801 542 l 801 438 l 252 438 l 252 105 l 824 105 m 268 1188 l 683 1188 l 683 1104 l 268 1104 "},"ē":{"ha":778,"x_min":0,"x_max":0,"o":"m 398 671 b 707 331 576 671 706 531 b 705 292 707 318 706 304 l 178 292 b 410 78 192 151 292 78 b 619 160 492 78 563 109 l 674 90 b 404 -13 592 11 501 -13 b 72 328 210 -13 72 125 b 398 671 72 530 210 671 m 396 578 b 179 376 274 578 196 495 l 601 376 b 396 578 588 499 508 578 m 188 900 l 603 900 l 603 816 l 188 816 "},"Ĕ":{"ha":936,"x_min":0,"x_max":0,"o":"m 824 0 l 140 0 l 140 972 l 818 972 l 818 867 l 252 867 l 252 542 l 801 542 l 801 438 l 252 438 l 252 105 l 824 105 m 322 1263 b 476 1130 349 1173 401 1130 b 630 1263 551 1130 603 1173 l 713 1237 b 476 1042 678 1109 592 1042 b 239 1237 360 1042 274 1109 "},"ĕ":{"ha":778,"x_min":0,"x_max":0,"o":"m 398 671 b 707 331 576 671 706 531 b 705 292 707 318 706 304 l 178 292 b 410 78 192 151 292 78 b 619 160 492 78 563 109 l 674 90 b 404 -13 592 11 501 -13 b 72 328 210 -13 72 125 b 398 671 72 530 210 671 m 396 578 b 179 376 274 578 196 495 l 601 376 b 396 578 588 499 508 578 m 242 974 b 395 842 268 885 321 842 b 549 974 470 842 523 885 l 633 949 b 395 754 597 821 511 754 b 158 949 280 754 194 821 "},"Ė":{"ha":936,"x_min":0,"x_max":0,"o":"m 824 0 l 140 0 l 140 972 l 818 972 l 818 867 l 252 867 l 252 542 l 801 542 l 801 438 l 252 438 l 252 105 l 824 105 m 466 1225 b 542 1149 508 1225 542 1192 b 466 1074 542 1106 508 1074 b 390 1149 423 1074 390 1106 b 466 1225 390 1192 423 1225 "},"ė":{"ha":778,"x_min":0,"x_max":0,"o":"m 398 671 b 707 331 576 671 706 531 b 705 292 707 318 706 304 l 178 292 b 410 78 192 151 292 78 b 619 160 492 78 563 109 l 674 90 b 404 -13 592 11 501 -13 b 72 328 210 -13 72 125 b 398 671 72 530 210 671 m 396 578 b 179 376 274 578 196 495 l 601 376 b 396 578 588 499 508 578 m 395 965 b 469 891 436 965 469 933 b 395 818 469 849 436 818 b 322 891 353 818 322 849 b 395 965 322 933 353 965 "},"Ę":{"ha":936,"x_min":0,"x_max":0,"o":"m 824 0 l 697 0 b 594 -126 626 -38 594 -78 b 680 -199 594 -169 627 -199 b 779 -158 718 -199 751 -185 l 835 -226 b 674 -288 792 -267 734 -288 b 492 -145 565 -288 492 -227 b 590 0 492 -82 526 -37 l 140 0 l 140 972 l 818 972 l 818 867 l 252 867 l 252 542 l 801 542 l 801 438 l 252 438 l 252 105 l 824 105 "},"ę":{"ha":778,"x_min":0,"x_max":0,"o":"m 672 -226 b 510 -288 628 -267 571 -288 b 329 -145 401 -288 329 -227 b 403 -13 329 -90 356 -48 b 72 328 210 -13 72 125 b 398 671 72 530 210 671 b 707 331 576 671 706 531 b 705 292 707 318 706 304 l 178 292 b 410 78 192 151 292 78 b 619 160 492 78 563 109 l 674 90 b 556 12 637 53 597 31 b 431 -126 478 -24 431 -71 b 517 -199 431 -169 464 -199 b 616 -158 555 -199 588 -185 m 396 578 b 179 376 274 578 196 495 l 601 376 b 396 578 588 499 508 578 "},"Ě":{"ha":936,"x_min":0,"x_max":0,"o":"m 824 0 l 140 0 l 140 972 l 818 972 l 818 867 l 252 867 l 252 542 l 801 542 l 801 438 l 252 438 l 252 105 l 824 105 m 354 1246 l 476 1115 l 597 1246 l 708 1246 l 545 1046 l 406 1046 l 243 1246 "},"ě":{"ha":778,"x_min":0,"x_max":0,"o":"m 398 671 b 707 331 576 671 706 531 b 705 292 707 318 706 304 l 178 292 b 410 78 192 151 292 78 b 619 160 492 78 563 109 l 674 90 b 404 -13 592 11 501 -13 b 72 328 210 -13 72 125 b 398 671 72 530 210 671 m 396 578 b 179 376 274 578 196 495 l 601 376 b 396 578 588 499 508 578 m 274 958 l 395 826 l 516 958 l 627 958 l 465 758 l 326 758 l 163 958 "},"Ĝ":{"ha":1138,"x_min":0,"x_max":0,"o":"m 586 986 b 963 823 740 986 874 925 l 881 744 b 586 878 812 827 707 878 b 201 486 368 878 201 720 b 581 94 201 252 368 94 b 931 415 787 94 914 216 l 628 415 l 628 519 l 1052 519 b 1053 491 1053 510 1053 500 b 581 -13 1053 208 874 -13 b 84 486 326 -13 84 172 b 586 986 84 778 299 986 m 692 1047 l 571 1178 l 449 1047 l 338 1047 l 501 1247 l 640 1247 l 803 1047 "},"ĝ":{"ha":858,"x_min":0,"x_max":0,"o":"m 397 671 b 632 559 503 671 582 627 l 632 658 l 736 658 l 736 45 b 388 -288 736 -169 592 -288 b 111 -200 283 -288 178 -256 l 157 -117 b 388 -194 219 -164 299 -194 b 632 41 531 -194 632 -112 l 632 108 b 397 -3 582 40 503 -3 b 72 334 213 -3 72 135 b 397 671 72 533 213 671 m 409 574 b 177 334 269 574 177 467 b 409 94 177 201 269 94 b 641 334 544 94 641 197 b 409 574 641 469 544 574 m 540 759 l 419 890 l 298 759 l 187 759 l 350 959 l 489 959 l 651 759 "},"Ğ":{"ha":1138,"x_min":0,"x_max":0,"o":"m 586 986 b 963 823 740 986 874 925 l 881 744 b 586 878 812 827 707 878 b 201 486 368 878 201 720 b 581 94 201 252 368 94 b 931 415 787 94 914 216 l 628 415 l 628 519 l 1052 519 b 1053 491 1053 510 1053 500 b 581 -13 1053 208 874 -13 b 84 486 326 -13 84 172 b 586 986 84 778 299 986 m 417 1263 b 571 1130 444 1173 497 1130 b 725 1263 646 1130 699 1173 l 808 1237 b 571 1042 773 1109 687 1042 b 334 1237 456 1042 369 1109 "},"ğ":{"ha":858,"x_min":0,"x_max":0,"o":"m 397 671 b 632 559 503 671 582 627 l 632 658 l 736 658 l 736 45 b 388 -288 736 -169 592 -288 b 111 -200 283 -288 178 -256 l 157 -117 b 388 -194 219 -164 299 -194 b 632 41 531 -194 632 -112 l 632 108 b 397 -3 582 40 503 -3 b 72 334 213 -3 72 135 b 397 671 72 533 213 671 m 409 574 b 177 334 269 574 177 467 b 409 94 177 201 269 94 b 641 334 544 94 641 197 b 409 574 641 469 544 574 m 266 974 b 419 842 292 885 345 842 b 574 974 494 842 547 885 l 657 949 b 419 754 622 821 535 754 b 183 949 304 754 218 821 "},"Ġ":{"ha":1138,"x_min":0,"x_max":0,"o":"m 586 986 b 963 823 740 986 874 925 l 881 744 b 586 878 812 827 707 878 b 201 486 368 878 201 720 b 581 94 201 252 368 94 b 931 415 787 94 914 216 l 628 415 l 628 519 l 1052 519 b 1053 491 1053 510 1053 500 b 581 -13 1053 208 874 -13 b 84 486 326 -13 84 172 b 586 986 84 778 299 986 m 561 1225 b 638 1149 603 1225 638 1192 b 561 1074 638 1106 603 1074 b 485 1149 518 1074 485 1106 b 561 1225 485 1192 518 1225 "},"ġ":{"ha":858,"x_min":0,"x_max":0,"o":"m 397 671 b 632 559 503 671 582 627 l 632 658 l 736 658 l 736 45 b 388 -288 736 -169 592 -288 b 111 -200 283 -288 178 -256 l 157 -117 b 388 -194 219 -164 299 -194 b 632 41 531 -194 632 -112 l 632 108 b 397 -3 582 40 503 -3 b 72 334 213 -3 72 135 b 397 671 72 533 213 671 m 409 574 b 177 334 269 574 177 467 b 409 94 177 201 269 94 b 641 334 544 94 641 197 b 409 574 641 469 544 574 m 419 965 b 493 891 460 965 493 933 b 419 818 493 849 460 818 b 347 891 378 818 347 849 b 419 965 347 933 378 965 "},"Ģ":{"ha":1138,"x_min":0,"x_max":0,"o":"m 586 986 b 963 823 740 986 874 925 l 881 744 b 586 878 812 827 707 878 b 201 486 368 878 201 720 b 581 94 201 252 368 94 b 931 415 787 94 914 216 l 628 415 l 628 519 l 1052 519 b 1053 491 1053 510 1053 500 b 581 -13 1053 208 874 -13 b 84 486 326 -13 84 172 b 586 986 84 778 299 986 m 640 -61 l 589 -304 l 497 -304 l 526 -61 "},"ģ":{"ha":858,"x_min":0,"x_max":0,"o":"m 397 671 b 632 559 503 671 582 627 l 632 658 l 736 658 l 736 45 b 388 -288 736 -169 592 -288 b 111 -200 283 -288 178 -256 l 157 -117 b 388 -194 219 -164 299 -194 b 632 41 531 -194 632 -112 l 632 108 b 397 -3 582 40 503 -3 b 72 334 213 -3 72 135 b 397 671 72 533 213 671 m 409 574 b 177 334 269 574 177 467 b 409 94 177 201 269 94 b 641 334 544 94 641 197 b 409 574 641 469 544 574 m 356 758 l 408 1002 l 499 1002 l 470 758 "},"Ĥ":{"ha":1092,"x_min":0,"x_max":0,"o":"m 252 542 l 840 542 l 840 972 l 952 972 l 952 0 l 840 0 l 840 437 l 252 437 l 252 0 l 140 0 l 140 972 l 252 972 m 667 1047 l 546 1178 l 424 1047 l 313 1047 l 476 1247 l 615 1247 l 778 1047 "},"ĥ":{"ha":834,"x_min":0,"x_max":0,"o":"m 226 566 b 446 671 280 642 366 671 b 720 408 608 671 720 567 l 720 0 l 617 0 l 617 374 b 427 572 617 499 547 572 b 226 371 317 572 226 496 l 226 0 l 122 0 l 122 1000 l 226 1000 m 544 1074 l 423 1205 l 301 1074 l 190 1074 l 353 1274 l 492 1274 l 655 1074 "},"Ħ":{"ha":1124,"x_min":0,"x_max":0,"o":"m 1082 701 l 969 701 l 969 0 l 857 0 l 857 437 l 269 437 l 269 0 l 157 0 l 157 701 l 42 701 l 42 796 l 157 796 l 157 972 l 269 972 l 269 796 l 857 796 l 857 972 l 969 972 l 969 796 l 1082 796 m 857 542 l 857 701 l 269 701 l 269 542 "},"ħ":{"ha":834,"x_min":0,"x_max":0,"o":"m 498 774 l 226 774 l 226 566 b 446 671 280 642 366 671 b 720 408 608 671 720 567 l 720 0 l 617 0 l 617 374 b 427 572 617 499 547 572 b 226 371 317 572 226 496 l 226 0 l 122 0 l 122 774 l -1 774 l -1 869 l 122 869 l 122 1000 l 226 1000 l 226 869 l 498 869 "},"Ĩ":{"ha":392,"x_min":0,"x_max":0,"o":"m 252 0 l 140 0 l 140 972 l 252 972 m -49 1145 b 103 1222 -7 1197 38 1222 b 288 1167 197 1222 229 1167 b 378 1214 323 1167 349 1183 l 440 1155 b 288 1078 399 1103 353 1078 b 103 1133 195 1078 163 1133 b 13 1086 69 1133 42 1117 "},"ĩ":{"ha":347,"x_min":0,"x_max":0,"o":"m 226 0 l 122 0 l 122 658 l 226 658 m -65 857 b 87 934 -24 908 21 934 b 272 879 181 934 213 879 b 362 926 306 879 332 894 l 424 867 b 272 790 382 815 337 790 b 87 845 178 790 147 845 b -4 798 52 845 26 829 "},"Ī":{"ha":392,"x_min":0,"x_max":0,"o":"m 252 0 l 140 0 l 140 972 l 252 972 m -12 1188 l 403 1188 l 403 1104 l -12 1104 "},"ī":{"ha":347,"x_min":0,"x_max":0,"o":"m 226 0 l 122 0 l 122 658 l 226 658 m -34 900 l 381 900 l 381 816 l -34 816 "},"Ĭ":{"ha":392,"x_min":0,"x_max":0,"o":"m 252 0 l 140 0 l 140 972 l 252 972 m 42 1263 b 196 1130 69 1173 122 1130 b 350 1263 271 1130 324 1173 l 433 1237 b 196 1042 398 1109 312 1042 b -41 1237 81 1042 -6 1109 "},"ĭ":{"ha":347,"x_min":0,"x_max":0,"o":"m 226 0 l 122 0 l 122 658 l 226 658 m 20 974 b 174 842 47 885 99 842 b 328 974 249 842 301 885 l 411 949 b 174 754 376 821 290 754 b -63 949 58 754 -28 821 "},"Į":{"ha":392,"x_min":0,"x_max":0,"o":"m 339 -231 b 203 -288 299 -270 254 -288 b 56 -166 117 -288 56 -241 b 165 0 56 -101 96 -51 l 140 0 l 140 972 l 252 972 l 252 0 l 251 0 b 153 -145 187 -53 153 -102 b 213 -199 153 -178 177 -199 b 283 -164 240 -199 263 -186 "},"į":{"ha":347,"x_min":0,"x_max":0,"o":"m 226 0 l 225 0 b 127 -145 160 -53 127 -102 b 186 -199 127 -178 151 -199 b 257 -164 214 -199 237 -186 l 313 -231 b 177 -288 273 -270 228 -288 b 29 -166 91 -288 29 -241 b 138 0 29 -101 69 -51 l 122 0 l 122 658 l 226 658 m 174 965 b 247 891 215 965 247 933 b 174 818 247 849 215 818 b 101 891 132 818 101 849 b 174 965 101 933 132 965 "},"İ":{"ha":392,"x_min":0,"x_max":0,"o":"m 252 0 l 140 0 l 140 972 l 252 972 m 186 1225 b 263 1149 228 1225 263 1192 b 186 1074 263 1106 228 1074 b 110 1149 143 1074 110 1106 b 186 1225 110 1192 143 1225 "},"ı":{"ha":347,"x_min":0,"x_max":0,"o":"m 226 0 l 122 0 l 122 658 l 226 658 "},"Ĳ":{"ha":1191,"x_min":0,"x_max":0,"o":"m 252 0 l 140 0 l 140 972 l 252 972 m 1058 347 b 720 -13 1058 115 913 -13 b 420 124 565 -13 474 59 l 495 200 b 719 94 541 142 614 94 b 947 358 856 94 947 183 l 947 972 l 1058 972 "},"ĳ":{"ha":697,"x_min":0,"x_max":0,"o":"m 576 -108 b 412 -288 576 -225 511 -288 b 317 -266 378 -288 341 -279 l 342 -176 b 403 -190 359 -185 381 -190 b 472 -103 445 -190 472 -164 l 472 658 l 576 658 m 523 965 b 597 891 564 965 597 933 b 523 818 597 849 564 818 b 450 891 481 818 450 849 b 523 965 450 933 481 965 m 226 0 l 122 0 l 122 658 l 226 658 m 174 965 b 247 891 215 965 247 933 b 174 818 247 849 215 818 b 101 891 132 818 101 849 b 174 965 101 933 132 965 "},"Ĵ":{"ha":799,"x_min":0,"x_max":0,"o":"m 665 347 b 328 -13 665 115 520 -13 b 28 124 172 -13 81 59 l 103 200 b 327 94 149 142 222 94 b 554 358 463 94 554 183 l 554 972 l 665 972 m 731 1047 l 610 1178 l 488 1047 l 377 1047 l 540 1247 l 679 1247 l 842 1047 "},"ĵ":{"ha":350,"x_min":0,"x_max":0,"o":"m 228 -108 b 65 -288 228 -225 164 -288 b -30 -266 31 -288 -6 -279 l -5 -176 b 56 -190 12 -185 33 -190 b 124 -103 98 -190 124 -164 l 124 658 l 228 658 m 297 759 l 176 890 l 54 759 l -57 759 l 106 959 l 245 959 l 408 759 "},"Ķ":{"ha":964,"x_min":0,"x_max":0,"o":"m 367 436 l 252 436 l 252 0 l 140 0 l 140 972 l 252 972 l 252 542 l 369 542 l 773 972 l 917 972 l 460 495 l 947 0 l 795 0 m 553 -61 l 502 -304 l 410 -304 l 440 -61 "},"ķ":{"ha":735,"x_min":0,"x_max":0,"o":"m 226 391 l 321 391 l 574 658 l 704 658 l 406 348 l 709 0 l 578 0 l 320 297 l 226 297 l 226 0 l 122 0 l 122 1000 l 226 1000 m 454 -61 l 403 -304 l 311 -304 l 340 -61 "},"ĸ":{"ha":728,"x_min":0,"x_max":0,"o":"m 226 391 l 318 391 l 567 658 l 698 658 l 403 348 l 703 0 l 572 0 l 317 297 l 226 297 l 226 0 l 122 0 l 122 658 l 226 658 "},"Ĺ":{"ha":842,"x_min":0,"x_max":0,"o":"m 815 0 l 140 0 l 140 972 l 252 972 l 252 106 l 815 106 m 98 1047 l 243 1255 l 375 1255 l 201 1047 "},"ĺ":{"ha":347,"x_min":0,"x_max":0,"o":"m 226 0 l 122 0 l 122 1000 l 226 1000 m 58 1073 l 203 1281 l 335 1281 l 161 1073 "},"Ļ":{"ha":842,"x_min":0,"x_max":0,"o":"m 815 0 l 140 0 l 140 972 l 252 972 l 252 106 l 815 106 m 542 -61 l 491 -304 l 399 -304 l 428 -61 "},"ļ":{"ha":347,"x_min":0,"x_max":0,"o":"m 226 0 l 122 0 l 122 1000 l 226 1000 m 240 -61 l 188 -304 l 97 -304 l 126 -61 "},"Ľ":{"ha":842,"x_min":0,"x_max":0,"o":"m 815 0 l 140 0 l 140 972 l 252 972 l 252 106 l 815 106 m 417 702 l 422 972 l 528 972 l 505 702 "},"ľ":{"ha":377,"x_min":0,"x_max":0,"o":"m 226 0 l 122 0 l 122 1000 l 226 1000 m 300 730 l 305 1000 l 411 1000 l 388 730 "},"Ŀ":{"ha":842,"x_min":0,"x_max":0,"o":"m 815 0 l 140 0 l 140 972 l 252 972 l 252 106 l 815 106 m 595 565 b 672 490 638 565 672 533 b 595 414 672 447 638 414 b 519 490 552 414 519 447 b 595 565 519 533 552 565 "},"ŀ":{"ha":426,"x_min":0,"x_max":0,"o":"m 226 0 l 122 0 l 122 1000 l 226 1000 m 383 581 b 457 507 424 581 457 549 b 383 434 457 465 424 434 b 310 507 342 434 310 465 b 383 581 310 549 342 581 "},"Ł":{"ha":935,"x_min":0,"x_max":0,"o":"m 907 0 l 233 0 l 233 349 l 84 266 l 84 385 l 233 469 l 233 972 l 344 972 l 344 531 l 703 733 l 703 613 l 344 412 l 344 106 l 907 106 "},"ł":{"ha":465,"x_min":0,"x_max":0,"o":"m 284 609 l 428 712 l 428 604 l 284 501 l 284 0 l 180 0 l 180 428 l 37 326 l 37 434 l 180 535 l 180 1000 l 284 1000 "},"Ń":{"ha":1095,"x_min":0,"x_max":0,"o":"m 955 0 l 854 0 l 252 781 l 252 0 l 140 0 l 140 972 l 241 972 l 843 192 l 843 972 l 955 972 m 449 1047 l 594 1255 l 726 1255 l 552 1047 "},"ń":{"ha":834,"x_min":0,"x_max":0,"o":"m 446 671 b 720 408 608 671 720 567 l 720 0 l 617 0 l 617 374 b 427 572 617 499 547 572 b 226 371 317 572 226 496 l 226 0 l 122 0 l 122 658 l 224 658 l 224 564 b 446 671 278 642 365 671 m 338 758 l 483 967 l 615 967 l 441 758 "},"Ņ":{"ha":1095,"x_min":0,"x_max":0,"o":"m 955 0 l 854 0 l 252 781 l 252 0 l 140 0 l 140 972 l 241 972 l 843 192 l 843 972 l 955 972 m 615 -61 l 564 -304 l 472 -304 l 501 -61 "},"ņ":{"ha":834,"x_min":0,"x_max":0,"o":"m 446 671 b 720 408 608 671 720 567 l 720 0 l 617 0 l 617 374 b 427 572 617 499 547 572 b 226 371 317 572 226 496 l 226 0 l 122 0 l 122 658 l 224 658 l 224 564 b 446 671 278 642 365 671 m 486 -61 l 435 -304 l 343 -304 l 372 -61 "},"Ň":{"ha":1095,"x_min":0,"x_max":0,"o":"m 955 0 l 854 0 l 252 781 l 252 0 l 140 0 l 140 972 l 241 972 l 843 192 l 843 972 l 955 972 m 426 1246 l 547 1115 l 668 1246 l 779 1246 l 617 1046 l 478 1046 l 315 1246 "},"ň":{"ha":834,"x_min":0,"x_max":0,"o":"m 446 671 b 720 408 608 671 720 567 l 720 0 l 617 0 l 617 374 b 427 572 617 499 547 572 b 226 371 317 572 226 496 l 226 0 l 122 0 l 122 658 l 224 658 l 224 564 b 446 671 278 642 365 671 m 307 958 l 428 826 l 549 958 l 660 958 l 498 758 l 359 758 l 196 958 "},"ŉ":{"ha":1025,"x_min":0,"x_max":0,"o":"m 251 1000 l 178 648 l 88 648 l 130 1000 m 637 671 b 911 408 799 671 911 567 l 911 0 l 808 0 l 808 374 b 618 572 808 499 738 572 b 417 371 508 572 417 496 l 417 0 l 313 0 l 313 658 l 415 658 l 415 564 b 637 671 469 642 556 671 "},"Ŋ":{"ha":1095,"x_min":0,"x_max":0,"o":"m 955 -26 b 719 -288 955 -173 886 -288 b 537 -244 644 -288 583 -269 l 578 -147 b 707 -181 613 -165 659 -181 b 843 -21 803 -181 843 -117 l 843 14 l 252 781 l 252 0 l 140 0 l 140 972 l 241 972 l 843 192 l 843 972 l 955 972 "},"ŋ":{"ha":834,"x_min":0,"x_max":0,"o":"m 446 671 b 720 408 608 671 720 567 l 720 -53 b 557 -233 720 -170 656 -233 b 463 -211 523 -233 486 -224 l 488 -122 b 547 -135 504 -130 525 -135 b 617 -49 590 -135 617 -109 l 617 374 b 427 572 617 499 547 572 b 226 371 317 572 226 496 l 226 0 l 122 0 l 122 658 l 224 658 l 224 564 b 446 671 278 642 365 671 "},"Ō":{"ha":1173,"x_min":0,"x_max":0,"o":"m 586 986 b 1088 486 876 986 1088 778 b 586 -14 1088 194 876 -14 b 84 486 297 -14 84 194 b 586 986 84 778 297 986 m 586 878 b 201 486 368 878 201 720 b 586 94 201 252 368 94 b 972 486 805 94 972 252 b 586 878 972 720 805 878 m 378 1188 l 794 1188 l 794 1104 l 378 1104 "},"ō":{"ha":835,"x_min":0,"x_max":0,"o":"m 417 671 b 764 329 615 671 764 524 b 417 -13 764 134 615 -13 b 72 329 219 -13 72 134 b 417 671 72 524 219 671 m 417 574 b 177 329 281 574 177 471 b 417 84 177 187 281 84 b 658 329 553 84 658 187 b 417 574 658 471 553 574 m 210 900 l 625 900 l 625 816 l 210 816 "},"Ŏ":{"ha":1173,"x_min":0,"x_max":0,"o":"m 586 986 b 1088 486 876 986 1088 778 b 586 -14 1088 194 876 -14 b 84 486 297 -14 84 194 b 586 986 84 778 297 986 m 586 878 b 201 486 368 878 201 720 b 586 94 201 252 368 94 b 972 486 805 94 972 252 b 586 878 972 720 805 878 m 433 1263 b 586 1130 459 1173 512 1130 b 740 1263 661 1130 714 1173 l 824 1237 b 586 1042 788 1109 702 1042 b 349 1237 471 1042 385 1109 "},"ŏ":{"ha":835,"x_min":0,"x_max":0,"o":"m 417 671 b 764 329 615 671 764 524 b 417 -13 764 134 615 -13 b 72 329 219 -13 72 134 b 417 671 72 524 219 671 m 417 574 b 177 329 281 574 177 471 b 417 84 177 187 281 84 b 658 329 553 84 658 187 b 417 574 658 471 553 574 m 264 974 b 417 842 290 885 343 842 b 572 974 492 842 545 885 l 655 949 b 417 754 619 821 533 754 b 181 949 302 754 216 821 "},"Ő":{"ha":1173,"x_min":0,"x_max":0,"o":"m 586 986 b 1088 486 876 986 1088 778 b 586 -14 1088 194 876 -14 b 84 486 297 -14 84 194 b 586 986 84 778 297 986 m 586 878 b 201 486 368 878 201 720 b 586 94 201 252 368 94 b 972 486 805 94 972 252 b 586 878 972 720 805 878 m 633 1047 l 783 1255 l 904 1255 l 738 1047 m 394 1047 l 533 1255 l 651 1255 l 501 1047 "},"ő":{"ha":835,"x_min":0,"x_max":0,"o":"m 417 671 b 764 329 615 671 764 524 b 417 -13 764 134 615 -13 b 72 329 219 -13 72 134 b 417 671 72 524 219 671 m 417 574 b 177 329 281 574 177 471 b 417 84 177 187 281 84 b 658 329 553 84 658 187 b 417 574 658 471 553 574 m 475 758 l 624 967 l 746 967 l 579 758 m 236 758 l 375 967 l 492 967 l 342 758 "},"Œ":{"ha":1567,"x_min":0,"x_max":0,"o":"m 1456 0 l 603 0 b 84 486 285 0 84 190 b 603 972 84 783 285 972 l 1449 972 l 1449 867 l 883 867 l 883 542 l 1432 542 l 1432 438 l 883 438 l 883 105 l 1456 105 m 201 486 b 603 106 201 257 340 106 l 772 106 l 772 867 l 603 867 b 201 486 340 867 201 714 "},"œ":{"ha":1365,"x_min":0,"x_max":0,"o":"m 984 671 b 1293 331 1163 671 1291 531 b 1291 292 1293 317 1292 304 l 764 292 b 997 78 778 151 878 78 b 1205 160 1078 78 1149 110 l 1260 90 b 990 -13 1178 11 1087 -13 b 705 149 861 -13 758 47 b 417 -13 647 50 542 -13 b 72 329 219 -13 72 134 b 417 671 72 524 219 671 b 706 507 543 671 649 606 b 984 671 760 608 861 671 m 417 574 b 177 329 281 574 177 471 b 417 84 177 187 281 84 b 658 329 553 84 658 187 b 417 574 658 471 553 574 m 982 578 b 765 376 860 578 782 495 l 1188 376 b 982 578 1174 499 1094 578 "},"Ŕ":{"ha":940,"x_min":0,"x_max":0,"o":"m 522 972 b 861 698 740 972 861 874 b 523 423 861 530 731 423 l 507 423 l 856 0 l 717 0 l 375 423 l 252 423 l 252 0 l 140 0 l 140 972 m 252 867 l 252 524 l 520 524 b 745 698 668 524 745 585 b 520 867 745 810 666 867 m 363 1047 l 508 1255 l 640 1255 l 465 1047 "},"ŕ":{"ha":576,"x_min":0,"x_max":0,"o":"m 419 671 b 540 649 467 671 506 665 l 515 547 b 401 573 483 564 440 573 b 225 368 299 573 225 492 l 225 0 l 122 0 l 122 658 l 224 658 l 224 565 b 419 671 269 633 339 671 m 240 758 l 385 967 l 517 967 l 342 758 "},"Ŗ":{"ha":940,"x_min":0,"x_max":0,"o":"m 522 972 b 861 698 740 972 861 874 b 523 423 861 530 731 423 l 507 423 l 856 0 l 717 0 l 375 423 l 252 423 l 252 0 l 140 0 l 140 972 m 252 867 l 252 524 l 520 524 b 745 698 668 524 745 585 b 520 867 745 810 666 867 m 534 -61 l 483 -304 l 391 -304 l 420 -61 "},"ŗ":{"ha":576,"x_min":0,"x_max":0,"o":"m 419 671 b 540 649 467 671 506 665 l 515 547 b 401 573 483 564 440 573 b 225 368 299 573 225 492 l 225 0 l 122 0 l 122 658 l 224 658 l 224 565 b 419 671 269 633 339 671 m 240 -61 l 189 -304 l 97 -304 l 126 -61 "},"Ř":{"ha":940,"x_min":0,"x_max":0,"o":"m 522 972 b 861 698 740 972 861 874 b 523 423 861 530 731 423 l 507 423 l 856 0 l 717 0 l 375 423 l 252 423 l 252 0 l 140 0 l 140 972 m 252 867 l 252 524 l 520 524 b 745 698 668 524 745 585 b 520 867 745 810 666 867 m 339 1246 l 460 1115 l 581 1246 l 692 1246 l 530 1046 l 391 1046 l 228 1246 "},"ř":{"ha":576,"x_min":0,"x_max":0,"o":"m 419 671 b 540 649 467 671 506 665 l 515 547 b 401 573 483 564 440 573 b 225 368 299 573 225 492 l 225 0 l 122 0 l 122 658 l 224 658 l 224 565 b 419 671 269 633 339 671 m 208 958 l 330 826 l 451 958 l 562 958 l 399 758 l 260 758 l 97 958 "},"Ś":{"ha":935,"x_min":0,"x_max":0,"o":"m 775 788 b 482 879 697 842 599 879 b 231 703 335 879 231 813 b 455 546 231 613 303 564 l 547 535 b 851 279 708 515 851 447 b 466 -13 851 87 676 -13 b 84 112 325 -13 176 37 l 145 201 b 465 92 213 144 339 92 b 735 269 616 92 735 153 b 499 428 735 364 653 411 l 401 440 b 115 697 235 458 115 535 b 483 985 115 881 279 985 b 832 878 631 985 742 941 m 397 1047 l 542 1255 l 674 1255 l 500 1047 "},"ś":{"ha":685,"x_min":0,"x_max":0,"o":"m 563 518 b 348 580 521 547 437 580 b 192 476 254 580 192 540 b 326 384 192 422 240 394 l 404 374 b 625 191 544 356 625 299 b 335 -12 625 66 513 -12 b 61 72 251 -12 144 8 l 109 149 b 337 78 159 110 226 78 b 518 184 448 78 518 115 b 381 280 518 237 474 269 l 302 289 b 85 471 154 307 85 373 b 347 670 85 595 190 670 b 608 599 451 670 545 641 m 267 758 l 412 967 l 544 967 l 369 758 "},"Ŝ":{"ha":935,"x_min":0,"x_max":0,"o":"m 775 788 b 482 879 697 842 599 879 b 231 703 335 879 231 813 b 455 546 231 613 303 564 l 547 535 b 851 279 708 515 851 447 b 466 -13 851 87 676 -13 b 84 112 325 -13 176 37 l 145 201 b 465 92 213 144 339 92 b 735 269 616 92 735 153 b 499 428 735 364 653 411 l 401 440 b 115 697 235 458 115 535 b 483 985 115 881 279 985 b 832 878 631 985 742 941 m 616 1047 l 495 1178 l 374 1047 l 263 1047 l 426 1247 l 565 1247 l 727 1047 "},"ŝ":{"ha":685,"x_min":0,"x_max":0,"o":"m 563 518 b 348 580 521 547 437 580 b 192 476 254 580 192 540 b 326 384 192 422 240 394 l 404 374 b 625 191 544 356 625 299 b 335 -12 625 66 513 -12 b 61 72 251 -12 144 8 l 109 149 b 337 78 159 110 226 78 b 518 184 448 78 518 115 b 381 280 518 237 474 269 l 302 289 b 85 471 154 307 85 373 b 347 670 85 595 190 670 b 608 599 451 670 545 641 m 478 759 l 357 890 l 235 759 l 124 759 l 288 959 l 426 959 l 589 759 "},"Ş":{"ha":935,"x_min":0,"x_max":0,"o":"m 775 788 b 482 879 697 842 599 879 b 231 703 335 879 231 813 b 455 546 231 613 303 564 l 547 535 b 851 279 708 515 851 447 b 535 -9 851 108 713 10 l 467 -224 l 354 -224 l 426 -12 b 84 112 297 -3 167 44 l 145 201 b 465 92 213 144 339 92 b 735 269 616 92 735 153 b 499 428 735 364 653 411 l 401 440 b 115 697 235 458 115 535 b 483 985 115 881 279 985 b 832 878 631 985 742 941 "},"ş":{"ha":685,"x_min":0,"x_max":0,"o":"m 563 518 b 348 580 521 547 437 580 b 192 476 254 580 192 540 b 326 384 192 422 240 394 l 404 374 b 625 191 544 356 625 299 b 410 -7 625 85 543 12 l 342 -224 l 234 -224 l 304 -11 b 61 72 226 -7 135 15 l 109 149 b 337 78 159 110 226 78 b 518 184 448 78 518 115 b 381 280 518 237 474 269 l 302 289 b 85 471 154 307 85 373 b 347 670 85 595 190 670 b 608 599 451 670 545 641 "},"Š":{"ha":935,"x_min":0,"x_max":0,"o":"m 775 788 b 482 879 697 842 599 879 b 231 703 335 879 231 813 b 455 546 231 613 303 564 l 547 535 b 851 279 708 515 851 447 b 466 -13 851 87 676 -13 b 84 112 325 -13 176 37 l 145 201 b 465 92 213 144 339 92 b 735 269 616 92 735 153 b 499 428 735 364 653 411 l 401 440 b 115 697 235 458 115 535 b 483 985 115 881 279 985 b 832 878 631 985 742 941 m 374 1246 l 495 1115 l 616 1246 l 727 1246 l 565 1046 l 426 1046 l 263 1246 "},"š":{"ha":685,"x_min":0,"x_max":0,"o":"m 563 518 b 348 580 521 547 437 580 b 192 476 254 580 192 540 b 326 384 192 422 240 394 l 404 374 b 625 191 544 356 625 299 b 335 -12 625 66 513 -12 b 61 72 251 -12 144 8 l 109 149 b 337 78 159 110 226 78 b 518 184 448 78 518 115 b 381 280 518 237 474 269 l 302 289 b 85 471 154 307 85 373 b 347 670 85 595 190 670 b 608 599 451 670 545 641 m 235 958 l 357 826 l 478 958 l 589 958 l 426 758 l 288 758 l 124 958 "},"Ţ":{"ha":842,"x_min":0,"x_max":0,"o":"m 814 867 l 476 867 l 476 0 l 474 0 l 404 -224 l 291 -224 l 367 0 l 365 0 l 365 867 l 28 867 l 28 972 l 814 972 "},"ţ":{"ha":629,"x_min":0,"x_max":0,"o":"m 568 564 l 284 564 l 284 232 b 415 84 284 129 338 84 b 553 131 465 84 515 103 l 601 52 b 440 -11 559 19 505 -5 l 373 -224 l 265 -224 l 337 -6 b 181 230 238 17 181 94 l 181 564 l 37 564 l 37 658 l 181 658 l 181 867 l 284 867 l 284 658 l 568 658 "},"Ť":{"ha":842,"x_min":0,"x_max":0,"o":"m 814 867 l 476 867 l 476 0 l 365 0 l 365 867 l 28 867 l 28 972 l 814 972 m 299 1246 l 421 1115 l 542 1246 l 653 1246 l 490 1046 l 351 1046 l 188 1246 "},"ť":{"ha":629,"x_min":0,"x_max":0,"o":"m 568 564 l 284 564 l 284 232 b 415 84 284 129 338 84 b 553 131 465 84 515 103 l 601 52 b 406 -13 552 15 487 -13 b 181 230 265 -13 181 65 l 181 564 l 37 564 l 37 658 l 181 658 l 181 867 l 284 867 l 284 658 l 568 658 m 372 730 l 376 1000 l 483 1000 l 459 730 "},"Ŧ":{"ha":842,"x_min":0,"x_max":0,"o":"m 697 437 l 476 437 l 476 0 l 365 0 l 365 437 l 144 437 l 144 542 l 365 542 l 365 867 l 28 867 l 28 972 l 814 972 l 814 867 l 476 867 l 476 542 l 697 542 "},"ŧ":{"ha":629,"x_min":0,"x_max":0,"o":"m 568 564 l 284 564 l 284 410 l 497 410 l 497 315 l 284 315 l 284 232 b 415 84 284 129 338 84 b 553 131 465 84 515 103 l 601 52 b 406 -13 552 15 487 -13 b 181 230 265 -13 181 65 l 181 315 l 42 315 l 42 410 l 181 410 l 181 564 l 37 564 l 37 658 l 181 658 l 181 867 l 284 867 l 284 658 l 568 658 "},"Ũ":{"ha":1053,"x_min":0,"x_max":0,"o":"m 927 381 b 526 -13 927 117 749 -13 b 126 381 304 -13 126 117 l 126 972 l 238 972 l 238 389 b 526 94 238 185 360 94 b 815 389 692 94 815 185 l 815 972 l 927 972 m 282 1145 b 434 1222 324 1197 368 1222 b 619 1167 528 1222 560 1167 b 709 1214 653 1167 679 1183 l 771 1155 b 619 1078 729 1103 684 1078 b 434 1133 526 1078 494 1133 b 343 1086 399 1133 373 1117 "},"ũ":{"ha":825,"x_min":0,"x_max":0,"o":"m 711 274 b 413 -13 711 79 571 -13 b 114 274 253 -13 114 79 l 114 658 l 217 658 l 217 284 b 413 84 217 148 300 84 b 607 284 525 84 607 148 l 607 658 l 711 658 m 174 857 b 326 934 215 908 260 934 b 510 879 419 934 451 879 b 601 926 545 879 571 894 l 663 867 b 510 790 621 815 576 790 b 326 845 417 790 385 845 b 235 798 291 845 265 829 "},"Ū":{"ha":1053,"x_min":0,"x_max":0,"o":"m 927 381 b 526 -13 927 117 749 -13 b 126 381 304 -13 126 117 l 126 972 l 238 972 l 238 389 b 526 94 238 185 360 94 b 815 389 692 94 815 185 l 815 972 l 927 972 m 319 1188 l 734 1188 l 734 1104 l 319 1104 "},"ū":{"ha":825,"x_min":0,"x_max":0,"o":"m 711 274 b 413 -13 711 79 571 -13 b 114 274 253 -13 114 79 l 114 658 l 217 658 l 217 284 b 413 84 217 148 300 84 b 607 284 525 84 607 148 l 607 658 l 711 658 m 205 900 l 620 900 l 620 816 l 205 816 "},"Ŭ":{"ha":1053,"x_min":0,"x_max":0,"o":"m 927 381 b 526 -13 927 117 749 -13 b 126 381 304 -13 126 117 l 126 972 l 238 972 l 238 389 b 526 94 238 185 360 94 b 815 389 692 94 815 185 l 815 972 l 927 972 m 373 1263 b 526 1130 399 1173 452 1130 b 681 1263 601 1130 654 1173 l 764 1237 b 526 1042 728 1109 642 1042 b 290 1237 411 1042 325 1109 "},"ŭ":{"ha":825,"x_min":0,"x_max":0,"o":"m 711 274 b 413 -13 711 79 571 -13 b 114 274 253 -13 114 79 l 114 658 l 217 658 l 217 284 b 413 84 217 148 300 84 b 607 284 525 84 607 148 l 607 658 l 711 658 m 259 974 b 413 842 285 885 338 842 b 567 974 488 842 540 885 l 650 949 b 413 754 615 821 528 754 b 176 949 297 754 211 821 "},"Ů":{"ha":1053,"x_min":0,"x_max":0,"o":"m 927 381 b 526 -13 927 117 749 -13 b 126 381 304 -13 126 117 l 126 972 l 238 972 l 238 389 b 526 94 238 185 360 94 b 815 389 692 94 815 185 l 815 972 l 927 972 m 526 1033 b 369 1189 440 1033 369 1103 b 526 1344 369 1274 440 1344 b 685 1189 613 1344 685 1274 b 526 1033 685 1103 613 1033 m 526 1099 b 615 1189 575 1099 615 1138 b 526 1278 615 1239 575 1278 b 438 1189 478 1278 438 1239 b 526 1099 438 1138 478 1099 "},"ů":{"ha":825,"x_min":0,"x_max":0,"o":"m 711 274 b 413 -13 711 79 571 -13 b 114 274 253 -13 114 79 l 114 658 l 217 658 l 217 284 b 413 84 217 148 300 84 b 607 284 525 84 607 148 l 607 658 l 711 658 m 412 744 b 254 901 326 744 254 815 b 412 1056 254 986 326 1056 b 570 901 499 1056 570 986 b 412 744 570 815 499 744 m 412 810 b 501 901 460 810 501 850 b 412 990 501 951 460 990 b 324 901 363 990 324 951 b 412 810 324 850 363 810 "},"Ű":{"ha":1053,"x_min":0,"x_max":0,"o":"m 927 381 b 526 -13 927 117 749 -13 b 126 381 304 -13 126 117 l 126 972 l 238 972 l 238 389 b 526 94 238 185 360 94 b 815 389 692 94 815 185 l 815 972 l 927 972 m 574 1047 l 723 1255 l 844 1255 l 678 1047 m 335 1047 l 474 1255 l 591 1255 l 441 1047 "},"ű":{"ha":825,"x_min":0,"x_max":0,"o":"m 711 274 b 413 -13 711 79 571 -13 b 114 274 253 -13 114 79 l 114 658 l 217 658 l 217 284 b 413 84 217 148 300 84 b 607 284 525 84 607 148 l 607 658 l 711 658 m 470 758 l 619 967 l 741 967 l 574 758 m 231 758 l 370 967 l 488 967 l 338 758 "},"Ų":{"ha":1053,"x_min":0,"x_max":0,"o":"m 833 -226 b 672 -288 790 -267 732 -288 b 490 -145 563 -288 490 -227 b 567 -12 490 -89 517 -47 b 526 -13 553 -12 540 -13 b 126 381 304 -13 126 117 l 126 972 l 238 972 l 238 389 b 526 94 238 185 360 94 b 815 389 692 94 815 185 l 815 972 l 927 972 l 927 381 b 734 31 927 206 849 92 b 592 -126 640 -18 592 -64 b 678 -199 592 -169 625 -199 b 777 -158 716 -199 749 -185 "},"ų":{"ha":825,"x_min":0,"x_max":0,"o":"m 685 -226 b 524 -288 642 -267 585 -288 b 343 -145 415 -288 343 -227 b 417 -13 343 -90 369 -48 l 413 -13 b 114 274 253 -13 114 79 l 114 658 l 217 658 l 217 284 b 413 84 217 148 300 84 b 607 284 525 84 607 148 l 607 658 l 711 658 l 711 274 b 565 19 711 145 650 64 b 444 -126 485 -24 444 -69 b 531 -199 444 -169 478 -199 b 630 -158 569 -199 601 -185 "},"Ŵ":{"ha":1526,"x_min":0,"x_max":0,"o":"m 1169 0 l 1032 0 l 763 824 l 493 0 l 356 0 l 40 972 l 157 972 l 426 126 l 701 972 l 827 972 l 1101 126 l 1371 972 l 1485 972 m 883 1047 l 763 1178 l 641 1047 l 530 1047 l 693 1247 l 832 1247 l 994 1047 "},"ŵ":{"ha":1185,"x_min":0,"x_max":0,"o":"m 848 108 l 1046 658 l 1153 658 l 910 0 l 788 0 l 591 547 l 395 0 l 274 0 l 31 658 l 142 658 l 338 108 l 534 658 l 651 658 m 713 759 l 592 890 l 471 759 l 360 759 l 523 959 l 662 959 l 824 759 "},"Ŷ":{"ha":894,"x_min":0,"x_max":0,"o":"m 503 408 l 503 0 l 392 0 l 392 409 l 8 972 l 141 972 l 449 511 l 756 972 l 886 972 m 569 1047 l 449 1178 l 327 1047 l 216 1047 l 379 1247 l 518 1247 l 681 1047 "},"ŷ":{"ha":732,"x_min":0,"x_max":0,"o":"m 186 -281 l 72 -281 l 317 142 l 15 658 l 131 658 l 376 245 l 608 658 l 722 658 m 490 759 l 369 890 l 248 759 l 137 759 l 300 959 l 439 959 l 601 759 "},"Ÿ":{"ha":894,"x_min":0,"x_max":0,"o":"m 503 408 l 503 0 l 392 0 l 392 409 l 8 972 l 141 972 l 449 511 l 756 972 l 886 972 m 308 1221 b 381 1147 349 1221 381 1188 b 308 1074 381 1105 349 1074 b 234 1147 266 1074 234 1105 b 308 1221 234 1188 266 1221 m 590 1221 b 663 1147 631 1221 663 1188 b 590 1074 663 1105 631 1074 b 517 1147 548 1074 517 1105 b 590 1221 517 1188 548 1221 "},"Ź":{"ha":913,"x_min":0,"x_max":0,"o":"m 826 886 l 233 106 l 828 106 l 828 0 l 84 0 l 84 86 l 678 867 l 91 867 l 91 972 l 826 972 m 361 1047 l 506 1255 l 638 1255 l 464 1047 "},"ź":{"ha":733,"x_min":0,"x_max":0,"o":"m 642 582 l 222 94 l 648 94 l 648 0 l 85 0 l 85 75 l 508 564 l 97 564 l 97 658 l 642 658 m 279 758 l 424 967 l 556 967 l 382 758 "},"Ż":{"ha":913,"x_min":0,"x_max":0,"o":"m 826 886 l 233 106 l 828 106 l 828 0 l 84 0 l 84 86 l 678 867 l 91 867 l 91 972 l 826 972 m 449 1225 b 526 1149 492 1225 526 1192 b 449 1074 526 1106 492 1074 b 374 1149 406 1074 374 1106 b 449 1225 374 1192 406 1225 "},"ż":{"ha":733,"x_min":0,"x_max":0,"o":"m 642 582 l 222 94 l 648 94 l 648 0 l 85 0 l 85 75 l 508 564 l 97 564 l 97 658 l 642 658 m 369 965 b 443 891 410 965 443 933 b 369 818 443 849 410 818 b 297 891 328 818 297 849 b 369 965 297 933 328 965 "},"Ž":{"ha":913,"x_min":0,"x_max":0,"o":"m 826 886 l 233 106 l 828 106 l 828 0 l 84 0 l 84 86 l 678 867 l 91 867 l 91 972 l 826 972 m 338 1246 l 459 1115 l 580 1246 l 691 1246 l 528 1046 l 390 1046 l 226 1246 "},"ž":{"ha":733,"x_min":0,"x_max":0,"o":"m 642 582 l 222 94 l 648 94 l 648 0 l 85 0 l 85 75 l 508 564 l 97 564 l 97 658 l 642 658 m 248 958 l 369 826 l 490 958 l 601 958 l 439 758 l 300 758 l 137 958 "},"ſ":{"ha":448,"x_min":0,"x_max":0,"o":"m 334 1013 b 514 964 408 1013 467 992 l 477 877 b 341 916 441 898 391 916 b 219 770 256 916 219 862 l 219 0 l 115 0 l 115 770 b 334 1013 115 910 178 1013 "},"Ə":{"ha":1126,"x_min":0,"x_max":0,"o":"m 551 985 b 1042 486 828 985 1042 776 b 562 -13 1042 197 833 -13 b 84 479 282 -13 84 193 b 86 537 84 499 85 517 l 924 537 b 552 878 901 738 747 878 b 234 727 417 878 314 820 l 156 803 b 551 985 256 915 385 985 m 563 94 b 924 433 750 94 901 232 l 206 433 b 563 94 217 237 365 94 "},"ƒ":{"ha":972,"x_min":0,"x_max":0,"o":"m 750 456 l 534 456 l 510 215 b 308 -12 497 78 440 -12 b 146 33 241 -12 188 6 l 181 116 b 301 81 213 97 258 81 b 409 215 371 81 401 132 l 433 456 l 252 456 l 252 551 l 443 551 l 464 758 b 666 985 478 894 534 985 b 828 940 733 985 786 966 l 792 856 b 672 891 761 876 717 891 b 565 758 603 891 573 840 l 544 551 l 750 551 "},"Ƶ":{"ha":913,"x_min":0,"x_max":0,"o":"m 734 434 l 482 434 l 233 106 l 828 106 l 828 0 l 84 0 l 84 86 l 351 438 l 178 438 l 178 540 l 430 540 l 678 867 l 91 867 l 91 972 l 826 972 l 826 886 l 560 537 l 734 537 "},"ƶ":{"ha":733,"x_min":0,"x_max":0,"o":"m 592 293 l 393 293 l 222 94 l 648 94 l 648 0 l 85 0 l 85 75 l 277 297 l 144 297 l 144 376 l 345 376 l 509 564 l 97 564 l 97 658 l 642 658 l 642 582 l 463 373 l 592 373 "},"Ǎ":{"ha":987,"x_min":0,"x_max":0,"o":"m 962 0 l 842 0 l 732 271 l 251 271 l 141 0 l 25 0 l 424 972 l 563 972 m 294 376 l 690 376 l 492 862 m 372 1246 l 494 1115 l 615 1246 l 726 1246 l 563 1046 l 424 1046 l 261 1246 "},"ǎ":{"ha":865,"x_min":0,"x_max":0,"o":"m 744 0 l 640 0 l 640 98 b 400 -13 588 31 508 -13 b 72 329 215 -13 72 131 b 400 671 72 526 215 671 b 640 560 508 671 588 626 l 640 658 l 744 658 m 413 574 b 177 329 272 574 177 465 b 413 84 177 193 273 84 b 647 329 549 84 647 190 b 413 574 647 468 549 574 m 303 958 l 424 826 l 545 958 l 656 958 l 494 758 l 355 758 l 192 958 "},"Ǐ":{"ha":392,"x_min":0,"x_max":0,"o":"m 252 0 l 140 0 l 140 972 l 252 972 m 74 1246 l 196 1115 l 317 1246 l 428 1246 l 265 1046 l 126 1046 l -37 1246 "},"ǐ":{"ha":347,"x_min":0,"x_max":0,"o":"m 226 0 l 122 0 l 122 658 l 226 658 m 52 958 l 174 826 l 294 958 l 406 958 l 243 758 l 104 758 l -59 958 "},"Ǒ":{"ha":1173,"x_min":0,"x_max":0,"o":"m 586 986 b 1088 486 876 986 1088 778 b 586 -14 1088 194 876 -14 b 84 486 297 -14 84 194 b 586 986 84 778 297 986 m 586 878 b 201 486 368 878 201 720 b 586 94 201 252 368 94 b 972 486 805 94 972 252 b 586 878 972 720 805 878 m 465 1246 l 586 1115 l 707 1246 l 818 1246 l 656 1046 l 517 1046 l 353 1246 "},"ǒ":{"ha":835,"x_min":0,"x_max":0,"o":"m 417 671 b 764 329 615 671 764 524 b 417 -13 764 134 615 -13 b 72 329 219 -13 72 134 b 417 671 72 524 219 671 m 417 574 b 177 329 281 574 177 471 b 417 84 177 187 281 84 b 658 329 553 84 658 187 b 417 574 658 471 553 574 m 296 958 l 417 826 l 538 958 l 649 958 l 487 758 l 348 758 l 185 958 "},"Ǔ":{"ha":1053,"x_min":0,"x_max":0,"o":"m 927 381 b 526 -13 927 117 749 -13 b 126 381 304 -13 126 117 l 126 972 l 238 972 l 238 389 b 526 94 238 185 360 94 b 815 389 692 94 815 185 l 815 972 l 927 972 m 405 1246 l 526 1115 l 647 1246 l 758 1246 l 596 1046 l 457 1046 l 294 1246 "},"ǔ":{"ha":825,"x_min":0,"x_max":0,"o":"m 711 274 b 413 -13 711 79 571 -13 b 114 274 253 -13 114 79 l 114 658 l 217 658 l 217 284 b 413 84 217 148 300 84 b 607 284 525 84 607 148 l 607 658 l 711 658 m 291 958 l 413 826 l 533 958 l 644 958 l 482 758 l 343 758 l 180 958 "},"Ǖ":{"ha":1053,"x_min":0,"x_max":0,"o":"m 927 381 b 526 -13 927 117 749 -13 b 126 381 304 -13 126 117 l 126 972 l 238 972 l 238 389 b 526 94 238 185 360 94 b 815 389 692 94 815 185 l 815 972 l 927 972 m 319 1420 l 734 1420 l 734 1336 l 319 1336 m 385 1221 b 459 1147 426 1221 459 1188 b 385 1074 459 1105 426 1074 b 312 1147 344 1074 312 1105 b 385 1221 312 1188 344 1221 m 667 1221 b 741 1147 708 1221 741 1188 b 667 1074 741 1105 708 1074 b 594 1147 626 1074 594 1105 b 667 1221 594 1188 626 1221 "},"ǖ":{"ha":825,"x_min":0,"x_max":0,"o":"m 711 274 b 413 -13 711 79 571 -13 b 114 274 253 -13 114 79 l 114 658 l 217 658 l 217 284 b 413 84 217 148 300 84 b 607 284 525 84 607 148 l 607 658 l 711 658 m 272 933 b 345 858 313 933 345 900 b 272 785 345 817 313 785 b 198 858 230 785 198 817 b 272 933 198 900 230 933 m 553 933 b 627 858 594 933 627 900 b 553 785 627 817 594 785 b 481 858 512 785 481 817 b 553 933 481 900 512 933 m 205 1133 l 620 1133 l 620 1049 l 205 1049 "},"Ǘ":{"ha":1053,"x_min":0,"x_max":0,"o":"m 927 381 b 526 -13 927 117 749 -13 b 126 381 304 -13 126 117 l 126 972 l 238 972 l 238 389 b 526 94 238 185 360 94 b 815 389 692 94 815 185 l 815 972 l 927 972 m 428 1324 l 574 1532 l 706 1532 l 531 1324 m 385 1221 b 459 1147 426 1221 459 1188 b 385 1074 459 1105 426 1074 b 312 1147 344 1074 312 1105 b 385 1221 312 1188 344 1221 m 667 1221 b 741 1147 708 1221 741 1188 b 667 1074 741 1105 708 1074 b 594 1147 626 1074 594 1105 b 667 1221 594 1188 626 1221 "},"ǘ":{"ha":825,"x_min":0,"x_max":0,"o":"m 711 274 b 413 -13 711 79 571 -13 b 114 274 253 -13 114 79 l 114 658 l 217 658 l 217 284 b 413 84 217 148 300 84 b 607 284 525 84 607 148 l 607 658 l 711 658 m 272 933 b 345 858 313 933 345 900 b 272 785 345 817 313 785 b 198 858 230 785 198 817 b 272 933 198 900 230 933 m 553 933 b 627 858 594 933 627 900 b 553 785 627 817 594 785 b 481 858 512 785 481 817 b 553 933 481 900 512 933 m 315 1036 l 460 1244 l 592 1244 l 417 1036 "},"Ǚ":{"ha":1053,"x_min":0,"x_max":0,"o":"m 927 381 b 526 -13 927 117 749 -13 b 126 381 304 -13 126 117 l 126 972 l 238 972 l 238 389 b 526 94 238 185 360 94 b 815 389 692 94 815 185 l 815 972 l 927 972 m 405 1523 l 526 1392 l 647 1523 l 758 1523 l 596 1323 l 457 1323 l 294 1523 m 385 1221 b 459 1147 426 1221 459 1188 b 385 1074 459 1105 426 1074 b 312 1147 344 1074 312 1105 b 385 1221 312 1188 344 1221 m 667 1221 b 741 1147 708 1221 741 1188 b 667 1074 741 1105 708 1074 b 594 1147 626 1074 594 1105 b 667 1221 594 1188 626 1221 "},"ǚ":{"ha":825,"x_min":0,"x_max":0,"o":"m 711 274 b 413 -13 711 79 571 -13 b 114 274 253 -13 114 79 l 114 658 l 217 658 l 217 284 b 413 84 217 148 300 84 b 607 284 525 84 607 148 l 607 658 l 711 658 m 272 933 b 345 858 313 933 345 900 b 272 785 345 817 313 785 b 198 858 230 785 198 817 b 272 933 198 900 230 933 m 553 933 b 627 858 594 933 627 900 b 553 785 627 817 594 785 b 481 858 512 785 481 817 b 553 933 481 900 512 933 m 291 1235 l 413 1104 l 533 1235 l 644 1235 l 482 1035 l 343 1035 l 180 1235 "},"Ǜ":{"ha":1053,"x_min":0,"x_max":0,"o":"m 927 381 b 526 -13 927 117 749 -13 b 126 381 304 -13 126 117 l 126 972 l 238 972 l 238 389 b 526 94 238 185 360 94 b 815 389 692 94 815 185 l 815 972 l 927 972 m 340 1532 l 472 1532 l 617 1324 l 515 1324 m 385 1221 b 459 1147 426 1221 459 1188 b 385 1074 459 1105 426 1074 b 312 1147 344 1074 312 1105 b 385 1221 312 1188 344 1221 m 667 1221 b 741 1147 708 1221 741 1188 b 667 1074 741 1105 708 1074 b 594 1147 626 1074 594 1105 b 667 1221 594 1188 626 1221 "},"ǜ":{"ha":825,"x_min":0,"x_max":0,"o":"m 711 274 b 413 -13 711 79 571 -13 b 114 274 253 -13 114 79 l 114 658 l 217 658 l 217 284 b 413 84 217 148 300 84 b 607 284 525 84 607 148 l 607 658 l 711 658 m 272 933 b 345 858 313 933 345 900 b 272 785 345 817 313 785 b 198 858 230 785 198 817 b 272 933 198 900 230 933 m 553 933 b 627 858 594 933 627 900 b 553 785 627 817 594 785 b 481 858 512 785 481 817 b 553 933 481 900 512 933 m 226 1244 l 358 1244 l 503 1036 l 401 1036 "},"Ǣ":{"ha":1585,"x_min":0,"x_max":0,"o":"m 1474 0 l 790 0 l 790 253 l 347 253 l 155 0 l 20 0 l 759 972 l 1467 972 l 1467 867 l 901 867 l 901 542 l 1450 542 l 1450 438 l 901 438 l 901 105 l 1474 105 m 790 359 l 790 838 l 426 359 m 851 1188 l 1267 1188 l 1267 1104 l 851 1104 "},"ǣ":{"ha":1250,"x_min":0,"x_max":0,"o":"m 869 670 b 1178 331 1048 670 1176 531 b 1176 292 1178 317 1177 304 l 649 292 b 882 78 664 151 763 78 b 1090 160 963 78 1035 110 l 1145 90 b 876 -13 1064 11 972 -13 b 606 116 760 -13 665 35 b 326 -13 547 43 453 -13 b 72 185 167 -13 72 69 b 342 378 72 298 167 378 l 544 378 l 544 383 b 348 577 544 515 473 577 b 158 511 268 577 205 546 l 109 588 b 361 671 183 644 268 671 b 611 533 480 671 569 631 b 869 670 664 617 760 670 m 342 78 b 566 192 424 78 511 121 b 544 292 554 223 547 256 l 353 292 b 182 185 228 292 182 244 b 342 78 182 126 237 78 m 867 578 b 651 376 746 578 667 494 l 1072 376 b 867 578 1060 499 978 578 m 414 900 l 829 900 l 829 816 l 414 816 "},"Ǧ":{"ha":1138,"x_min":0,"x_max":0,"o":"m 586 986 b 963 823 740 986 874 925 l 881 744 b 586 878 812 827 707 878 b 201 486 368 878 201 720 b 581 94 201 252 368 94 b 931 415 787 94 914 216 l 628 415 l 628 519 l 1052 519 b 1053 491 1053 510 1053 500 b 581 -13 1053 208 874 -13 b 84 486 326 -13 84 172 b 586 986 84 778 299 986 m 449 1246 l 571 1115 l 692 1246 l 803 1246 l 640 1046 l 501 1046 l 338 1246 "},"ǧ":{"ha":858,"x_min":0,"x_max":0,"o":"m 397 671 b 632 559 503 671 582 627 l 632 658 l 736 658 l 736 45 b 388 -288 736 -169 592 -288 b 111 -200 283 -288 178 -256 l 157 -117 b 388 -194 219 -164 299 -194 b 632 41 531 -194 632 -112 l 632 108 b 397 -3 582 40 503 -3 b 72 334 213 -3 72 135 b 397 671 72 533 213 671 m 409 574 b 177 334 269 574 177 467 b 409 94 177 201 269 94 b 641 334 544 94 641 197 b 409 574 641 469 544 574 m 298 958 l 419 826 l 540 958 l 651 958 l 489 758 l 350 758 l 187 958 "},"Ǻ":{"ha":987,"x_min":0,"x_max":0,"o":"m 25 0 l 409 936 b 334 1069 364 963 334 1013 b 492 1224 334 1154 406 1224 b 650 1069 578 1224 650 1154 b 577 938 650 1014 621 965 l 962 0 l 842 0 l 732 271 l 251 271 l 141 0 m 294 376 l 690 376 l 492 863 m 492 978 b 581 1069 540 978 581 1018 b 492 1158 581 1119 540 1158 b 403 1069 443 1158 403 1119 b 492 978 403 1018 443 978 m 394 1266 l 539 1474 l 671 1474 l 497 1266 "},"ǻ":{"ha":865,"x_min":0,"x_max":0,"o":"m 744 0 l 640 0 l 640 98 b 400 -13 588 31 508 -13 b 72 329 215 -13 72 131 b 400 671 72 526 215 671 b 640 560 508 671 588 626 l 640 658 l 744 658 m 413 574 b 177 329 272 574 177 465 b 413 84 177 193 273 84 b 647 329 549 84 647 190 b 413 574 647 468 549 574 m 413 721 b 256 877 327 721 256 791 b 413 1033 256 963 327 1033 b 572 877 500 1033 572 963 b 413 721 572 791 500 721 m 413 787 b 502 877 462 787 502 826 b 413 967 502 927 462 967 b 325 877 365 967 325 927 b 413 787 325 826 365 787 m 316 1073 l 461 1281 l 593 1281 l 419 1073 "},"Ǽ":{"ha":1585,"x_min":0,"x_max":0,"o":"m 1474 0 l 790 0 l 790 253 l 347 253 l 155 0 l 20 0 l 759 972 l 1467 972 l 1467 867 l 901 867 l 901 542 l 1450 542 l 1450 438 l 901 438 l 901 105 l 1474 105 m 790 359 l 790 838 l 426 359 m 961 1047 l 1106 1255 l 1238 1255 l 1064 1047 "},"ǽ":{"ha":1250,"x_min":0,"x_max":0,"o":"m 869 670 b 1178 331 1048 670 1176 531 b 1176 292 1178 317 1177 304 l 649 292 b 882 78 664 151 763 78 b 1090 160 963 78 1035 110 l 1145 90 b 876 -13 1064 11 972 -13 b 606 116 760 -13 665 35 b 326 -13 547 43 453 -13 b 72 185 167 -13 72 69 b 342 378 72 298 167 378 l 544 378 l 544 383 b 348 577 544 515 473 577 b 158 511 268 577 205 546 l 109 588 b 361 671 183 644 268 671 b 611 533 480 671 569 631 b 869 670 664 617 760 670 m 342 78 b 566 192 424 78 511 121 b 544 292 554 223 547 256 l 353 292 b 182 185 228 292 182 244 b 342 78 182 126 237 78 m 867 578 b 651 376 746 578 667 494 l 1072 376 b 867 578 1060 499 978 578 m 531 758 l 676 967 l 808 967 l 634 758 "},"Ǿ":{"ha":1173,"x_min":0,"x_max":0,"o":"m 586 986 b 906 880 710 986 821 947 l 1012 985 l 1085 912 l 980 806 b 1088 486 1048 722 1088 612 b 586 -14 1088 194 876 -14 b 266 92 461 -14 351 25 l 161 -12 l 87 60 l 192 165 b 84 486 124 250 84 360 b 586 986 84 778 297 986 m 972 486 b 899 725 972 580 944 661 l 346 172 b 586 94 410 122 494 94 b 972 486 805 94 972 252 m 586 878 b 201 486 368 878 201 720 b 274 247 201 392 228 311 l 826 800 b 586 878 761 850 678 878 m 488 1047 l 633 1255 l 765 1255 l 591 1047 "},"ǿ":{"ha":835,"x_min":0,"x_max":0,"o":"m 417 671 b 630 603 499 671 572 646 l 707 680 l 769 617 l 693 541 b 764 329 738 483 764 410 b 417 -13 764 134 615 -13 b 206 54 336 -13 264 11 l 129 -23 l 66 39 l 142 115 b 72 329 97 173 72 247 b 417 671 72 524 219 671 m 417 574 b 177 329 281 574 177 471 b 217 190 177 276 192 228 l 558 531 b 417 574 518 558 470 574 m 658 329 b 619 467 658 381 643 428 l 278 126 b 417 84 317 99 365 84 b 658 329 553 84 658 187 m 327 758 l 472 967 l 604 967 l 430 758 "},"Ș":{"ha":935,"x_min":0,"x_max":0,"o":"m 775 788 b 482 879 697 842 599 879 b 231 703 335 879 231 813 b 455 546 231 613 303 564 l 547 535 b 851 279 708 515 851 447 b 466 -13 851 87 676 -13 b 84 112 325 -13 176 37 l 145 201 b 465 92 213 144 339 92 b 735 269 616 92 735 153 b 499 428 735 364 653 411 l 401 440 b 115 697 235 458 115 535 b 483 985 115 881 279 985 b 832 878 631 985 742 941 m 556 -61 l 504 -304 l 413 -304 l 442 -61 "},"ș":{"ha":685,"x_min":0,"x_max":0,"o":"m 563 518 b 348 580 521 547 437 580 b 192 476 254 580 192 540 b 326 384 192 422 240 394 l 404 374 b 625 191 544 356 625 299 b 335 -12 625 66 513 -12 b 61 72 251 -12 144 8 l 109 149 b 337 78 159 110 226 78 b 518 184 448 78 518 115 b 381 280 518 237 474 269 l 302 289 b 85 471 154 307 85 373 b 347 670 85 595 190 670 b 608 599 451 670 545 641 m 418 -61 l 367 -304 l 275 -304 l 304 -61 "},"Ț":{"ha":842,"x_min":0,"x_max":0,"o":"m 814 867 l 476 867 l 476 0 l 365 0 l 365 867 l 28 867 l 28 972 l 814 972 m 492 -61 l 441 -304 l 349 -304 l 378 -61 "},"ț":{"ha":629,"x_min":0,"x_max":0,"o":"m 568 564 l 284 564 l 284 232 b 415 84 284 129 338 84 b 553 131 465 84 515 103 l 601 52 b 406 -13 552 15 487 -13 b 181 230 265 -13 181 65 l 181 564 l 37 564 l 37 658 l 181 658 l 181 867 l 284 867 l 284 658 l 568 658 m 449 -61 l 397 -304 l 306 -304 l 335 -61 "},"Ȳ":{"ha":894,"x_min":0,"x_max":0,"o":"m 503 408 l 503 0 l 392 0 l 392 409 l 8 972 l 141 972 l 449 511 l 756 972 l 886 972 m 241 1188 l 656 1188 l 656 1104 l 241 1104 "},"ȳ":{"ha":732,"x_min":0,"x_max":0,"o":"m 186 -281 l 72 -281 l 317 142 l 15 658 l 131 658 l 376 245 l 608 658 l 722 658 m 162 900 l 577 900 l 577 816 l 162 816 "},"ȷ":{"ha":350,"x_min":0,"x_max":0,"o":"m 228 -108 b 65 -288 228 -225 164 -288 b -30 -266 31 -288 -6 -279 l -5 -176 b 56 -190 12 -185 33 -190 b 124 -103 98 -190 124 -164 l 124 658 l 228 658 "},"ə":{"ha":778,"x_min":0,"x_max":0,"o":"m 381 -13 b 72 326 202 -13 73 126 b 74 365 72 340 72 353 l 601 365 b 368 580 586 507 487 580 b 156 494 285 580 213 547 l 104 568 b 374 671 186 647 278 671 b 707 329 569 671 707 533 b 381 -13 707 128 568 -13 m 383 79 b 599 281 504 79 583 163 l 177 281 b 383 79 190 158 271 79 "},"ʻ":{"ha":343,"x_min":0,"x_max":0,"o":"m 92 648 l 165 1000 l 255 1000 l 213 648 "},"ʼ":{"ha":343,"x_min":0,"x_max":0,"o":"m 251 1000 l 178 648 l 88 648 l 130 1000 "},"ʾ":{"ha":375,"x_min":0,"x_max":0,"o":"m 99 614 b 241 763 176 614 241 681 b 99 913 241 847 176 913 l 99 1009 b 342 763 233 1009 342 900 b 99 518 342 628 233 518 "},"ʿ":{"ha":375,"x_min":0,"x_max":0,"o":"m 276 913 b 134 764 199 913 134 847 b 276 614 134 680 199 614 l 276 518 b 33 764 142 518 33 627 b 276 1009 33 899 142 1009 "},"ˆ":{"ha":652,"x_min":0,"x_max":0,"o":"m 447 759 l 326 890 l 205 759 l 94 759 l 256 959 l 395 959 l 558 759 "},"ˇ":{"ha":652,"x_min":0,"x_max":0,"o":"m 205 958 l 326 826 l 447 958 l 558 958 l 396 758 l 257 758 l 94 958 "},"˘":{"ha":652,"x_min":0,"x_max":0,"o":"m 172 974 b 326 842 199 885 252 842 b 480 974 401 842 453 885 l 563 949 b 326 754 528 822 442 754 b 89 949 210 754 124 822 "},"˙":{"ha":390,"x_min":0,"x_max":0,"o":"m 194 965 b 268 891 235 965 268 933 b 194 818 268 849 235 818 b 122 891 153 818 122 849 b 194 965 122 933 153 965 "},"˚":{"ha":652,"x_min":0,"x_max":0,"o":"m 326 744 b 169 901 240 744 169 815 b 326 1056 169 986 240 1056 b 485 901 413 1056 485 986 b 326 744 485 815 413 744 m 326 810 b 415 901 375 810 415 850 b 326 990 415 951 375 990 b 238 901 278 990 238 951 b 326 810 238 850 278 810 "},"˛":{"ha":756,"x_min":0,"x_max":0,"o":"m 629 -226 b 468 -288 586 -267 528 -288 b 290 -136 361 -288 290 -227 b 500 72 290 -39 372 19 l 546 13 b 388 -126 438 -31 388 -71 b 474 -199 388 -169 422 -199 b 574 -158 513 -199 545 -185 "},"˜":{"ha":652,"x_min":0,"x_max":0,"o":"m 82 857 b 234 934 124 908 168 934 b 419 879 328 934 360 879 b 509 926 453 879 479 894 l 571 867 b 419 790 529 815 484 790 b 234 845 326 790 294 845 b 143 798 199 845 173 829 "},"˝":{"ha":652,"x_min":0,"x_max":0,"o":"m 321 758 l 466 967 l 597 967 l 423 758 m 55 758 l 200 967 l 331 967 l 157 758 "},"̀":{"ha":1,"x_min":0,"x_max":0,"o":"m -613 967 l -482 967 l -336 758 l -439 758 "},"́":{"ha":1,"x_min":0,"x_max":0,"o":"m -508 758 l -363 967 l -231 967 l -406 758 "},"̂":{"ha":1,"x_min":0,"x_max":0,"o":"m -297 759 l -418 890 l -540 759 l -651 759 l -487 959 l -349 959 l -186 759 "},"̃":{"ha":1,"x_min":0,"x_max":0,"o":"m -657 857 b -505 934 -615 908 -571 934 b -320 879 -411 934 -379 879 b -230 926 -285 879 -260 894 l -168 867 b -320 790 -210 815 -255 790 b -505 845 -413 790 -445 845 b -596 798 -540 845 -566 829 "},"̄":{"ha":1,"x_min":0,"x_max":0,"o":"m -626 900 l -210 900 l -210 816 l -626 816 "},"̆":{"ha":1,"x_min":0,"x_max":0,"o":"m -572 974 b -418 842 -545 885 -492 842 b -264 974 -343 842 -290 885 l -181 949 b -418 754 -216 821 -302 754 b -655 949 -533 754 -619 821 "},"̇":{"ha":1,"x_min":0,"x_max":0,"o":"m -418 965 b -344 891 -377 965 -344 933 b -418 818 -344 849 -377 818 b -491 891 -460 818 -491 849 b -418 965 -491 933 -460 965 "},"̈":{"ha":1,"x_min":0,"x_max":0,"o":"m -559 933 b -485 858 -518 933 -485 900 b -559 785 -485 817 -518 785 b -633 858 -601 785 -633 817 b -559 933 -633 900 -601 933 m -277 933 b -203 858 -236 933 -203 900 b -277 785 -203 817 -236 785 b -350 858 -319 785 -350 817 b -277 933 -350 900 -319 933 "},"̊":{"ha":1,"x_min":0,"x_max":0,"o":"m -419 744 b -576 901 -505 744 -576 815 b -419 1056 -576 986 -505 1056 b -260 901 -332 1056 -260 986 b -419 744 -260 815 -332 744 m -419 810 b -330 901 -370 810 -330 850 b -419 990 -330 951 -370 990 b -507 901 -467 990 -507 951 b -419 810 -507 850 -467 810 "},"̋":{"ha":1,"x_min":0,"x_max":0,"o":"m -360 758 l -211 967 l -90 967 l -256 758 m -599 758 l -460 967 l -343 967 l -493 758 "},"̌":{"ha":1,"x_min":0,"x_max":0,"o":"m -540 958 l -418 826 l -297 958 l -186 958 l -349 758 l -487 758 l -651 958 "},"̒":{"ha":1,"x_min":0,"x_max":0,"o":"m -481 758 l -430 1002 l -338 1002 l -367 758 "},"̣":{"ha":1,"x_min":0,"x_max":0,"o":"m -417 -110 b -344 -184 -376 -110 -344 -142 b -417 -257 -344 -226 -376 -257 b -490 -184 -459 -257 -490 -226 b -417 -110 -490 -142 -459 -110 "},"̦":{"ha":1,"x_min":0,"x_max":0,"o":"m -351 -61 l -403 -304 l -494 -304 l -465 -61 "},"̧":{"ha":1,"x_min":0,"x_max":0,"o":"m -399 -224 l -507 -224 l -431 4 l -327 3 "},"̨":{"ha":1,"x_min":0,"x_max":0,"o":"m -246 -226 b -407 -288 -289 -267 -347 -288 b -588 -145 -516 -288 -588 -227 b -356 63 -588 -44 -501 10 l -346 32 b -487 -126 -439 -19 -487 -64 b -401 -199 -487 -169 -453 -199 b -301 -158 -362 -199 -330 -185 "},"̮":{"ha":1,"x_min":0,"x_max":0,"o":"m -572 -69 b -417 -202 -545 -159 -492 -202 b -264 -69 -343 -202 -290 -159 l -181 -94 b -417 -290 -216 -222 -301 -290 b -655 -94 -533 -290 -619 -222 "},"̱":{"ha":1,"x_min":0,"x_max":0,"o":"m -624 -140 l -209 -140 l -209 -225 l -624 -225 "},"̵":{"ha":1,"x_min":0,"x_max":0,"o":"m -168 320 l -667 320 l -667 415 l -168 415 "},"̶":{"ha":1,"x_min":0,"x_max":0,"o":"m 103 320 l -937 320 l -937 415 l 103 415 "},"Δ":{"ha":981,"x_min":0,"x_max":0,"o":"m 924 86 l 924 0 l 56 0 l 56 86 l 422 974 l 559 974 m 182 106 l 799 106 l 490 860 "},"Ω":{"ha":1194,"x_min":0,"x_max":0,"o":"m 294 106 b 95 483 173 185 95 319 b 597 986 95 776 308 986 b 1099 483 886 986 1099 776 b 900 106 1099 319 1022 185 l 1138 106 l 1138 0 l 720 0 l 720 91 b 983 478 875 140 983 284 b 597 878 983 717 816 878 b 212 478 378 878 212 717 b 474 91 212 284 319 140 l 474 0 l 56 0 l 56 106 "},"μ":{"ha":834,"x_min":0,"x_max":0,"o":"m 114 -278 l 114 658 l 217 658 l 217 284 b 407 85 217 159 287 85 b 608 287 517 85 608 162 l 608 658 l 713 658 l 713 0 l 610 0 l 610 94 b 388 -13 556 15 469 -13 b 217 51 321 -13 256 10 l 217 -278 "},"π":{"ha":834,"x_min":0,"x_max":0,"o":"m 720 0 l 616 0 l 616 564 l 226 564 l 226 0 l 122 0 l 122 658 l 720 658 "},"Ḍ":{"ha":1110,"x_min":0,"x_max":0,"o":"m 506 972 b 1025 486 824 972 1025 783 b 506 0 1025 190 824 0 l 140 0 l 140 972 m 252 867 l 252 106 l 506 106 b 908 486 769 106 908 258 b 506 867 908 715 769 867 m 528 -110 b 602 -184 569 -110 602 -142 b 528 -257 602 -226 569 -257 b 456 -184 487 -257 456 -226 b 528 -110 456 -142 487 -110 "},"ḍ":{"ha":865,"x_min":0,"x_max":0,"o":"m 400 671 b 640 560 508 671 588 626 l 640 1000 l 744 1000 l 744 0 l 640 0 l 640 98 b 400 -13 588 31 508 -13 b 72 329 215 -13 72 131 b 400 671 72 526 215 671 m 413 574 b 177 329 272 574 177 465 b 413 84 177 193 273 84 b 647 329 549 84 647 190 b 413 574 647 468 549 574 m 428 -110 b 502 -184 469 -110 502 -142 b 428 -257 502 -226 469 -257 b 356 -184 387 -257 356 -226 b 428 -110 356 -142 387 -110 "},"Ḏ":{"ha":1110,"x_min":0,"x_max":0,"o":"m 506 972 b 1025 486 824 972 1025 783 b 506 0 1025 190 824 0 l 140 0 l 140 972 m 252 867 l 252 106 l 506 106 b 908 486 769 106 908 258 b 506 867 908 715 769 867 m 322 -140 l 738 -140 l 738 -225 l 322 -225 "},"ḏ":{"ha":865,"x_min":0,"x_max":0,"o":"m 400 671 b 640 560 508 671 588 626 l 640 1000 l 744 1000 l 744 0 l 640 0 l 640 98 b 400 -13 588 31 508 -13 b 72 329 215 -13 72 131 b 400 671 72 526 215 671 m 413 574 b 177 329 272 574 177 465 b 413 84 177 193 273 84 b 647 329 549 84 647 190 b 413 574 647 468 549 574 m 222 -140 l 637 -140 l 637 -225 l 222 -225 "},"Ḥ":{"ha":1092,"x_min":0,"x_max":0,"o":"m 252 542 l 840 542 l 840 972 l 952 972 l 952 0 l 840 0 l 840 437 l 252 437 l 252 0 l 140 0 l 140 972 l 252 972 m 545 -110 b 619 -184 586 -110 619 -142 b 545 -257 619 -226 586 -257 b 472 -184 503 -257 472 -226 b 545 -110 472 -142 503 -110 "},"ḥ":{"ha":834,"x_min":0,"x_max":0,"o":"m 226 566 b 446 671 280 642 366 671 b 720 408 608 671 720 567 l 720 0 l 617 0 l 617 374 b 427 572 617 499 547 572 b 226 371 317 572 226 496 l 226 0 l 122 0 l 122 1000 l 226 1000 m 422 -110 b 495 -184 463 -110 495 -142 b 422 -257 495 -226 463 -257 b 349 -184 380 -257 349 -226 b 422 -110 349 -142 380 -110 "},"Ḩ":{"ha":1092,"x_min":0,"x_max":0,"o":"m 252 542 l 840 542 l 840 972 l 952 972 l 952 0 l 840 0 l 840 437 l 252 437 l 252 0 l 249 0 l 179 -224 l 66 -224 l 142 0 l 140 0 l 140 972 l 252 972 "},"ḩ":{"ha":834,"x_min":0,"x_max":0,"o":"m 226 566 b 446 671 280 642 366 671 b 720 408 608 671 720 567 l 720 0 l 617 0 l 617 374 b 427 572 617 499 547 572 b 226 371 317 572 226 496 l 226 0 l 224 0 l 154 -224 l 46 -224 l 123 0 l 122 0 l 122 1000 l 226 1000 "},"Ḫ":{"ha":1092,"x_min":0,"x_max":0,"o":"m 252 542 l 840 542 l 840 972 l 952 972 l 952 0 l 840 0 l 840 437 l 252 437 l 252 0 l 140 0 l 140 972 l 252 972 m 392 -69 b 546 -202 418 -159 472 -202 b 699 -69 620 -202 673 -159 l 783 -94 b 546 -290 747 -222 662 -290 b 308 -94 430 -290 344 -222 "},"ḫ":{"ha":834,"x_min":0,"x_max":0,"o":"m 226 566 b 446 671 280 642 366 671 b 720 408 608 671 720 567 l 720 0 l 617 0 l 617 374 b 427 572 617 499 547 572 b 226 371 317 572 226 496 l 226 0 l 122 0 l 122 1000 l 226 1000 m 267 -69 b 422 -202 294 -159 347 -202 b 575 -69 496 -202 549 -159 l 658 -94 b 422 -290 623 -222 538 -290 b 184 -94 306 -290 219 -222 "},"Ḳ":{"ha":964,"x_min":0,"x_max":0,"o":"m 367 436 l 252 436 l 252 0 l 140 0 l 140 972 l 252 972 l 252 542 l 369 542 l 773 972 l 917 972 l 460 495 l 947 0 l 795 0 m 481 -110 b 555 -184 522 -110 555 -142 b 481 -257 555 -226 522 -257 b 408 -184 440 -257 408 -226 b 481 -110 408 -142 440 -110 "},"ḳ":{"ha":735,"x_min":0,"x_max":0,"o":"m 226 391 l 321 391 l 574 658 l 704 658 l 406 348 l 709 0 l 578 0 l 320 297 l 226 297 l 226 0 l 122 0 l 122 1000 l 226 1000 m 388 -110 b 462 -184 429 -110 462 -142 b 388 -257 462 -226 429 -257 b 315 -184 347 -257 315 -226 b 388 -110 315 -142 347 -110 "},"Ḷ":{"ha":842,"x_min":0,"x_max":0,"o":"m 815 0 l 140 0 l 140 972 l 252 972 l 252 106 l 815 106 m 470 -110 b 544 -184 511 -110 544 -142 b 470 -257 544 -226 511 -257 b 397 -184 428 -257 397 -226 b 470 -110 397 -142 428 -110 "},"ḷ":{"ha":347,"x_min":0,"x_max":0,"o":"m 226 0 l 122 0 l 122 1000 l 226 1000 m 174 -110 b 247 -184 215 -110 247 -142 b 174 -257 247 -226 215 -257 b 101 -184 132 -257 101 -226 b 174 -110 101 -142 132 -110 "},"Ḹ":{"ha":842,"x_min":0,"x_max":0,"o":"m 815 0 l 140 0 l 140 972 l 252 972 l 252 106 l 815 106 m 470 -110 b 544 -184 511 -110 544 -142 b 470 -257 544 -226 511 -257 b 397 -184 428 -257 397 -226 b 470 -110 397 -142 428 -110 m -12 1188 l 403 1188 l 403 1104 l -12 1104 "},"ḹ":{"ha":347,"x_min":0,"x_max":0,"o":"m 226 0 l 122 0 l 122 1000 l 226 1000 m -47 1202 l 369 1202 l 369 1118 l -47 1118 m 174 -110 b 247 -184 215 -110 247 -142 b 174 -257 247 -226 215 -257 b 101 -184 132 -257 101 -226 b 174 -110 101 -142 132 -110 "},"Ḻ":{"ha":842,"x_min":0,"x_max":0,"o":"m 815 0 l 140 0 l 140 972 l 252 972 l 252 106 l 815 106 m 264 -140 l 679 -140 l 679 -225 l 264 -225 "},"ḻ":{"ha":347,"x_min":0,"x_max":0,"o":"m 226 0 l 122 0 l 122 1000 l 226 1000 m -33 -140 l 382 -140 l 382 -225 l -33 -225 "},"Ṁ":{"ha":1299,"x_min":0,"x_max":0,"o":"m 1158 0 l 1047 0 l 1047 847 l 708 108 l 590 108 l 252 842 l 252 0 l 140 0 l 140 972 l 310 972 l 649 238 l 988 972 l 1158 972 m 640 1225 b 716 1149 682 1225 716 1192 b 640 1074 716 1106 682 1074 b 564 1149 597 1074 564 1106 b 640 1225 564 1192 597 1225 "},"ṁ":{"ha":1329,"x_min":0,"x_max":0,"o":"m 940 671 b 1215 408 1103 671 1215 567 l 1215 0 l 1112 0 l 1112 374 b 922 572 1112 499 1042 572 b 720 371 811 572 720 496 l 720 0 l 617 0 l 617 374 b 427 572 617 499 547 572 b 226 371 317 572 226 496 l 226 0 l 122 0 l 122 658 l 224 658 l 224 564 b 446 671 278 642 365 671 b 692 533 560 671 650 619 b 940 671 745 635 848 671 m 669 972 b 742 899 710 972 742 940 b 669 826 742 857 710 826 b 596 899 627 826 596 857 b 669 972 596 940 627 972 "},"Ṃ":{"ha":1299,"x_min":0,"x_max":0,"o":"m 1158 0 l 1047 0 l 1047 847 l 708 108 l 590 108 l 252 842 l 252 0 l 140 0 l 140 972 l 310 972 l 649 238 l 988 972 l 1158 972 m 649 -110 b 722 -184 690 -110 722 -142 b 649 -257 722 -226 690 -257 b 576 -184 607 -257 576 -226 b 649 -110 576 -142 607 -110 "},"ṃ":{"ha":1329,"x_min":0,"x_max":0,"o":"m 940 671 b 1215 408 1103 671 1215 567 l 1215 0 l 1112 0 l 1112 374 b 922 572 1112 499 1042 572 b 720 371 811 572 720 496 l 720 0 l 617 0 l 617 374 b 427 572 617 499 547 572 b 226 371 317 572 226 496 l 226 0 l 122 0 l 122 658 l 224 658 l 224 564 b 446 671 278 642 365 671 b 692 533 560 671 650 619 b 940 671 745 635 848 671 m 669 -110 b 742 -184 710 -110 742 -142 b 669 -257 742 -226 710 -257 b 596 -184 627 -257 596 -226 b 669 -110 596 -142 627 -110 "},"Ṅ":{"ha":1095,"x_min":0,"x_max":0,"o":"m 955 0 l 854 0 l 252 781 l 252 0 l 140 0 l 140 972 l 241 972 l 843 192 l 843 972 l 955 972 m 538 1225 b 614 1149 580 1225 614 1192 b 538 1074 614 1106 580 1074 b 462 1149 494 1074 462 1106 b 538 1225 462 1192 494 1225 "},"ṅ":{"ha":834,"x_min":0,"x_max":0,"o":"m 446 671 b 720 408 608 671 720 567 l 720 0 l 617 0 l 617 374 b 427 572 617 499 547 572 b 226 371 317 572 226 496 l 226 0 l 122 0 l 122 658 l 224 658 l 224 564 b 446 671 278 642 365 671 m 428 965 b 502 891 469 965 502 933 b 428 818 502 849 469 818 b 356 891 387 818 356 849 b 428 965 356 933 387 965 "},"Ṇ":{"ha":1095,"x_min":0,"x_max":0,"o":"m 955 0 l 854 0 l 252 781 l 252 0 l 140 0 l 140 972 l 241 972 l 843 192 l 843 972 l 955 972 m 543 -110 b 617 -184 584 -110 617 -142 b 543 -257 617 -226 584 -257 b 470 -184 501 -257 470 -226 b 543 -110 470 -142 501 -110 "},"ṇ":{"ha":834,"x_min":0,"x_max":0,"o":"m 446 671 b 720 408 608 671 720 567 l 720 0 l 617 0 l 617 374 b 427 572 617 499 547 572 b 226 371 317 572 226 496 l 226 0 l 122 0 l 122 658 l 224 658 l 224 564 b 446 671 278 642 365 671 m 420 -110 b 494 -184 461 -110 494 -142 b 420 -257 494 -226 461 -257 b 347 -184 378 -257 347 -226 b 420 -110 347 -142 378 -110 "},"Ṉ":{"ha":1095,"x_min":0,"x_max":0,"o":"m 955 0 l 854 0 l 252 781 l 252 0 l 140 0 l 140 972 l 241 972 l 843 192 l 843 972 l 955 972 m 337 -140 l 752 -140 l 752 -225 l 337 -225 "},"ṉ":{"ha":834,"x_min":0,"x_max":0,"o":"m 446 671 b 720 408 608 671 720 567 l 720 0 l 617 0 l 617 374 b 427 572 617 499 547 572 b 226 371 317 572 226 496 l 226 0 l 122 0 l 122 658 l 224 658 l 224 564 b 446 671 278 642 365 671 m 213 -140 l 628 -140 l 628 -225 l 213 -225 "},"Ṙ":{"ha":940,"x_min":0,"x_max":0,"o":"m 522 972 b 861 698 740 972 861 874 b 523 423 861 530 731 423 l 507 423 l 856 0 l 717 0 l 375 423 l 252 423 l 252 0 l 140 0 l 140 972 m 252 867 l 252 524 l 520 524 b 745 698 668 524 745 585 b 520 867 745 810 666 867 m 451 1225 b 527 1149 493 1225 527 1192 b 451 1074 527 1106 493 1074 b 375 1149 408 1074 375 1106 b 451 1225 375 1192 408 1225 "},"ṙ":{"ha":576,"x_min":0,"x_max":0,"o":"m 419 671 b 540 649 467 671 506 665 l 515 547 b 401 573 483 564 440 573 b 225 368 299 573 225 492 l 225 0 l 122 0 l 122 658 l 224 658 l 224 565 b 419 671 269 633 339 671 m 330 965 b 403 891 371 965 403 933 b 330 818 403 849 371 818 b 257 891 288 818 257 849 b 330 965 257 933 288 965 "},"Ṛ":{"ha":940,"x_min":0,"x_max":0,"o":"m 522 972 b 861 698 740 972 861 874 b 523 423 861 530 731 423 l 507 423 l 856 0 l 717 0 l 375 423 l 252 423 l 252 0 l 140 0 l 140 972 m 252 867 l 252 524 l 520 524 b 745 698 668 524 745 585 b 520 867 745 810 666 867 m 462 -110 b 535 -184 503 -110 535 -142 b 462 -257 535 -226 503 -257 b 389 -184 420 -257 389 -226 b 462 -110 389 -142 420 -110 "},"ṛ":{"ha":576,"x_min":0,"x_max":0,"o":"m 419 671 b 540 649 467 671 506 665 l 515 547 b 401 573 483 564 440 573 b 225 368 299 573 225 492 l 225 0 l 122 0 l 122 658 l 224 658 l 224 565 b 419 671 269 633 339 671 m 174 -110 b 248 -184 215 -110 248 -142 b 174 -257 248 -226 215 -257 b 101 -184 133 -257 101 -226 b 174 -110 101 -142 133 -110 "},"Ṝ":{"ha":940,"x_min":0,"x_max":0,"o":"m 522 972 b 861 698 740 972 861 874 b 523 423 861 530 731 423 l 507 423 l 856 0 l 717 0 l 375 423 l 252 423 l 252 0 l 140 0 l 140 972 m 252 867 l 252 524 l 520 524 b 745 698 668 524 745 585 b 520 867 745 810 666 867 m 462 -110 b 535 -184 503 -110 535 -142 b 462 -257 535 -226 503 -257 b 389 -184 420 -257 389 -226 b 462 -110 389 -142 420 -110 m 253 1188 l 668 1188 l 668 1104 l 253 1104 "},"ṝ":{"ha":576,"x_min":0,"x_max":0,"o":"m 419 671 b 540 649 467 671 506 665 l 515 547 b 401 573 483 564 440 573 b 225 368 299 573 225 492 l 225 0 l 122 0 l 122 658 l 224 658 l 224 565 b 419 671 269 633 339 671 m 122 900 l 538 900 l 538 816 l 122 816 m 174 -110 b 248 -184 215 -110 248 -142 b 174 -257 248 -226 215 -257 b 101 -184 133 -257 101 -226 b 174 -110 101 -142 133 -110 "},"Ṟ":{"ha":940,"x_min":0,"x_max":0,"o":"m 522 972 b 861 698 740 972 861 874 b 523 423 861 530 731 423 l 507 423 l 856 0 l 717 0 l 375 423 l 252 423 l 252 0 l 140 0 l 140 972 m 252 867 l 252 524 l 520 524 b 745 698 668 524 745 585 b 520 867 745 810 666 867 m 256 -140 l 671 -140 l 671 -225 l 256 -225 "},"ṟ":{"ha":576,"x_min":0,"x_max":0,"o":"m 419 671 b 540 649 467 671 506 665 l 515 547 b 401 573 483 564 440 573 b 225 368 299 573 225 492 l 225 0 l 122 0 l 122 658 l 224 658 l 224 565 b 419 671 269 633 339 671 m -33 -140 l 383 -140 l 383 -225 l -33 -225 "},"Ṣ":{"ha":935,"x_min":0,"x_max":0,"o":"m 775 788 b 482 879 697 842 599 879 b 231 703 335 879 231 813 b 455 546 231 613 303 564 l 547 535 b 851 279 708 515 851 447 b 466 -13 851 87 676 -13 b 84 112 325 -13 176 37 l 145 201 b 465 92 213 144 339 92 b 735 269 616 92 735 153 b 499 428 735 364 653 411 l 401 440 b 115 697 235 458 115 535 b 483 985 115 881 279 985 b 832 878 631 985 742 941 m 483 -110 b 557 -184 524 -110 557 -142 b 483 -257 557 -226 524 -257 b 410 -184 442 -257 410 -226 b 483 -110 410 -142 442 -110 "},"ṣ":{"ha":685,"x_min":0,"x_max":0,"o":"m 563 518 b 348 580 521 547 437 580 b 192 476 254 580 192 540 b 326 384 192 422 240 394 l 404 374 b 625 191 544 356 625 299 b 335 -12 625 66 513 -12 b 61 72 251 -12 144 8 l 109 149 b 337 78 159 110 226 78 b 518 184 448 78 518 115 b 381 280 518 237 474 269 l 302 289 b 85 471 154 307 85 373 b 347 670 85 595 190 670 b 608 599 451 670 545 641 m 352 -110 b 426 -184 393 -110 426 -142 b 352 -257 426 -226 393 -257 b 279 -184 310 -257 279 -226 b 352 -110 279 -142 310 -110 "},"Ṭ":{"ha":842,"x_min":0,"x_max":0,"o":"m 814 867 l 476 867 l 476 0 l 365 0 l 365 867 l 28 867 l 28 972 l 814 972 m 420 -110 b 494 -184 461 -110 494 -142 b 420 -257 494 -226 461 -257 b 347 -184 378 -257 347 -226 b 420 -110 347 -142 378 -110 "},"ṭ":{"ha":629,"x_min":0,"x_max":0,"o":"m 568 564 l 284 564 l 284 232 b 415 84 284 129 338 84 b 553 131 465 84 515 103 l 601 52 b 406 -13 552 15 487 -13 b 181 230 265 -13 181 65 l 181 564 l 37 564 l 37 658 l 181 658 l 181 867 l 284 867 l 284 658 l 568 658 m 383 -110 b 456 -184 424 -110 456 -142 b 383 -257 456 -226 424 -257 b 310 -184 341 -257 310 -226 b 383 -110 310 -142 341 -110 "},"Ṯ":{"ha":842,"x_min":0,"x_max":0,"o":"m 814 867 l 476 867 l 476 0 l 365 0 l 365 867 l 28 867 l 28 972 l 814 972 m 214 -140 l 629 -140 l 629 -225 l 214 -225 "},"ṯ":{"ha":629,"x_min":0,"x_max":0,"o":"m 568 564 l 284 564 l 284 232 b 415 84 284 129 338 84 b 553 131 465 84 515 103 l 601 52 b 406 -13 552 15 487 -13 b 181 230 265 -13 181 65 l 181 564 l 37 564 l 37 658 l 181 658 l 181 867 l 284 867 l 284 658 l 568 658 m 176 -140 l 591 -140 l 591 -225 l 176 -225 "},"Ẁ":{"ha":1526,"x_min":0,"x_max":0,"o":"m 1169 0 l 1032 0 l 763 824 l 493 0 l 356 0 l 40 972 l 157 972 l 426 126 l 701 972 l 827 972 l 1101 126 l 1371 972 l 1485 972 m 576 1255 l 708 1255 l 853 1047 l 751 1047 "},"ẁ":{"ha":1185,"x_min":0,"x_max":0,"o":"m 848 108 l 1046 658 l 1153 658 l 910 0 l 788 0 l 591 547 l 395 0 l 274 0 l 31 658 l 142 658 l 338 108 l 534 658 l 651 658 m 397 967 l 528 967 l 674 758 l 572 758 "},"Ẃ":{"ha":1526,"x_min":0,"x_max":0,"o":"m 1169 0 l 1032 0 l 763 824 l 493 0 l 356 0 l 40 972 l 157 972 l 426 126 l 701 972 l 827 972 l 1101 126 l 1371 972 l 1485 972 m 665 1047 l 810 1255 l 942 1255 l 767 1047 "},"ẃ":{"ha":1185,"x_min":0,"x_max":0,"o":"m 848 108 l 1046 658 l 1153 658 l 910 0 l 788 0 l 591 547 l 395 0 l 274 0 l 31 658 l 142 658 l 338 108 l 534 658 l 651 658 m 502 758 l 647 967 l 779 967 l 605 758 "},"Ẅ":{"ha":1526,"x_min":0,"x_max":0,"o":"m 1169 0 l 1032 0 l 763 824 l 493 0 l 356 0 l 40 972 l 157 972 l 426 126 l 701 972 l 827 972 l 1101 126 l 1371 972 l 1485 972 m 622 1221 b 695 1147 663 1221 695 1188 b 622 1074 695 1105 663 1074 b 548 1147 580 1074 548 1105 b 622 1221 548 1188 580 1221 m 903 1221 b 977 1147 944 1221 977 1188 b 903 1074 977 1105 944 1074 b 831 1147 862 1074 831 1105 b 903 1221 831 1188 862 1221 "},"ẅ":{"ha":1185,"x_min":0,"x_max":0,"o":"m 848 108 l 1046 658 l 1153 658 l 910 0 l 788 0 l 591 547 l 395 0 l 274 0 l 31 658 l 142 658 l 338 108 l 534 658 l 651 658 m 451 933 b 525 858 492 933 525 900 b 451 785 525 817 492 785 b 378 858 410 785 378 817 b 451 933 378 900 410 933 m 733 933 b 807 858 774 933 807 900 b 733 785 807 817 774 785 b 660 858 692 785 660 817 b 733 933 660 900 692 933 "},"Ẉ":{"ha":1526,"x_min":0,"x_max":0,"o":"m 1169 0 l 1032 0 l 763 824 l 493 0 l 356 0 l 40 972 l 157 972 l 426 126 l 701 972 l 827 972 l 1101 126 l 1371 972 l 1485 972 m 763 -110 b 836 -184 803 -110 836 -142 b 763 -257 836 -226 803 -257 b 690 -184 721 -257 690 -226 b 763 -110 690 -142 721 -110 "},"ẉ":{"ha":1185,"x_min":0,"x_max":0,"o":"m 848 108 l 1046 658 l 1153 658 l 910 0 l 788 0 l 591 547 l 395 0 l 274 0 l 31 658 l 142 658 l 338 108 l 534 658 l 651 658 m 592 -110 b 665 -184 633 -110 665 -142 b 592 -257 665 -226 633 -257 b 519 -184 550 -257 519 -226 b 592 -110 519 -142 550 -110 "},"Ẓ":{"ha":913,"x_min":0,"x_max":0,"o":"m 826 886 l 233 106 l 828 106 l 828 0 l 84 0 l 84 86 l 678 867 l 91 867 l 91 972 l 826 972 m 456 -110 b 529 -184 497 -110 529 -142 b 456 -257 529 -226 497 -257 b 383 -184 414 -257 383 -226 b 456 -110 383 -142 414 -110 "},"ẓ":{"ha":733,"x_min":0,"x_max":0,"o":"m 642 582 l 222 94 l 648 94 l 648 0 l 85 0 l 85 75 l 508 564 l 97 564 l 97 658 l 642 658 m 367 -110 b 440 -184 408 -110 440 -142 b 367 -257 440 -226 408 -257 b 294 -184 325 -257 294 -226 b 367 -110 294 -142 325 -110 "},"Ẕ":{"ha":913,"x_min":0,"x_max":0,"o":"m 826 886 l 233 106 l 828 106 l 828 0 l 84 0 l 84 86 l 678 867 l 91 867 l 91 972 l 826 972 m 249 -140 l 665 -140 l 665 -225 l 249 -225 "},"ẕ":{"ha":733,"x_min":0,"x_max":0,"o":"m 642 582 l 222 94 l 648 94 l 648 0 l 85 0 l 85 75 l 508 564 l 97 564 l 97 658 l 642 658 m 160 -140 l 575 -140 l 575 -225 l 160 -225 "},"ẖ":{"ha":834,"x_min":0,"x_max":0,"o":"m 226 566 b 446 671 280 642 366 671 b 720 408 608 671 720 567 l 720 0 l 617 0 l 617 374 b 427 572 617 499 547 572 b 226 371 317 572 226 496 l 226 0 l 122 0 l 122 1000 l 226 1000 m 215 -140 l 630 -140 l 630 -225 l 215 -225 "},"ẞ":{"ha":1017,"x_min":0,"x_max":0,"o":"m 490 521 l 742 799 b 512 878 696 847 624 878 b 238 635 343 878 238 784 l 238 0 l 126 0 l 126 642 b 514 985 126 834 258 985 b 894 815 704 985 815 918 l 635 533 b 932 263 804 514 932 417 b 578 -12 932 93 771 -12 b 374 17 485 -12 426 -1 l 401 122 b 562 94 444 106 496 94 b 814 263 715 94 814 156 b 553 438 814 373 714 438 l 490 438 "},"Ỳ":{"ha":894,"x_min":0,"x_max":0,"o":"m 503 408 l 503 0 l 392 0 l 392 409 l 8 972 l 141 972 l 449 511 l 756 972 l 886 972 m 263 1255 l 394 1255 l 540 1047 l 437 1047 "},"ỳ":{"ha":732,"x_min":0,"x_max":0,"o":"m 186 -281 l 72 -281 l 317 142 l 15 658 l 131 658 l 376 245 l 608 658 l 722 658 m 174 967 l 306 967 l 451 758 l 349 758 "},"Ỵ":{"ha":894,"x_min":0,"x_max":0,"o":"m 503 408 l 503 0 l 392 0 l 392 409 l 8 972 l 141 972 l 449 511 l 756 972 l 886 972 m 447 -110 b 521 -184 488 -110 521 -142 b 447 -257 521 -226 488 -257 b 374 -184 406 -257 374 -226 b 447 -110 374 -142 406 -110 "},"ỵ":{"ha":732,"x_min":0,"x_max":0,"o":"m 186 -281 l 72 -281 l 317 142 l 15 658 l 131 658 l 376 245 l 608 658 l 722 658 m 529 -110 b 603 -184 570 -110 603 -142 b 529 -257 603 -226 570 -257 b 456 -184 488 -257 456 -226 b 529 -110 456 -142 488 -110 "}," ":{"ha":985,"x_min":0,"x_max":0,"o":""}," ":{"ha":363,"x_min":0,"x_max":0,"o":""}," ":{"ha":124,"x_min":0,"x_max":0,"o":""},"​":{"ha":0,"x_min":0,"x_max":0,"o":""},"﻿":{"ha":0,"x_min":0,"x_max":0,"o":""},"‐":{"ha":582,"x_min":0,"x_max":0,"o":"m 484 320 l 98 320 l 98 415 l 484 415 "},"‑":{"ha":582,"x_min":0,"x_max":0,"o":"m 484 320 l 98 320 l 98 415 l 484 415 "},"‒":{"ha":833,"x_min":0,"x_max":0,"o":"m 747 320 l 87 320 l 87 415 l 747 415 "},"–":{"ha":828,"x_min":0,"x_max":0,"o":"m 744 320 l 84 320 l 84 415 l 744 415 "},"—":{"ha":1126,"x_min":0,"x_max":0,"o":"m 1084 320 l 42 320 l 42 415 l 1084 415 "},"‘":{"ha":343,"x_min":0,"x_max":0,"o":"m 92 648 l 165 1000 l 255 1000 l 213 648 "},"’":{"ha":343,"x_min":0,"x_max":0,"o":"m 251 1000 l 178 648 l 88 648 l 130 1000 "},"‚":{"ha":343,"x_min":0,"x_max":0,"o":"m 251 172 l 178 -180 l 88 -180 l 130 172 "},"“":{"ha":590,"x_min":0,"x_max":0,"o":"m 92 648 l 165 1000 l 255 1000 l 213 648 m 339 648 l 412 1000 l 501 1000 l 460 648 "},"”":{"ha":589,"x_min":0,"x_max":0,"o":"m 497 1000 l 424 648 l 334 648 l 376 1000 m 251 1000 l 178 648 l 88 648 l 130 1000 "},"„":{"ha":589,"x_min":0,"x_max":0,"o":"m 497 172 l 424 -180 l 334 -180 l 376 172 m 251 172 l 178 -180 l 88 -180 l 130 172 "},"†":{"ha":515,"x_min":0,"x_max":0,"o":"m 215 467 l 215 772 l 70 772 l 70 856 l 215 856 l 215 1000 l 300 1000 l 300 856 l 444 856 l 444 772 l 300 772 l 300 467 "},"‡":{"ha":515,"x_min":0,"x_max":0,"o":"m 300 875 l 444 875 l 444 792 l 300 792 l 300 676 l 444 676 l 444 592 l 300 592 l 300 467 l 215 467 l 215 592 l 70 592 l 70 676 l 215 676 l 215 792 l 70 792 l 70 875 l 215 875 l 215 1000 l 300 1000 "},"•":{"ha":600,"x_min":0,"x_max":0,"o":"m 301 525 b 458 367 387 525 458 455 b 301 210 458 281 387 210 b 143 367 213 210 143 281 b 301 525 143 455 213 525 "},"‣":{"ha":705,"x_min":0,"x_max":0,"o":"m 179 125 l 179 610 l 598 367 "},"…":{"ha":1035,"x_min":0,"x_max":0,"o":"m 183 162 b 269 75 228 162 269 122 b 183 -12 269 28 228 -12 b 95 75 136 -12 95 28 b 183 162 95 122 136 162 m 518 162 b 605 75 565 162 605 122 b 518 -12 605 28 565 -12 b 431 75 472 -12 431 28 b 518 162 431 122 472 162 m 853 162 b 940 75 900 162 940 122 b 853 -12 940 28 900 -12 b 767 75 808 -12 767 28 b 853 162 767 122 808 162 "},"‰":{"ha":1928,"x_min":0,"x_max":0,"o":"m 322 985 b 578 734 468 985 578 877 b 322 481 578 590 468 481 b 67 734 177 481 67 590 b 322 985 67 877 177 985 m 322 894 b 165 734 233 894 165 827 b 322 573 165 640 233 573 b 481 734 413 573 481 640 b 322 894 481 827 413 894 m 420 0 l 312 0 l 925 972 l 1033 972 m 1022 491 b 1278 239 1168 491 1278 380 b 1022 -13 1278 94 1168 -13 b 767 239 877 -13 767 94 b 1022 491 767 382 877 491 m 1022 399 b 865 239 933 399 865 333 b 1022 78 865 145 933 78 b 1181 239 1113 78 1181 145 b 1022 399 1181 333 1113 399 m 1604 491 b 1861 239 1751 491 1861 382 b 1604 -13 1861 94 1751 -13 b 1350 239 1459 -13 1350 94 b 1604 491 1350 382 1459 491 m 1604 399 b 1447 239 1515 399 1447 333 b 1604 78 1447 145 1515 78 b 1763 239 1696 78 1763 145 b 1604 399 1763 333 1696 399 "},"′":{"ha":373,"x_min":0,"x_max":0,"o":"m 281 972 l 188 533 l 88 533 l 182 972 "},"″":{"ha":590,"x_min":0,"x_max":0,"o":"m 498 972 l 405 533 l 306 533 l 399 972 m 281 972 l 188 533 l 88 533 l 182 972 "},"‴":{"ha":775,"x_min":0,"x_max":0,"o":"m 482 972 l 389 533 l 290 533 l 383 972 m 683 972 l 590 533 l 490 533 l 584 972 m 281 972 l 188 533 l 88 533 l 182 972 "},"‹":{"ha":434,"x_min":0,"x_max":0,"o":"m 332 110 l 221 110 l 88 367 l 221 624 l 332 624 l 199 367 "},"›":{"ha":434,"x_min":0,"x_max":0,"o":"m 102 624 l 213 624 l 347 367 l 213 110 l 102 110 l 235 367 "},"⁄":{"ha":303,"x_min":0,"x_max":0,"o":"m -103 0 l -207 0 l 406 972 l 510 972 "},"⁰":{"ha":605,"x_min":0,"x_max":0,"o":"m 302 979 b 535 700 431 979 535 875 b 302 421 535 526 431 421 b 69 700 174 421 69 526 b 302 979 69 875 174 979 m 302 897 b 158 700 222 897 158 827 b 302 503 158 573 222 503 b 447 700 383 503 447 573 b 302 897 447 827 383 897 "},"ⁱ":{"ha":260,"x_min":0,"x_max":0,"o":"m 172 428 l 87 428 l 87 888 l 172 888 m 129 1100 b 187 1043 162 1100 187 1075 b 129 986 187 1010 162 986 b 73 1043 97 986 73 1010 b 129 1100 73 1075 97 1100 "},"⁴":{"ha":479,"x_min":0,"x_max":0,"o":"m 367 613 l 451 613 l 451 534 l 367 534 l 367 428 l 281 428 l 281 534 l 28 534 l 28 596 l 219 972 l 315 972 l 129 613 l 281 613 l 281 763 l 367 763 "},"⁵":{"ha":494,"x_min":0,"x_max":0,"o":"m 404 892 l 171 892 l 167 761 l 232 761 b 433 600 364 761 433 693 b 235 421 433 489 348 421 b 45 499 156 421 90 450 l 96 556 b 235 500 129 523 181 500 b 344 594 304 500 344 539 b 215 684 344 645 308 684 l 88 684 l 97 972 l 404 972 "},"⁶":{"ha":492,"x_min":0,"x_max":0,"o":"m 212 775 b 257 781 225 778 240 781 b 448 603 371 781 448 703 b 244 421 448 498 361 421 b 42 601 128 421 42 497 b 86 731 42 646 58 688 l 243 972 l 347 972 m 244 708 b 131 602 179 708 131 663 b 244 497 131 541 179 497 b 358 602 310 497 358 541 b 244 708 358 663 310 708 "},"⁷":{"ha":460,"x_min":0,"x_max":0,"o":"m 426 905 l 190 428 l 88 428 l 324 892 l 42 892 l 42 972 l 426 972 "},"⁸":{"ha":539,"x_min":0,"x_max":0,"o":"m 269 979 b 466 829 378 979 466 924 b 373 703 466 764 425 724 b 480 574 432 683 480 643 b 269 421 480 476 385 421 b 59 574 153 421 59 476 b 165 703 59 643 106 683 b 72 829 113 724 72 763 b 269 979 72 924 161 979 m 269 669 b 151 583 205 669 151 638 b 269 494 151 524 205 494 b 387 583 333 494 387 524 b 269 669 387 638 333 669 m 269 904 b 163 821 211 904 163 876 b 269 738 163 767 211 738 b 375 821 327 738 375 767 b 269 904 375 876 327 904 "},"⁹":{"ha":492,"x_min":0,"x_max":0,"o":"m 281 625 b 236 619 267 622 253 619 b 45 797 122 619 45 698 b 248 979 45 902 131 979 b 451 799 364 979 451 903 b 406 669 451 755 435 713 l 249 428 l 147 428 m 248 692 b 361 798 314 692 361 737 b 248 903 361 859 313 903 b 134 798 183 903 134 860 b 248 692 134 737 183 692 "},"ⁿ":{"ha":590,"x_min":0,"x_max":0,"o":"m 323 897 b 508 715 432 897 508 826 l 508 428 l 423 428 l 423 688 b 301 817 423 769 378 817 b 172 686 230 817 172 767 l 172 428 l 87 428 l 87 888 l 170 888 l 170 813 b 323 897 203 873 262 897 "},"₀":{"ha":605,"x_min":0,"x_max":0,"o":"m 302 293 b 535 14 431 293 535 189 b 302 -265 535 -160 431 -265 b 69 14 174 -265 69 -160 b 302 293 69 189 174 293 m 302 211 b 158 14 222 211 158 141 b 302 -183 158 -113 222 -183 b 447 14 383 -183 447 -113 b 302 211 447 141 383 211 "},"₁":{"ha":382,"x_min":0,"x_max":0,"o":"m 272 -258 l 185 -258 l 185 173 l 35 113 l 35 197 l 272 292 "},"₂":{"ha":473,"x_min":0,"x_max":0,"o":"m 45 201 b 227 293 75 242 129 293 b 408 124 340 293 408 222 b 328 -37 408 58 376 11 l 188 -178 l 424 -178 l 424 -258 l 65 -258 l 65 -190 l 267 12 b 319 117 299 43 319 76 b 219 211 319 171 281 211 b 101 147 163 211 128 181 "},"₃":{"ha":476,"x_min":0,"x_max":0,"o":"m 214 293 b 404 143 326 293 404 233 b 315 16 404 81 369 38 b 416 -110 376 -5 416 -50 b 218 -265 416 -215 319 -265 b 35 -192 139 -265 76 -238 l 85 -135 b 214 -188 117 -169 163 -188 b 327 -103 275 -188 327 -161 b 208 -22 327 -51 273 -22 l 139 -22 l 139 55 l 208 55 b 315 136 269 55 315 83 b 210 216 315 185 272 216 b 89 158 156 216 115 190 l 38 213 b 214 293 74 260 131 293 "},"₄":{"ha":479,"x_min":0,"x_max":0,"o":"m 367 -74 l 451 -74 l 451 -152 l 367 -152 l 367 -258 l 281 -258 l 281 -152 l 28 -152 l 28 -90 l 219 285 l 315 285 l 129 -74 l 281 -74 l 281 77 l 367 77 "},"₅":{"ha":494,"x_min":0,"x_max":0,"o":"m 404 206 l 171 206 l 167 75 l 232 75 b 433 -86 364 75 433 7 b 235 -265 433 -197 348 -265 b 45 -187 156 -265 90 -236 l 96 -130 b 235 -186 129 -163 181 -186 b 344 -92 304 -186 344 -147 b 215 -2 344 -41 308 -2 l 88 -2 l 97 285 l 404 285 "},"₆":{"ha":492,"x_min":0,"x_max":0,"o":"m 212 89 b 257 94 225 92 240 94 b 448 -83 371 94 448 17 b 244 -265 448 -188 361 -265 b 42 -85 128 -265 42 -189 b 86 45 42 -40 58 2 l 243 285 l 347 285 m 244 22 b 131 -84 179 22 131 -23 b 244 -190 131 -145 179 -190 b 358 -84 310 -190 358 -145 b 244 22 358 -23 310 22 "},"₇":{"ha":460,"x_min":0,"x_max":0,"o":"m 426 219 l 190 -258 l 88 -258 l 324 206 l 42 206 l 42 285 l 426 285 "},"₈":{"ha":539,"x_min":0,"x_max":0,"o":"m 269 293 b 466 143 378 293 466 238 b 373 17 466 78 425 38 b 480 -112 432 -3 480 -43 b 269 -265 480 -210 385 -265 b 59 -112 153 -265 59 -210 b 165 17 59 -43 106 -3 b 72 143 113 38 72 77 b 269 293 72 238 161 293 m 269 -17 b 151 -103 205 -17 151 -48 b 269 -192 151 -162 205 -192 b 387 -103 333 -192 387 -162 b 269 -17 387 -48 333 -17 m 269 218 b 163 135 211 218 163 190 b 269 52 163 81 211 52 b 375 135 327 52 375 81 b 269 218 375 190 327 218 "},"₉":{"ha":492,"x_min":0,"x_max":0,"o":"m 281 -61 b 236 -67 267 -65 253 -67 b 45 111 122 -67 45 12 b 248 293 45 216 131 293 b 451 113 364 293 451 217 b 406 -17 451 69 435 27 l 249 -258 l 147 -258 m 248 6 b 361 112 314 6 361 51 b 248 217 361 173 313 217 b 134 112 183 217 134 174 b 248 6 134 51 183 6 "},"€":{"ha":972,"x_min":0,"x_max":0,"o":"m 725 332 l 288 332 b 588 87 328 179 435 87 b 849 227 706 87 792 144 l 917 156 b 588 -12 844 51 735 -12 b 175 332 372 -12 223 120 l 53 332 l 53 418 l 162 418 b 159 486 160 440 159 463 b 162 554 159 509 160 532 l 53 554 l 53 640 l 175 640 b 588 985 223 851 372 985 b 919 820 734 985 847 922 l 847 745 b 588 885 792 828 706 885 b 288 640 433 885 328 792 l 725 640 l 725 554 l 272 554 b 269 486 270 532 269 510 b 272 418 269 463 270 440 l 725 418 "},"₺":{"ha":972,"x_min":0,"x_max":0,"o":"m 694 467 l 341 302 l 341 103 l 503 103 b 802 301 632 103 724 158 l 894 250 b 494 0 793 69 674 0 l 234 0 l 234 252 l 99 190 l 99 281 l 234 344 l 234 478 l 99 415 l 99 507 l 234 570 l 234 972 l 341 972 l 341 620 l 694 785 l 694 692 l 341 528 l 341 394 l 694 558 "},"℀":{"ha":1326,"x_min":0,"x_max":0,"o":"m 340 985 b 544 792 463 985 544 922 l 544 517 l 460 517 l 460 578 b 298 507 424 538 369 507 b 135 649 197 507 135 566 b 325 786 135 733 205 786 l 458 786 b 330 909 456 870 410 909 b 193 860 272 909 226 886 l 159 926 b 340 985 207 963 267 985 m 317 578 b 459 647 374 578 424 607 l 459 726 l 338 726 b 225 651 257 726 225 692 b 317 578 225 612 257 578 m 441 0 l 338 0 l 951 972 l 1054 972 m 1015 465 b 1191 386 1087 465 1149 437 l 1131 333 b 1013 385 1099 367 1060 385 b 863 226 928 385 863 319 b 1012 67 863 133 927 67 b 1132 120 1060 67 1101 88 l 1191 66 b 1015 -13 1149 16 1087 -13 b 775 226 873 -13 775 90 b 1015 465 775 364 873 465 "},"℁":{"ha":1326,"x_min":0,"x_max":0,"o":"m 342 985 b 547 792 466 985 547 922 l 547 517 l 463 517 l 463 578 b 301 507 426 538 372 507 b 138 649 200 507 138 566 b 328 786 138 733 208 786 l 460 786 b 333 909 459 870 413 909 b 196 860 275 909 229 886 l 162 926 b 342 985 210 963 270 985 m 320 578 b 462 647 376 578 427 607 l 462 726 l 340 726 b 228 651 260 726 228 692 b 320 578 228 612 260 578 m 444 0 l 340 0 l 953 972 l 1057 972 m 1140 350 b 988 392 1106 370 1047 392 b 889 327 927 392 889 367 b 981 268 889 292 922 276 l 1031 262 b 1183 133 1127 249 1183 207 b 980 -13 1183 42 1105 -13 b 784 42 913 -13 839 3 l 819 108 b 981 59 858 81 906 59 b 1097 126 1052 59 1097 82 b 1003 188 1097 160 1067 180 l 954 193 b 800 323 849 205 800 252 b 986 465 800 412 873 465 b 1172 417 1059 465 1120 446 "},"℅":{"ha":1326,"x_min":0,"x_max":0,"o":"m 349 985 b 525 906 421 985 483 957 l 465 853 b 347 906 433 887 394 906 b 197 747 262 906 197 840 b 346 588 197 653 261 588 b 466 640 394 588 435 608 l 525 586 b 349 507 483 536 421 507 b 109 747 207 507 109 610 b 349 985 109 884 207 985 m 402 0 l 299 0 l 912 972 l 1015 972 m 975 465 b 1217 226 1114 465 1217 363 b 975 -13 1217 90 1114 -13 b 733 226 836 -13 733 90 b 975 465 733 363 836 465 m 975 385 b 820 226 887 385 820 319 b 975 67 820 134 887 67 b 1131 226 1063 67 1131 134 b 975 385 1131 319 1063 385 "},"℆":{"ha":1326,"x_min":0,"x_max":0,"o":"m 347 985 b 523 906 419 985 481 957 l 463 853 b 344 906 431 887 392 906 b 194 747 260 906 194 840 b 344 588 194 653 259 588 b 464 640 392 588 433 608 l 523 586 b 347 507 481 536 419 507 b 107 747 205 507 107 610 b 347 985 107 884 205 985 m 400 0 l 297 0 l 910 972 l 1013 972 m 1219 189 b 1008 -13 1219 53 1123 -13 b 798 189 894 -13 798 53 l 798 456 l 883 456 l 883 197 b 1008 67 883 110 936 67 b 1135 197 1082 67 1135 110 l 1135 456 l 1219 456 "},"ℓ":{"ha":744,"x_min":0,"x_max":0,"o":"m 99 351 b 212 404 138 367 176 385 l 213 755 b 426 1013 213 903 295 1013 b 633 800 548 1013 633 925 b 315 353 633 617 497 464 l 315 231 b 440 84 315 128 367 84 b 580 134 492 84 542 105 l 622 51 b 431 -14 574 15 510 -14 b 211 230 293 -14 211 65 l 211 296 b 137 263 187 284 162 273 m 315 468 b 526 800 444 560 526 674 b 426 916 526 872 489 916 b 316 755 362 916 316 856 "},"№":{"ha":1690,"x_min":0,"x_max":0,"o":"m 1624 308 l 1163 308 l 1163 402 l 1624 402 m 1393 982 b 1635 744 1532 982 1635 880 b 1393 506 1635 608 1532 506 b 1152 744 1255 506 1152 608 b 1393 982 1152 880 1255 982 m 1393 903 b 1238 744 1305 903 1238 837 b 1393 585 1238 651 1305 585 b 1549 744 1481 585 1549 651 b 1393 903 1549 837 1481 903 m 955 0 l 854 0 l 252 781 l 252 0 l 140 0 l 140 972 l 241 972 l 843 192 l 843 972 l 955 972 "},"℗":{"ha":1322,"x_min":0,"x_max":0,"o":"m 660 1047 b 1220 492 969 1047 1220 798 b 660 -65 1220 185 969 -65 b 101 492 351 -65 101 185 b 660 1047 101 798 351 1047 m 660 956 b 195 492 403 956 195 749 b 660 26 195 234 403 26 b 1126 492 917 26 1126 234 b 660 956 1126 749 917 956 m 703 781 b 935 598 851 781 935 711 b 704 417 935 486 851 417 l 555 417 l 555 194 l 463 194 l 463 781 m 555 697 l 555 499 l 701 499 b 840 598 790 499 840 533 b 701 697 840 663 790 697 "},"℠":{"ha":1031,"x_min":0,"x_max":0,"o":"m 389 876 b 259 911 356 894 313 911 b 163 857 204 911 163 892 b 261 805 163 824 201 811 l 294 801 b 435 692 378 793 435 758 b 251 558 435 599 348 558 b 70 606 183 558 115 576 l 107 667 b 251 626 140 647 192 626 b 354 681 308 626 354 644 b 255 733 354 715 319 726 l 219 737 b 81 850 133 745 81 783 b 257 978 81 929 156 978 b 422 938 328 978 378 962 m 901 566 l 901 873 l 786 608 l 708 608 l 593 872 l 593 566 l 518 566 l 518 972 l 624 972 l 747 693 l 869 972 l 975 972 l 975 566 "},"™":{"ha":996,"x_min":0,"x_max":0,"o":"m 865 566 l 865 874 l 750 608 l 672 608 l 558 873 l 558 566 l 483 566 l 483 973 l 589 973 l 711 693 l 833 973 l 940 973 l 940 566 m 192 566 l 192 903 l 56 903 l 56 972 l 403 972 l 403 903 l 267 903 l 267 566 "},"Ω":{"ha":1194,"x_min":0,"x_max":0,"o":"m 294 106 b 95 483 173 185 95 319 b 597 986 95 776 308 986 b 1099 483 886 986 1099 776 b 900 106 1099 319 1022 185 l 1138 106 l 1138 0 l 720 0 l 720 91 b 983 478 875 140 983 284 b 597 878 983 717 816 878 b 212 478 378 878 212 717 b 474 91 212 284 319 140 l 474 0 l 56 0 l 56 106 "},"℮":{"ha":1389,"x_min":0,"x_max":0,"o":"m 313 226 b 385 67 313 158 330 107 b 694 -31 472 3 578 -31 b 1122 190 874 -31 1031 51 l 1155 165 b 694 -72 1056 16 886 -72 b 140 486 390 -72 140 151 b 694 1044 140 821 390 1044 b 1249 486 999 1044 1249 821 b 1248 466 1249 479 1249 472 l 313 466 m 1082 506 l 1082 739 b 1013 899 1082 807 1066 858 b 694 1003 925 967 815 1003 b 385 906 578 1003 472 969 b 313 746 330 865 313 814 l 313 506 "},"⅍":{"ha":1326,"x_min":0,"x_max":0,"o":"m 585 466 l 494 466 l 449 586 l 224 586 l 180 466 l 90 466 l 286 972 l 389 972 m 1183 390 b 1031 434 1147 413 1096 434 b 919 364 967 434 919 409 b 1037 296 919 323 965 304 l 1074 292 b 1236 156 1174 281 1236 236 b 1024 -7 1236 42 1135 -7 b 815 52 942 -7 865 17 l 856 122 b 1025 72 894 98 951 72 b 1143 144 1092 72 1143 94 b 1027 211 1143 187 1103 202 l 987 216 b 827 356 881 228 827 274 b 1027 513 827 452 911 513 b 1220 461 1113 513 1169 491 m 253 665 l 421 665 l 337 892 m 460 0 l 356 0 l 969 972 l 1073 972 "},"⅐":{"ha":1181,"x_min":0,"x_max":0,"o":"m 295 0 l 192 0 l 805 972 l 908 972 m 1146 476 l 910 0 l 808 0 l 1044 463 l 762 463 l 762 543 l 1146 543 m 272 428 l 185 428 l 185 859 l 35 799 l 35 883 l 272 978 "},"⅑":{"ha":1194,"x_min":0,"x_max":0,"o":"m 295 0 l 192 0 l 805 972 l 908 972 m 982 197 b 938 191 969 193 954 191 b 747 369 823 191 747 269 b 949 551 747 474 833 551 b 1153 371 1065 551 1153 474 b 1108 241 1153 326 1136 285 l 951 0 l 848 0 m 949 264 b 1063 369 1015 264 1063 308 b 949 475 1063 431 1015 475 b 835 369 884 475 835 431 b 949 264 835 308 884 264 m 272 428 l 185 428 l 185 859 l 35 799 l 35 883 l 272 978 "},"⅒":{"ha":1702,"x_min":0,"x_max":0,"o":"m 295 0 l 192 0 l 805 972 l 908 972 m 987 0 l 901 0 l 901 431 l 750 370 l 750 455 l 987 550 m 1399 551 b 1633 272 1528 551 1633 447 b 1399 -8 1633 97 1528 -8 b 1167 272 1271 -8 1167 97 b 1399 551 1167 447 1271 551 m 1399 469 b 1256 272 1319 469 1256 399 b 1399 74 1256 144 1319 74 b 1544 272 1480 74 1544 144 b 1399 469 1544 399 1480 469 m 272 428 l 185 428 l 185 859 l 35 799 l 35 883 l 272 978 "},"⅓":{"ha":1176,"x_min":0,"x_max":0,"o":"m 295 0 l 192 0 l 805 972 l 908 972 m 915 551 b 1106 401 1028 551 1106 490 b 1017 274 1106 339 1071 295 b 1117 147 1078 253 1117 208 b 919 -8 1117 42 1021 -8 b 736 66 840 -8 778 19 l 786 123 b 915 69 819 89 864 69 b 1028 154 976 69 1028 97 b 910 236 1028 207 974 236 l 840 236 l 840 313 l 910 313 b 1017 394 970 313 1017 340 b 911 474 1017 443 973 474 b 790 416 857 474 816 447 l 739 471 b 915 551 776 517 833 551 m 272 428 l 185 428 l 185 859 l 35 799 l 35 883 l 272 978 "},"⅔":{"ha":1272,"x_min":0,"x_max":0,"o":"m 390 0 l 287 0 l 900 972 l 1003 972 m 1010 551 b 1200 401 1122 551 1200 490 b 1111 274 1200 339 1165 295 b 1212 147 1172 253 1212 208 b 1014 -8 1212 42 1115 -8 b 831 66 935 -8 872 19 l 881 123 b 1010 69 913 89 958 69 b 1123 154 1071 69 1123 97 b 1004 236 1123 207 1069 236 l 935 236 l 935 313 l 1004 313 b 1111 394 1065 313 1111 340 b 1006 474 1111 443 1067 474 b 885 416 951 474 910 447 l 833 471 b 1010 551 870 517 927 551 m 45 887 b 227 979 75 928 129 979 b 408 810 340 979 408 908 b 328 649 408 744 376 697 l 188 508 l 424 508 l 424 428 l 65 428 l 65 496 l 267 698 b 319 803 299 729 319 763 b 219 897 319 857 281 897 b 101 833 163 897 128 867 "},"⅕":{"ha":1196,"x_min":0,"x_max":0,"o":"m 295 0 l 192 0 l 805 972 l 908 972 m 1106 464 l 872 464 l 868 333 l 933 333 b 1134 172 1065 333 1134 265 b 937 -8 1134 60 1049 -8 b 747 71 857 -8 791 22 l 797 128 b 936 72 831 94 883 72 b 1045 165 1006 72 1045 110 b 916 256 1045 217 1009 256 l 790 256 l 798 543 l 1106 543 m 272 428 l 185 428 l 185 859 l 35 799 l 35 883 l 272 978 "},"⅖":{"ha":1291,"x_min":0,"x_max":0,"o":"m 390 0 l 287 0 l 900 972 l 1003 972 m 1200 464 l 967 464 l 963 333 l 1028 333 b 1228 172 1160 333 1228 265 b 1031 -8 1228 60 1144 -8 b 841 71 951 -8 885 22 l 892 128 b 1031 72 925 94 977 72 b 1140 165 1100 72 1140 110 b 1010 256 1140 217 1103 256 l 884 256 l 892 543 l 1200 543 m 45 887 b 227 979 75 928 129 979 b 408 810 340 979 408 908 b 328 649 408 744 376 697 l 188 508 l 424 508 l 424 428 l 65 428 l 65 496 l 267 698 b 319 803 299 729 319 763 b 219 897 319 857 281 897 b 101 833 163 897 128 867 "},"⅗":{"ha":1273,"x_min":0,"x_max":0,"o":"m 372 0 l 269 0 l 882 972 l 985 972 m 1182 464 l 949 464 l 944 333 l 1010 333 b 1210 172 1142 333 1210 265 b 1013 -8 1210 60 1126 -8 b 823 71 933 -8 867 22 l 874 128 b 1013 72 907 94 959 72 b 1122 165 1082 72 1122 110 b 992 256 1122 217 1085 256 l 866 256 l 874 543 l 1182 543 m 214 979 b 404 829 326 979 404 919 b 315 702 404 767 369 724 b 416 576 376 681 416 636 b 218 421 416 471 319 421 b 35 494 139 421 76 448 l 85 551 b 214 498 117 517 163 498 b 327 583 275 498 327 525 b 208 665 327 635 273 665 l 139 665 l 139 741 l 208 741 b 315 822 269 741 315 769 b 210 902 315 872 272 902 b 89 844 156 902 115 876 l 38 899 b 214 979 74 946 131 979 "},"⅘":{"ha":1276,"x_min":0,"x_max":0,"o":"m 376 0 l 272 0 l 885 972 l 989 972 m 1186 464 l 953 464 l 949 333 l 1014 333 b 1215 172 1146 333 1215 265 b 1017 -8 1215 60 1130 -8 b 827 71 938 -8 872 22 l 878 128 b 1017 72 911 94 963 72 b 1126 165 1086 72 1126 110 b 997 256 1126 217 1090 256 l 870 256 l 878 543 l 1186 543 m 367 613 l 451 613 l 451 534 l 367 534 l 367 428 l 281 428 l 281 534 l 28 534 l 28 596 l 219 972 l 315 972 l 129 613 l 281 613 l 281 763 l 367 763 "},"⅙":{"ha":1135,"x_min":0,"x_max":0,"o":"m 295 0 l 192 0 l 805 972 l 908 972 m 855 347 b 900 352 868 350 883 352 b 1091 174 1014 352 1091 274 b 888 -8 1091 69 1004 -8 b 685 172 772 -8 685 69 b 729 303 685 217 701 260 l 886 543 l 990 543 m 888 279 b 774 174 822 279 774 235 b 888 68 774 113 822 68 b 1001 174 953 68 1001 113 b 888 279 1001 235 953 279 m 272 428 l 185 428 l 185 859 l 35 799 l 35 883 l 272 978 "},"⅚":{"ha":1226,"x_min":0,"x_max":0,"o":"m 386 0 l 283 0 l 896 972 l 999 972 m 946 347 b 991 352 959 350 974 352 b 1182 174 1105 352 1182 274 b 978 -8 1182 69 1095 -8 b 776 172 863 -8 776 69 b 820 303 776 217 792 260 l 977 543 l 1081 543 m 978 279 b 865 174 913 279 865 235 b 978 68 865 113 913 68 b 1092 174 1044 68 1092 113 b 978 279 1092 235 1044 279 m 404 892 l 171 892 l 167 761 l 232 761 b 433 600 364 761 433 693 b 235 421 433 489 348 421 b 45 499 156 421 90 450 l 96 556 b 235 500 129 523 181 500 b 344 594 304 500 344 539 b 215 684 344 645 308 684 l 88 684 l 97 972 l 404 972 "},"⅛":{"ha":1222,"x_min":0,"x_max":0,"o":"m 295 0 l 192 0 l 805 972 l 908 972 m 952 551 b 1149 401 1060 551 1149 496 b 1056 275 1149 335 1108 296 b 1163 145 1115 255 1163 215 b 952 -8 1163 48 1067 -8 b 742 145 836 -8 742 48 b 848 274 742 215 789 254 b 755 401 795 295 755 335 b 952 551 755 496 844 551 m 952 240 b 834 154 888 240 834 210 b 952 66 834 96 888 66 b 1069 154 1016 66 1069 96 b 952 240 1069 210 1016 240 m 952 476 b 846 392 894 476 846 447 b 952 310 846 338 894 310 b 1058 392 1010 310 1058 338 b 952 476 1058 447 1010 476 m 272 428 l 185 428 l 185 859 l 35 799 l 35 883 l 272 978 "},"⅜":{"ha":1298,"x_min":0,"x_max":0,"o":"m 372 0 l 269 0 l 882 972 l 985 972 m 1028 551 b 1225 401 1137 551 1225 496 b 1132 275 1225 335 1184 296 b 1239 145 1191 255 1239 215 b 1028 -8 1239 48 1144 -8 b 818 145 913 -8 818 48 b 924 274 818 215 865 254 b 831 401 872 295 831 335 b 1028 551 831 496 920 551 m 1028 240 b 910 154 964 240 910 210 b 1028 66 910 96 964 66 b 1146 154 1092 66 1146 96 b 1028 240 1146 210 1092 240 m 1028 476 b 922 392 970 476 922 447 b 1028 310 922 338 970 310 b 1134 392 1086 310 1134 338 b 1028 476 1134 447 1086 476 m 214 979 b 404 829 326 979 404 919 b 315 702 404 767 369 724 b 416 576 376 681 416 636 b 218 421 416 471 319 421 b 35 494 139 421 76 448 l 85 551 b 214 498 117 517 163 498 b 327 583 275 498 327 525 b 208 665 327 635 273 665 l 139 665 l 139 741 l 208 741 b 315 822 269 741 315 769 b 210 902 315 872 272 902 b 89 844 156 902 115 876 l 38 899 b 214 979 74 946 131 979 "},"⅝":{"ha":1313,"x_min":0,"x_max":0,"o":"m 386 0 l 283 0 l 896 972 l 999 972 m 1043 551 b 1240 401 1151 551 1240 496 b 1147 275 1240 335 1199 296 b 1253 145 1206 255 1253 215 b 1043 -8 1253 48 1158 -8 b 833 145 927 -8 833 48 b 939 274 833 215 880 254 b 846 401 886 295 846 335 b 1043 551 846 496 935 551 m 1043 240 b 925 154 978 240 925 210 b 1043 66 925 96 978 66 b 1160 154 1107 66 1160 96 b 1043 240 1160 210 1107 240 m 1043 476 b 937 392 985 476 937 447 b 1043 310 937 338 985 310 b 1149 392 1101 310 1149 338 b 1043 476 1149 447 1101 476 m 404 892 l 171 892 l 167 761 l 232 761 b 433 600 364 761 433 693 b 235 421 433 489 348 421 b 45 499 156 421 90 450 l 96 556 b 235 500 129 523 181 500 b 344 594 304 500 344 539 b 215 684 344 645 308 684 l 88 684 l 97 972 l 404 972 "},"⅞":{"ha":1205,"x_min":0,"x_max":0,"o":"m 278 0 l 175 0 l 788 972 l 892 972 m 935 551 b 1132 401 1044 551 1132 496 b 1039 275 1132 335 1091 296 b 1146 145 1098 255 1146 215 b 935 -8 1146 48 1051 -8 b 725 145 819 -8 725 48 b 831 274 725 215 772 254 b 738 401 778 295 738 335 b 935 551 738 496 827 551 m 935 240 b 817 154 871 240 817 210 b 935 66 817 96 871 66 b 1053 154 999 66 1053 96 b 935 240 1053 210 999 240 m 935 476 b 829 392 877 476 829 447 b 935 310 829 338 877 310 b 1041 392 993 310 1041 338 b 935 476 1041 447 993 476 m 426 905 l 190 428 l 88 428 l 324 892 l 42 892 l 42 972 l 426 972 "},"⅟":{"ha":701,"x_min":0,"x_max":0,"o":"m 295 0 l 192 0 l 805 972 l 908 972 m 272 428 l 185 428 l 185 859 l 35 799 l 35 883 l 272 978 "},"↉":{"ha":1345,"x_min":0,"x_max":0,"o":"m 464 0 l 360 0 l 974 972 l 1077 972 m 1083 551 b 1274 401 1196 551 1274 490 b 1185 274 1274 339 1239 295 b 1285 147 1246 253 1285 208 b 1088 -8 1285 42 1189 -8 b 904 66 1008 -8 946 19 l 954 123 b 1083 69 987 89 1032 69 b 1197 154 1144 69 1197 97 b 1078 236 1197 207 1142 236 l 1008 236 l 1008 313 l 1078 313 b 1185 394 1138 313 1185 340 b 1079 474 1185 443 1141 474 b 958 416 1025 474 984 447 l 907 471 b 1083 551 944 517 1001 551 m 302 979 b 535 700 431 979 535 875 b 302 421 535 526 431 421 b 69 700 174 421 69 526 b 302 979 69 875 174 979 m 302 897 b 158 700 222 897 158 827 b 302 503 158 573 222 503 b 447 700 383 503 447 573 b 302 897 447 827 383 897 "},"←":{"ha":1389,"x_min":0,"x_max":0,"o":"m 454 406 b 318 410 413 406 381 406 b 451 288 365 372 413 325 l 650 88 l 583 22 l 152 453 l 583 885 l 650 819 l 451 619 b 318 497 413 582 365 535 b 454 501 381 501 413 501 l 1238 501 l 1238 406 "},"↑":{"ha":1389,"x_min":0,"x_max":0,"o":"m 648 729 b 651 866 648 770 648 802 b 528 733 613 818 566 771 l 329 533 l 263 600 l 694 1032 l 1126 600 l 1060 533 l 861 733 b 738 866 824 772 776 818 b 742 729 742 802 742 770 l 742 -53 l 648 -53 "},"→":{"ha":1389,"x_min":0,"x_max":0,"o":"m 935 501 b 1071 497 976 501 1008 501 b 938 619 1024 535 976 582 l 739 819 l 806 885 l 1238 453 l 806 22 l 739 88 l 938 288 b 1071 410 976 325 1024 372 b 935 406 1008 406 976 406 l 152 406 l 152 501 "},"↓":{"ha":1389,"x_min":0,"x_max":0,"o":"m 742 248 b 738 111 742 207 742 175 b 860 244 776 159 823 206 l 1060 444 l 1126 377 l 694 -55 l 263 377 l 329 444 l 528 244 b 651 111 566 206 613 159 b 647 248 647 175 647 207 l 647 1031 l 742 1031 "},"↖":{"ha":1389,"x_min":0,"x_max":0,"o":"m 474 597 b 381 696 445 626 423 649 b 388 515 387 635 388 568 l 388 233 l 294 233 l 294 844 l 904 844 l 904 750 l 622 750 b 442 757 569 750 502 751 b 540 664 490 715 512 692 l 1094 110 l 1028 43 "},"↗":{"ha":1389,"x_min":0,"x_max":0,"o":"m 831 657 b 930 751 860 686 883 708 b 749 744 870 744 803 744 l 467 744 l 467 838 l 1078 838 l 1078 227 l 984 227 l 984 509 b 992 690 984 562 985 628 b 898 590 949 642 926 619 l 344 37 l 278 103 "},"↘":{"ha":1389,"x_min":0,"x_max":0,"o":"m 898 317 b 992 218 926 288 949 265 b 985 399 985 278 985 345 l 985 681 l 1078 681 l 1078 69 l 468 69 l 468 164 l 750 164 b 931 156 803 164 870 163 b 832 250 883 199 860 222 l 278 804 l 344 871 "},"↙":{"ha":1389,"x_min":0,"x_max":0,"o":"m 542 243 b 443 149 513 214 490 192 b 624 156 503 156 570 156 l 906 156 l 906 63 l 294 63 l 294 673 l 389 673 l 389 392 b 381 210 389 338 388 272 b 475 310 424 258 447 281 l 1029 864 l 1095 797 "},"∂":{"ha":828,"x_min":0,"x_max":0,"o":"m 240 1007 b 753 335 660 837 753 499 b 406 -13 753 137 604 -13 b 60 322 208 -13 60 131 b 388 659 60 515 202 659 b 608 553 476 659 555 619 b 194 924 549 696 425 824 m 406 561 b 167 322 270 561 167 463 b 406 84 167 183 270 84 b 647 322 543 84 647 183 b 406 561 647 463 543 561 "},"∆":{"ha":981,"x_min":0,"x_max":0,"o":"m 924 86 l 924 0 l 56 0 l 56 86 l 422 974 l 559 974 m 182 106 l 799 106 l 490 860 "},"∏":{"ha":1019,"x_min":0,"x_max":0,"o":"m 878 -184 l 767 -184 l 767 867 l 252 867 l 252 -184 l 140 -184 l 140 972 l 878 972 "},"∑":{"ha":913,"x_min":0,"x_max":0,"o":"m 826 867 l 250 867 l 635 433 l 635 371 l 247 -78 l 828 -78 l 828 -184 l 84 -184 l 84 -97 l 516 399 l 87 885 l 87 972 l 826 972 "},"−":{"ha":833,"x_min":0,"x_max":0,"o":"m 719 320 l 115 320 l 115 415 l 719 415 "},"∙":{"ha":833,"x_min":0,"x_max":0,"o":"m 417 525 b 574 367 503 525 574 455 b 417 210 574 281 503 210 b 259 367 328 210 259 281 b 417 525 259 455 328 525 "},"√":{"ha":860,"x_min":0,"x_max":0,"o":"m 437 -184 l 299 -184 l 21 510 l 144 510 l 367 -53 l 721 1000 l 835 1000 "},"∞":{"ha":1140,"x_min":0,"x_max":0,"o":"m 36 361 b 287 624 36 522 152 624 b 569 431 397 624 467 544 b 852 624 672 544 744 624 b 1103 361 987 624 1103 522 b 852 99 1103 200 987 99 b 569 291 744 99 672 178 b 287 99 467 178 397 99 b 36 361 152 99 36 200 m 135 361 b 287 193 135 254 203 193 b 506 361 355 193 403 248 b 287 529 406 474 354 529 b 135 361 203 529 135 468 m 1004 361 b 852 529 1004 468 936 529 b 633 361 785 529 736 474 b 852 193 736 248 785 193 b 1004 361 936 193 1004 254 "},"∫":{"ha":463,"x_min":0,"x_max":0,"o":"m 424 883 b 380 888 410 886 395 888 b 265 749 299 888 265 838 l 265 40 b 52 -197 265 -97 203 -197 b -27 -189 24 -197 -3 -194 l 1 -94 b 45 -100 15 -98 30 -100 b 160 40 126 -100 160 -49 l 160 749 b 373 985 160 885 222 985 b 452 977 401 985 428 983 "},"≅":{"ha":833,"x_min":0,"x_max":0,"o":"m 719 192 l 115 192 l 115 286 l 719 286 m 719 449 l 115 449 l 115 543 l 719 543 m 728 763 b 544 681 677 708 624 681 b 281 740 415 681 386 740 b 162 683 236 740 202 721 l 106 748 b 288 830 156 803 209 830 b 551 770 418 830 447 770 b 671 828 597 770 631 790 "},"≈":{"ha":833,"x_min":0,"x_max":0,"o":"m 728 502 b 544 420 677 447 624 420 b 281 480 415 420 386 480 b 162 422 236 480 202 460 l 106 488 b 288 569 156 542 209 569 b 551 510 418 569 447 510 b 671 567 597 510 631 529 m 728 247 b 544 165 677 192 624 165 b 281 225 415 165 386 225 b 162 167 236 225 202 206 l 106 233 b 288 315 156 288 209 315 b 551 255 418 315 447 255 b 671 313 597 255 631 274 "},"≙":{"ha":833,"x_min":0,"x_max":0,"o":"m 719 192 l 115 192 l 115 286 l 719 286 m 719 449 l 115 449 l 115 543 l 719 543 m 538 669 l 417 801 l 295 669 l 184 669 l 347 869 l 486 869 l 649 669 "},"≠":{"ha":833,"x_min":0,"x_max":0,"o":"m 719 192 l 381 192 l 295 17 l 196 17 l 281 192 l 115 192 l 115 286 l 327 286 l 406 449 l 115 449 l 115 543 l 453 543 l 538 718 l 638 718 l 552 543 l 719 543 l 719 449 l 506 449 l 426 286 l 719 286 "},"≤":{"ha":833,"x_min":0,"x_max":0,"o":"m 690 646 l 256 470 l 690 294 l 690 185 l 144 419 l 144 521 l 690 756 m 144 126 l 690 126 l 690 31 l 144 31 "},"≥":{"ha":833,"x_min":0,"x_max":0,"o":"m 144 756 l 690 521 l 690 419 l 144 185 l 144 294 l 578 470 l 144 646 m 690 31 l 144 31 l 144 126 l 690 126 "},"⋅":{"ha":833,"x_min":0,"x_max":0,"o":"m 417 454 b 503 368 463 454 503 415 b 417 281 503 321 463 281 b 330 368 371 281 330 321 b 417 454 330 415 371 454 "},"∅":{"ha":992,"x_min":0,"x_max":0,"o":"m 852 651 l 763 562 b 831 361 805 506 831 436 b 497 26 831 177 681 26 b 295 94 421 26 351 51 l 207 5 l 140 72 l 228 160 b 161 361 186 216 161 285 b 497 697 161 544 311 697 b 697 628 572 697 641 671 l 785 717 m 255 361 b 299 223 255 310 271 262 l 633 558 b 497 602 594 586 547 602 b 255 361 363 602 255 494 m 497 121 b 737 361 628 121 737 228 b 694 498 737 412 721 459 l 360 163 b 497 121 399 136 446 121 "},"①":{"ha":1424,"x_min":0,"x_max":0,"o":"m 712 1099 b 1327 487 1052 1099 1327 824 b 712 -126 1327 149 1052 -126 b 97 487 372 -126 97 149 b 712 1099 97 824 372 1099 m 712 1002 b 197 487 427 1002 197 772 b 712 -30 197 201 427 -30 b 1228 487 997 -30 1228 201 b 712 1002 1228 772 997 1002 m 792 201 l 699 201 l 699 667 l 520 596 l 520 688 l 792 795 "},"②":{"ha":1424,"x_min":0,"x_max":0,"o":"m 712 1099 b 1327 487 1052 1099 1327 824 b 712 -126 1327 149 1052 -126 b 97 487 372 -126 97 149 b 712 1099 97 824 372 1099 m 712 1002 b 197 487 427 1002 197 772 b 712 -30 197 201 427 -30 b 1228 487 997 -30 1228 201 b 712 1002 1228 772 997 1002 m 510 696 b 709 796 543 740 603 796 b 908 612 833 796 908 719 b 818 439 908 539 867 486 l 665 288 l 925 288 l 925 201 l 531 201 l 531 274 l 754 492 b 811 606 788 526 811 562 b 701 708 811 664 770 708 b 572 639 638 708 601 675 "},"③":{"ha":1424,"x_min":0,"x_max":0,"o":"m 712 1099 b 1327 487 1052 1099 1327 824 b 712 -126 1327 149 1052 -126 b 97 487 372 -126 97 149 b 712 1099 97 824 372 1099 m 712 1002 b 197 487 427 1002 197 772 b 712 -30 197 201 427 -30 b 1228 487 997 -30 1228 201 b 712 1002 1228 772 997 1002 m 703 796 b 915 634 828 796 915 731 b 813 497 915 566 876 519 b 928 360 883 476 928 427 b 707 193 928 247 821 193 b 506 272 622 193 551 222 l 560 332 b 703 274 596 296 648 274 b 833 366 772 274 833 304 b 699 458 833 424 773 458 l 621 458 l 621 538 l 699 538 b 820 626 767 538 820 568 b 698 713 820 679 769 713 b 565 651 639 713 593 684 l 509 710 b 703 796 549 760 614 796 "},"④":{"ha":1424,"x_min":0,"x_max":0,"o":"m 712 1099 b 1327 487 1052 1099 1327 824 b 712 -126 1327 149 1052 -126 b 97 487 372 -126 97 149 b 712 1099 97 824 372 1099 m 712 1002 b 197 487 427 1002 197 772 b 712 -30 197 201 427 -30 b 1228 487 997 -30 1228 201 b 712 1002 1228 772 997 1002 m 840 401 l 933 401 l 933 316 l 840 316 l 840 201 l 747 201 l 747 316 l 468 316 l 468 381 l 678 788 l 781 788 l 578 401 l 747 401 l 747 563 l 840 563 "},"⑤":{"ha":1424,"x_min":0,"x_max":0,"o":"m 712 1099 b 1327 487 1052 1099 1327 824 b 712 -126 1327 149 1052 -126 b 97 487 372 -126 97 149 b 712 1099 97 824 372 1099 m 712 1002 b 197 487 427 1002 197 772 b 712 -30 197 201 427 -30 b 1228 487 997 -30 1228 201 b 712 1002 1228 772 997 1002 m 899 703 l 643 703 l 638 559 l 713 559 b 931 384 856 559 931 489 b 715 193 931 266 838 193 b 506 278 627 193 555 225 l 556 344 b 714 278 591 306 651 278 b 834 378 791 278 834 319 b 688 478 834 438 794 478 l 554 478 l 562 788 l 899 788 "},"⑥":{"ha":1424,"x_min":0,"x_max":0,"o":"m 712 1099 b 1327 487 1052 1099 1327 824 b 712 -126 1327 149 1052 -126 b 97 487 372 -126 97 149 b 712 1099 97 824 372 1099 m 712 1002 b 197 487 427 1002 197 772 b 712 -30 197 201 427 -30 b 1228 487 997 -30 1228 201 b 712 1002 1228 772 997 1002 m 669 574 b 719 581 685 578 701 581 b 927 390 842 581 927 497 b 707 193 927 276 833 193 b 485 388 581 193 485 276 b 534 527 485 435 503 481 l 705 788 l 816 788 m 707 503 b 582 389 635 503 582 454 b 707 276 582 323 635 276 b 831 389 778 276 831 324 b 707 503 831 454 778 503 "},"⑦":{"ha":1424,"x_min":0,"x_max":0,"o":"m 712 1099 b 1327 487 1052 1099 1327 824 b 712 -126 1327 149 1052 -126 b 97 487 372 -126 97 149 b 712 1099 97 824 372 1099 m 712 1002 b 197 487 427 1002 197 772 b 712 -30 197 201 427 -30 b 1228 487 997 -30 1228 201 b 712 1002 1228 772 997 1002 m 942 715 l 683 201 l 573 201 l 833 702 l 522 702 l 522 788 l 942 788 "},"⑧":{"ha":1424,"x_min":0,"x_max":0,"o":"m 712 1099 b 1327 487 1052 1099 1327 824 b 712 -126 1327 149 1052 -126 b 97 487 372 -126 97 149 b 712 1099 97 824 372 1099 m 712 1002 b 197 487 427 1002 197 772 b 712 -30 197 201 427 -30 b 1228 487 997 -30 1228 201 b 712 1002 1228 772 997 1002 m 712 796 b 926 634 829 796 926 737 b 822 498 926 564 880 521 b 941 358 888 476 941 432 b 712 193 941 253 838 193 b 483 358 587 193 483 253 b 602 498 483 432 536 476 b 498 634 543 521 498 564 b 712 796 498 737 594 796 m 712 462 b 583 368 642 462 583 429 b 712 274 583 306 642 274 b 841 368 781 274 841 306 b 712 462 841 429 781 462 m 712 715 b 596 626 648 715 596 684 b 712 535 596 567 648 535 b 828 626 776 535 828 567 b 712 715 828 684 776 715 "},"⑨":{"ha":1424,"x_min":0,"x_max":0,"o":"m 712 1099 b 1327 487 1052 1099 1327 824 b 712 -126 1327 149 1052 -126 b 97 487 372 -126 97 149 b 712 1099 97 824 372 1099 m 712 1002 b 197 487 427 1002 197 772 b 712 -30 197 201 427 -30 b 1228 487 997 -30 1228 201 b 712 1002 1228 772 997 1002 m 758 415 b 708 408 742 410 725 408 b 499 599 585 408 499 492 b 720 796 499 713 594 796 b 941 602 847 796 941 713 b 893 462 941 553 924 508 l 722 201 l 610 201 m 720 487 b 845 601 792 487 845 535 b 720 714 845 666 792 714 b 596 601 649 714 596 666 b 720 487 596 535 649 487 "},"⓪":{"ha":1424,"x_min":0,"x_max":0,"o":"m 712 1099 b 1327 487 1052 1099 1327 824 b 712 -126 1327 149 1052 -126 b 97 487 372 -126 97 149 b 712 1099 97 824 372 1099 m 712 1002 b 197 487 427 1002 197 772 b 712 -30 197 201 427 -30 b 1228 487 997 -30 1228 201 b 712 1002 1228 772 997 1002 m 712 796 b 971 495 856 796 971 683 b 712 193 971 306 856 193 b 453 495 569 193 453 306 b 712 796 453 683 569 796 m 712 708 b 549 494 622 708 549 631 b 712 281 549 357 622 281 b 875 494 802 281 875 357 b 712 708 875 631 802 708 "},"⓿":{"ha":1424,"x_min":0,"x_max":0,"o":"m 712 796 b 453 495 569 796 453 683 b 712 193 453 306 569 193 b 971 495 856 193 971 306 b 712 796 971 683 856 796 m 712 708 b 875 494 802 708 875 631 b 712 281 875 357 802 281 b 549 494 622 281 549 357 b 712 708 549 631 622 708 m 712 1089 b 1318 487 1047 1089 1318 819 b 712 -117 1318 154 1047 -117 b 106 487 376 -117 106 154 b 712 1089 106 819 376 1089 "},"■":{"ha":1250,"x_min":0,"x_max":0,"o":"m 1111 972 l 1111 0 l 139 0 l 139 972 "},"□":{"ha":1250,"x_min":0,"x_max":0,"o":"m 1111 972 l 1111 0 l 139 0 l 139 972 m 235 96 l 1015 96 l 1015 876 l 235 876 "},"▌":{"ha":1250,"x_min":0,"x_max":0,"o":"m 625 972 l 625 0 l 139 0 l 139 972 "},"▲":{"ha":1250,"x_min":0,"x_max":0,"o":"m 1194 0 l 56 0 l 625 986 "},"△":{"ha":1250,"x_min":0,"x_max":0,"o":"m 1194 0 l 56 0 l 625 986 m 222 96 l 1028 96 l 625 794 "},"▴":{"ha":833,"x_min":0,"x_max":0,"o":"m 659 245 l 175 245 l 417 663 "},"▸":{"ha":833,"x_min":0,"x_max":0,"o":"m 250 211 l 250 696 l 669 453 "},"▼":{"ha":1250,"x_min":0,"x_max":0,"o":"m 56 972 l 1194 972 l 625 -14 "},"▽":{"ha":1250,"x_min":0,"x_max":0,"o":"m 56 972 l 1194 972 l 625 -14 m 1028 876 l 222 876 l 625 178 "},"▾":{"ha":833,"x_min":0,"x_max":0,"o":"m 174 663 l 658 663 l 416 244 "},"◂":{"ha":833,"x_min":0,"x_max":0,"o":"m 583 696 l 583 211 l 165 453 "},"◆":{"ha":1250,"x_min":0,"x_max":0,"o":"m 1138 486 l 625 -26 l 113 486 l 625 999 "},"◇":{"ha":1250,"x_min":0,"x_max":0,"o":"m 1138 486 l 625 -26 l 113 486 l 625 999 m 248 486 l 625 109 l 1002 486 l 625 863 "},"◊":{"ha":1076,"x_min":0,"x_max":0,"o":"m 598 0 l 478 0 l 70 486 l 478 972 l 598 972 l 1006 486 m 535 877 l 206 487 l 540 95 l 870 486 "},"○":{"ha":1250,"x_min":0,"x_max":0,"o":"m 625 -27 b 112 486 341 -27 112 203 b 625 999 112 769 341 999 b 1138 486 908 999 1138 769 b 625 -27 1138 203 908 -27 m 625 69 b 1042 486 856 69 1042 256 b 625 903 1042 717 856 903 b 208 486 394 903 208 717 b 625 69 208 256 394 69 "},"●":{"ha":1250,"x_min":0,"x_max":0,"o":"m 625 -27 b 112 486 341 -27 112 203 b 625 999 112 769 341 999 b 1138 486 908 999 1138 769 b 625 -27 1138 203 908 -27 "},"◐":{"ha":1250,"x_min":0,"x_max":0,"o":"m 625 -27 b 112 486 341 -27 112 203 b 625 999 112 769 341 999 b 1138 486 908 999 1138 769 b 625 -27 1138 203 908 -27 m 625 69 b 1042 486 856 69 1042 256 b 625 903 1042 717 856 903 "},"◖":{"ha":1250,"x_min":0,"x_max":0,"o":"m 625 -27 b 112 486 341 -27 112 203 b 625 999 112 769 341 999 "},"◧":{"ha":1250,"x_min":0,"x_max":0,"o":"m 1111 972 l 1111 0 l 139 0 l 139 972 m 625 96 l 1015 96 l 1015 876 l 625 876 "},"☐":{"ha":1528,"x_min":0,"x_max":0,"o":"m 1352 1074 l 1352 -102 l 176 -102 l 176 1074 m 256 -22 l 1272 -22 l 1272 994 l 256 994 "},"☑":{"ha":1528,"x_min":0,"x_max":0,"o":"m 1352 1074 l 1352 -102 l 176 -102 l 176 1074 m 256 -22 l 1272 -22 l 1272 994 l 256 994 m 1157 785 l 676 113 l 391 468 l 452 519 l 672 242 l 1092 832 "},"☒":{"ha":1528,"x_min":0,"x_max":0,"o":"m 1352 -102 l 176 -102 l 176 1074 l 1352 1074 m 256 994 l 256 -22 l 1272 -22 l 1272 994 m 707 485 l 424 767 l 481 824 l 764 541 l 1047 824 l 1103 767 l 820 485 l 1101 203 l 1045 147 l 764 428 l 483 147 l 426 203 "},"♥":{"ha":1250,"x_min":0,"x_max":0,"o":"m 820 831 b 1017 628 934 831 1017 743 b 625 115 1017 459 835 262 b 233 628 415 262 233 459 b 431 831 233 743 316 831 b 625 677 533 831 625 760 b 820 831 625 760 717 831 "},"✓":{"ha":1528,"x_min":0,"x_max":0,"o":"m 1201 836 l 635 72 l 326 409 l 396 473 l 628 219 l 1126 892 "},"╳":{"ha":1467,"x_min":0,"x_max":0,"o":"m 1472 -180 l 1400 -253 l 734 413 l 67 -253 l -6 -180 l 660 486 l -6 1152 l 67 1226 l 734 560 l 1400 1226 l 1472 1152 l 806 486 "},"✗":{"ha":1528,"x_min":0,"x_max":0,"o":"m 1150 167 l 1083 100 l 764 419 l 444 100 l 378 167 l 697 486 l 378 806 l 444 872 l 764 553 l 1083 872 l 1150 806 l 831 486 "},"❶":{"ha":1424,"x_min":0,"x_max":0,"o":"m 520 688 l 520 596 l 699 667 l 699 201 l 792 201 l 792 795 m 712 1089 b 1318 487 1047 1089 1318 819 b 712 -117 1318 154 1047 -117 b 106 487 376 -117 106 154 b 712 1089 106 819 376 1089 "},"❷":{"ha":1424,"x_min":0,"x_max":0,"o":"m 572 639 b 701 708 601 675 638 708 b 811 606 770 708 811 664 b 754 492 811 562 788 526 l 531 274 l 531 201 l 925 201 l 925 288 l 665 288 l 818 439 b 908 612 867 486 908 539 b 709 796 908 719 833 796 b 510 696 603 796 543 740 m 712 1089 b 1318 487 1047 1089 1318 819 b 712 -117 1318 154 1047 -117 b 106 487 376 -117 106 154 b 712 1089 106 819 376 1089 "},"❸":{"ha":1424,"x_min":0,"x_max":0,"o":"m 712 1089 b 1318 487 1047 1089 1318 819 b 712 -117 1318 154 1047 -117 b 106 487 376 -117 106 154 b 712 1089 106 819 376 1089 m 703 796 b 509 710 614 796 549 760 l 565 651 b 698 713 593 684 639 713 b 820 626 769 713 820 679 b 699 538 820 568 767 538 l 621 538 l 621 458 l 699 458 b 833 366 773 458 833 424 b 703 274 833 304 772 274 b 560 332 648 274 596 296 l 506 272 b 707 193 551 222 622 193 b 928 360 821 193 928 247 b 813 497 928 427 883 476 b 915 634 876 519 915 566 b 703 796 915 731 828 796 "},"❹":{"ha":1424,"x_min":0,"x_max":0,"o":"m 712 1089 b 1318 487 1047 1089 1318 819 b 712 -117 1318 154 1047 -117 b 106 487 376 -117 106 154 b 712 1089 106 819 376 1089 m 747 563 l 747 401 l 578 401 l 781 788 l 678 788 l 468 381 l 468 316 l 747 316 l 747 201 l 840 201 l 840 316 l 933 316 l 933 401 l 840 401 l 840 563 "},"❺":{"ha":1424,"x_min":0,"x_max":0,"o":"m 562 788 l 554 478 l 688 478 b 834 378 794 478 834 438 b 714 278 834 319 791 278 b 556 344 651 278 591 306 l 506 278 b 715 193 555 225 627 193 b 931 384 838 193 931 266 b 713 559 931 489 856 559 l 638 559 l 643 703 l 899 703 l 899 788 m 712 1089 b 1318 487 1047 1089 1318 819 b 712 -117 1318 154 1047 -117 b 106 487 376 -117 106 154 b 712 1089 106 819 376 1089 "},"❻":{"ha":1424,"x_min":0,"x_max":0,"o":"m 712 1089 b 1318 487 1047 1089 1318 819 b 712 -117 1318 154 1047 -117 b 106 487 376 -117 106 154 b 712 1089 106 819 376 1089 m 705 788 l 534 527 b 485 388 503 481 485 435 b 707 193 485 276 581 193 b 927 390 833 193 927 276 b 719 581 927 497 842 581 b 669 574 701 581 685 578 l 816 788 m 707 503 b 831 389 778 503 831 454 b 707 276 831 324 778 276 b 582 389 635 276 582 323 b 707 503 582 454 635 503 "},"❼":{"ha":1424,"x_min":0,"x_max":0,"o":"m 522 788 l 522 702 l 833 702 l 573 201 l 683 201 l 942 715 l 942 788 m 712 1089 b 1318 487 1047 1089 1318 819 b 712 -117 1318 154 1047 -117 b 106 487 376 -117 106 154 b 712 1089 106 819 376 1089 "},"❽":{"ha":1424,"x_min":0,"x_max":0,"o":"m 712 1089 b 1318 487 1047 1089 1318 819 b 712 -117 1318 154 1047 -117 b 106 487 376 -117 106 154 b 712 1089 106 819 376 1089 m 712 796 b 498 634 595 796 498 736 b 602 498 498 564 543 521 b 483 358 536 476 483 432 b 712 193 483 253 587 193 b 941 358 837 193 941 253 b 822 498 941 432 888 476 b 926 634 880 521 926 564 b 712 796 926 736 829 796 m 712 462 b 841 368 781 462 841 429 b 712 275 841 307 781 275 b 583 368 642 275 583 307 b 712 462 583 429 642 462 m 712 714 b 828 626 776 714 828 683 b 712 535 828 567 776 535 b 596 626 648 535 596 567 b 712 714 596 683 648 714 "},"❾":{"ha":1424,"x_min":0,"x_max":0,"o":"m 712 1089 b 1318 487 1047 1089 1318 819 b 712 -117 1318 154 1047 -117 b 106 487 376 -117 106 154 b 712 1089 106 819 376 1089 m 722 201 l 893 462 b 941 602 924 508 941 553 b 720 796 941 713 847 796 b 499 599 594 796 499 713 b 708 408 499 492 585 408 b 758 415 725 408 742 410 l 610 201 m 720 487 b 596 601 649 487 596 535 b 720 714 596 666 649 714 b 845 601 792 714 845 666 b 720 487 845 535 792 487 "},"⭑":{"ha":1250,"x_min":0,"x_max":0,"o":"m 1113 606 l 812 387 l 927 32 l 626 251 l 325 32 l 440 387 l 138 606 l 511 606 l 626 960 l 740 606 "},"⭒":{"ha":1250,"x_min":0,"x_max":0,"o":"m 1113 606 l 812 387 l 927 32 l 626 251 l 325 32 l 440 387 l 138 606 l 511 606 l 626 960 l 740 606 m 626 752 l 558 542 l 335 542 l 515 411 l 447 200 l 626 331 l 805 200 l 737 411 l 916 542 l 694 542 "},"⸗":{"ha":645,"x_min":0,"x_max":0,"o":"m 518 522 l 127 380 l 127 471 l 518 613 m 518 297 l 127 154 l 127 245 l 518 388 "},"⸸":{"ha":515,"x_min":0,"x_max":0,"o":"m 300 1000 l 300 695 l 444 695 l 444 612 l 300 612 l 300 467 l 215 467 l 215 612 l 70 612 l 70 695 l 215 695 l 215 1000 "},"":{"ha":1250,"x_min":0,"x_max":0,"o":"m 1113 606 l 812 387 l 927 32 l 626 251 l 325 32 l 440 387 l 138 606 l 511 606 l 626 960 l 740 606 m 626 752 l 626 331 l 805 200 l 737 411 l 916 542 l 694 542 "},"":{"ha":1250,"x_min":0,"x_max":0,"o":"m 325 32 l 440 387 l 138 606 l 511 606 l 626 960 l 626 251 "},"ﬀ":{"ha":1181,"x_min":0,"x_max":0,"o":"m 553 564 l 291 564 l 291 0 l 187 0 l 187 564 l 37 564 l 37 658 l 187 658 l 187 770 b 406 1013 187 910 250 1013 b 585 964 480 1013 539 992 l 548 877 b 413 916 513 898 463 916 b 291 770 328 916 291 862 l 291 658 l 553 658 m 1134 564 l 872 564 l 872 0 l 768 0 l 768 564 l 618 564 l 618 658 l 768 658 l 768 770 b 987 1013 768 910 831 1013 b 1167 964 1061 1013 1120 992 l 1129 877 b 994 916 1094 898 1044 916 b 872 770 909 916 872 862 l 872 658 l 1134 658 "},"ﬁ":{"ha":947,"x_min":0,"x_max":0,"o":"m 553 564 l 291 564 l 291 0 l 187 0 l 187 564 l 37 564 l 37 658 l 187 658 l 187 770 b 406 1013 187 910 250 1013 b 585 964 480 1013 539 992 l 548 877 b 413 916 513 898 463 916 b 291 770 328 916 291 862 l 291 658 l 553 658 m 825 0 l 721 0 l 721 658 l 825 658 m 773 965 b 847 891 814 965 847 933 b 773 818 847 849 814 818 b 700 891 731 818 700 849 b 773 965 700 933 731 965 "},"ﬂ":{"ha":947,"x_min":0,"x_max":0,"o":"m 553 564 l 291 564 l 291 0 l 187 0 l 187 564 l 37 564 l 37 658 l 187 658 l 187 770 b 406 1013 187 910 250 1013 b 585 964 480 1013 539 992 l 548 877 b 413 916 513 898 463 916 b 291 770 328 916 291 862 l 291 658 l 553 658 m 825 0 l 721 0 l 721 1000 l 825 1000 "},"ﬃ":{"ha":1528,"x_min":0,"x_max":0,"o":"m 553 564 l 291 564 l 291 0 l 187 0 l 187 564 l 37 564 l 37 658 l 187 658 l 187 770 b 406 1013 187 910 250 1013 b 585 964 480 1013 539 992 l 548 877 b 413 916 513 898 463 916 b 291 770 328 916 291 862 l 291 658 l 553 658 m 1134 564 l 872 564 l 872 0 l 768 0 l 768 564 l 618 564 l 618 658 l 768 658 l 768 770 b 987 1013 768 910 831 1013 b 1167 964 1061 1013 1120 992 l 1129 877 b 994 916 1094 898 1044 916 b 872 770 909 916 872 862 l 872 658 l 1134 658 m 1406 0 l 1302 0 l 1302 658 l 1406 658 m 1354 965 b 1428 891 1395 965 1428 933 b 1354 818 1428 849 1395 818 b 1281 891 1313 818 1281 849 b 1354 965 1281 933 1313 965 "},"ﬄ":{"ha":1528,"x_min":0,"x_max":0,"o":"m 553 564 l 291 564 l 291 0 l 187 0 l 187 564 l 37 564 l 37 658 l 187 658 l 187 770 b 406 1013 187 910 250 1013 b 585 964 480 1013 539 992 l 548 877 b 413 916 513 898 463 916 b 291 770 328 916 291 862 l 291 658 l 553 658 m 1134 564 l 872 564 l 872 0 l 768 0 l 768 564 l 618 564 l 618 658 l 768 658 l 768 770 b 987 1013 768 910 831 1013 b 1167 964 1061 1013 1120 992 l 1129 877 b 994 916 1094 898 1044 916 b 872 770 909 916 872 862 l 872 658 l 1134 658 m 1406 0 l 1302 0 l 1302 1000 l 1406 1000 "},"ﬅ":{"ha":1017,"x_min":0,"x_max":0,"o":"m 956 564 l 672 564 l 672 232 b 803 84 672 129 726 84 b 940 130 853 84 903 103 l 989 52 b 794 -13 940 15 875 -13 b 569 230 653 -13 569 65 l 569 564 l 426 564 l 426 658 l 569 658 l 569 721 b 394 916 569 853 494 916 b 219 721 294 916 219 853 l 219 0 l 115 0 l 115 728 b 394 1013 115 922 247 1013 b 672 728 541 1013 672 922 l 672 658 l 956 658 "},"ﬆ":{"ha":1315,"x_min":0,"x_max":0,"o":"m 563 518 b 348 580 521 547 437 580 b 192 476 254 580 192 540 b 326 384 192 422 240 394 l 404 374 b 625 191 544 356 625 299 b 335 -12 625 66 513 -12 b 61 72 251 -12 144 8 l 109 149 b 337 78 159 110 226 78 b 518 184 448 78 518 115 b 381 280 518 237 474 269 l 302 289 b 85 471 154 307 85 373 b 347 670 85 595 190 670 b 608 599 451 670 545 641 m 1253 564 l 969 564 l 969 232 b 1100 84 969 129 1024 84 b 1238 131 1151 84 1200 103 l 1287 52 b 1092 -13 1238 15 1172 -13 b 866 230 950 -13 866 65 l 866 564 l 722 564 l 722 658 l 866 658 l 866 867 l 969 867 l 969 658 l 1253 658 "}}}
